<svg version="1.1" xmlns="http://www.w3.org/2000/svg" xmlns:xlink="http://www.w3.org/1999/xlink" width="1086.330078125" height="564"><defs></defs><g><g transform="translate(-6,-5) scale(1,1)"><rect fill="#ffffff" stroke="none" x="344" y="345" width="198.541015625" height="39"></rect></g><g transform="translate(-6,-5) scale(1,1)"><path fill="none" stroke="#000000" d="M 344 345 L 542.541015625 345 L 542.541015625 384 L 344 384 L 344 345 Z Z" stroke-miterlimit="10"></path></g><g transform="translate(-6,-5) scale(1,1)"><g><path fill="none" stroke="none"></path><text fill="#000000" stroke="none" font-family="Arial" font-size="13px" font-style="normal" font-weight="bold" text-decoration="none" x="420.14599609375" y="363">Cheese</text></g></g><g transform="translate(-6,-5) scale(1,1)"><g><path fill="none" stroke="none"></path><text fill="#000000" stroke="none" font-family="Arial" font-size="13px" font-style="normal" font-weight="normal" text-decoration="none" x="348" y="378">{IRI="obo:FOODON_00001013"}</text></g></g><g transform="translate(-6,-5) scale(1,1)"><rect fill="#ffffff" stroke="none" x="655.90185546875" y="336" width="135.8134765625" height="120"></rect></g><g transform="translate(-6,-5) scale(1,1)"><path fill="none" stroke="#000000" d="M 655.90185546875 336 L 791.71533203125 336 L 791.71533203125 456 L 655.90185546875 456 L 655.90185546875 336 Z Z" stroke-miterlimit="10"></path></g><g transform="translate(-6,-5) scale(1,1)"><path fill="none" stroke="#000000" d="M 655.90185546875 374 L 791.71533203125 374" stroke-miterlimit="10"></path></g><g transform="translate(-6,-5) scale(1,1)"><g><path fill="none" stroke="none"></path><text fill="#000000" stroke="none" font-family="Arial" font-size="13px" font-style="normal" font-weight="normal" text-decoration="none" x="686.589111328125" y="351.5">«powertype»</text></g></g><g transform="translate(-6,-5) scale(1,1)"><g><path fill="none" stroke="none"></path><text fill="#000000" stroke="none" font-family="Arial" font-size="13px" font-style="normal" font-weight="bold" text-decoration="none" x="677.6865234375" y="367">CheeseTexture</text></g></g><g transform="translate(-6,-5) scale(1,1)"><g><path fill="none" stroke="none"></path><text fill="#000000" stroke="none" font-family="Arial" font-size="13px" font-style="normal" font-weight="normal" text-decoration="none" x="660.90185546875" y="390">+SoftCheese</text></g></g><g transform="translate(-6,-5) scale(1,1)"><g><path fill="none" stroke="none"></path><text fill="#000000" stroke="none" font-family="Arial" font-size="13px" font-style="normal" font-weight="normal" text-decoration="none" x="660.90185546875" y="405">+SemiSoftCheese</text></g></g><g transform="translate(-6,-5) scale(1,1)"><g><path fill="none" stroke="none"></path><text fill="#000000" stroke="none" font-family="Arial" font-size="13px" font-style="normal" font-weight="normal" text-decoration="none" x="660.90185546875" y="420">+MediumHardCheese</text></g></g><g transform="translate(-6,-5) scale(1,1)"><g><path fill="none" stroke="none"></path><text fill="#000000" stroke="none" font-family="Arial" font-size="13px" font-style="normal" font-weight="normal" text-decoration="none" x="660.90185546875" y="435">+SemiHardCheese</text></g></g><g transform="translate(-6,-5) scale(1,1)"><g><path fill="none" stroke="none"></path><text fill="#000000" stroke="none" font-family="Arial" font-size="13px" font-style="normal" font-weight="normal" text-decoration="none" x="660.90185546875" y="450">+HardCheese</text></g></g><g transform="translate(-6,-5) scale(1,1)"><rect fill="#ffffff" stroke="none" x="320" y="236" width="235.55419921875" height="47"></rect></g><g transform="translate(-6,-5) scale(1,1)"><path fill="none" stroke="#000000" d="M 320 236 L 555.55419921875 236 L 555.55419921875 283 L 320 283 L 320 236 Z Z" stroke-miterlimit="10"></path></g><g transform="translate(-6,-5) scale(1,1)"><path fill="none" stroke="#000000" d="M 320 261 L 555.55419921875 261" stroke-miterlimit="10"></path></g><g transform="translate(-6,-5) scale(1,1)"><g><path fill="none" stroke="none"></path><text fill="#000000" stroke="none" font-family="Arial" font-size="13px" font-style="normal" font-weight="bold" text-decoration="none" x="419.36572265625" y="254">Aging</text></g></g><g transform="translate(-6,-5) scale(1,1)"><g><path fill="none" stroke="none"></path><text fill="#000000" stroke="none" font-family="Arial" font-size="13px" font-style="normal" font-weight="normal" text-decoration="none" x="325" y="277">+hasAgingDuration: xsd:positiveInteger</text></g></g><g transform="translate(-6,-5) scale(1,1)"><path fill="none" stroke="#000000" d="M 440 345 L 440 283" stroke-miterlimit="10"></path></g><g transform="translate(-6,-5) scale(1,1)"><g><path fill="none" stroke="none"></path><text fill="#000000" stroke="none" font-family="Arial" font-size="13px" font-style="normal" font-weight="normal" text-decoration="none" x="446.5" y="314">+hasAging</text></g></g><g transform="translate(-6,-5) scale(1,1)"><g><path fill="none" stroke="none"></path><text fill="#000000" stroke="none" font-family="Arial" font-size="13px" font-style="normal" font-weight="normal" text-decoration="none" x="423.220458984375" y="335">*</text></g></g><g transform="translate(-6,-5) scale(1,1)"><g><path fill="none" stroke="none"></path><text fill="#000000" stroke="none" font-family="Arial" font-size="13px" font-style="normal" font-weight="normal" text-decoration="none" x="415.5" y="303">0..1</text></g></g><g transform="translate(-6,-5) scale(1,1)"><rect fill="#ffffff" stroke="none" x="16" y="520" width="198.541015625" height="39"></rect></g><g transform="translate(-6,-5) scale(1,1)"><path fill="none" stroke="#000000" d="M 16 520 L 214.541015625 520 L 214.541015625 559 L 16 559 L 16 520 Z Z" stroke-miterlimit="10"></path></g><g transform="translate(-6,-5) scale(1,1)"><g><path fill="none" stroke="none"></path><text fill="#000000" stroke="none" font-family="Arial" font-size="13px" font-style="normal" font-weight="bold" text-decoration="none" x="79.510986328125" y="538">SoftCheese</text></g></g><g transform="translate(-6,-5) scale(1,1)"><g><path fill="none" stroke="none"></path><text fill="#000000" stroke="none" font-family="Arial" font-size="13px" font-style="normal" font-weight="normal" text-decoration="none" x="20" y="553">{IRI="obo:FOODON_00002252"}</text></g></g><g transform="translate(-6,-5) scale(1,1)"><rect fill="#ffffff" stroke="none" x="232" y="520" width="198.541015625" height="39"></rect></g><g transform="translate(-6,-5) scale(1,1)"><path fill="none" stroke="#000000" d="M 232 520 L 430.541015625 520 L 430.541015625 559 L 232 559 L 232 520 Z Z" stroke-miterlimit="10"></path></g><g transform="translate(-6,-5) scale(1,1)"><g><path fill="none" stroke="none"></path><text fill="#000000" stroke="none" font-family="Arial" font-size="13px" font-style="normal" font-weight="bold" text-decoration="none" x="279.97509765625" y="538">SemiSoftCheese</text></g></g><g transform="translate(-6,-5) scale(1,1)"><g><path fill="none" stroke="none"></path><text fill="#000000" stroke="none" font-family="Arial" font-size="13px" font-style="normal" font-weight="normal" text-decoration="none" x="236" y="553">{IRI="obo:FOODON_00002231"}</text></g></g><g transform="translate(-6,-5) scale(1,1)"><rect fill="#ffffff" stroke="none" x="600" y="520" width="173.2392578125" height="39"></rect></g><g transform="translate(-6,-5) scale(1,1)"><path fill="none" stroke="#000000" d="M 600 520 L 773.2392578125 520 L 773.2392578125 559 L 600 559 L 600 520 Z Z" stroke-miterlimit="10"></path></g><g transform="translate(-6,-5) scale(1,1)"><g><path fill="none" stroke="none"></path><text fill="#000000" stroke="none" font-family="Arial" font-size="13px" font-style="normal" font-weight="bold" text-decoration="none" x="633.150146484375" y="538">SemiHardCheese</text></g></g><g transform="translate(-6,-5) scale(1,1)"><g><path fill="none" stroke="none"></path><text fill="#000000" stroke="none" font-family="Arial" font-size="13px" font-style="normal" font-weight="normal" text-decoration="none" x="604" y="553">{IRI="FOODON_00002230"}</text></g></g><g transform="translate(-6,-5) scale(1,1)"><rect fill="#ffffff" stroke="none" x="792" y="520" width="198.541015625" height="39"></rect></g><g transform="translate(-6,-5) scale(1,1)"><path fill="none" stroke="#000000" d="M 792 520 L 990.541015625 520 L 990.541015625 559 L 792 559 L 792 520 Z Z" stroke-miterlimit="10"></path></g><g transform="translate(-6,-5) scale(1,1)"><g><path fill="none" stroke="none"></path><text fill="#000000" stroke="none" font-family="Arial" font-size="13px" font-style="normal" font-weight="bold" text-decoration="none" x="853.3369140625" y="538">HardCheese</text></g></g><g transform="translate(-6,-5) scale(1,1)"><g><path fill="none" stroke="none"></path><text fill="#000000" stroke="none" font-family="Arial" font-size="13px" font-style="normal" font-weight="normal" text-decoration="none" x="796" y="553">{IRI="obo:FOODON_00001945"}</text></g></g><g transform="translate(-6,-5) scale(1,1)"><rect fill="#ffffff" stroke="none" x="16" y="440" width="145.5380859375" height="24"></rect></g><g transform="translate(-6,-5) scale(1,1)"><path fill="none" stroke="#000000" d="M 16 440 L 161.5380859375 440 L 161.5380859375 464 L 16 464 L 16 440 Z Z" stroke-miterlimit="10"></path></g><g transform="translate(-6,-5) scale(1,1)"><g><path fill="none" stroke="none"></path><text fill="#000000" stroke="none" font-family="Arial" font-size="13px" font-style="normal" font-weight="bold" text-decoration="none" x="20.5" y="458">StretchedCurdCheese</text></g></g><g transform="translate(-6,-5) scale(1,1)"><rect fill="#ffffff" stroke="none" x="192" y="232" width="87.7490234375" height="24"></rect></g><g transform="translate(-6,-5) scale(1,1)"><path fill="none" stroke="#000000" d="M 192 232 L 279.7490234375 232 L 279.7490234375 256 L 192 256 L 192 232 Z Z" stroke-miterlimit="10"></path></g><g transform="translate(-6,-5) scale(1,1)"><g><path fill="none" stroke="none"></path><text fill="#000000" stroke="none" font-family="Arial" font-size="13px" font-style="normal" font-weight="bold" text-decoration="none" x="196.5" y="250">AgedCheese</text></g></g><g transform="translate(-6,-5) scale(1,1)"><path fill="none" stroke="#000000" d="M 232 256 L 232 272 L 184 272 L 184 296 L 368 296 L 368 345" stroke-miterlimit="10"></path></g><g transform="translate(-6,-5) scale(1,1)"><path fill="#FFFFFF" stroke="none" d="M 359.580964487968 324.6746502847517 L 368 345 L 376.419035512032 324.6746502847517"></path></g><g transform="translate(-6,-5) scale(1,1)"><path fill="none" stroke="#000000" d="M 359.580964487968 324.6746502847517 L 368 345 L 376.419035512032 324.6746502847517 L 359.580964487968 324.6746502847517" stroke-miterlimit="10"></path></g><g transform="translate(-6,-5) scale(1,1)"><path fill="none" stroke="#000000" d="M 235 232 L 235 208 L 392 208 L 392 236" stroke-miterlimit="10" stroke-dasharray="3"></path></g><g transform="translate(-6,-5) scale(1,1)"><path fill="none" stroke="#000000" d="M 387.790482243984 225.83732514237585 L 392 236 L 396.209517756016 225.83732514237585" stroke-miterlimit="10"></path></g><g transform="translate(-6,-5) scale(1,1)"><g><path fill="none" stroke="none"></path><text fill="#000000" stroke="none" font-family="Arial" font-size="13px" font-style="normal" font-weight="normal" text-decoration="none" x="280.5" y="202">+hasAging</text></g></g><g transform="translate(-6,-5) scale(1,1)"><rect fill="#ffffff" stroke="none" x="80" y="232" width="90.64990234375" height="24"></rect></g><g transform="translate(-6,-5) scale(1,1)"><path fill="none" stroke="#000000" d="M 80 232 L 170.64990234375 232 L 170.64990234375 256 L 80 256 L 80 232 Z Z" stroke-miterlimit="10"></path></g><g transform="translate(-6,-5) scale(1,1)"><g><path fill="none" stroke="none"></path><text fill="#000000" stroke="none" font-family="Arial" font-size="13px" font-style="normal" font-weight="bold" text-decoration="none" x="84.5" y="250">FreshCheese</text></g></g><g transform="translate(-6,-5) scale(1,1)"><path fill="none" stroke="#000000" d="M 128 256 L 128 272 L 184 272 L 184 296 L 368 296 L 368 345" stroke-miterlimit="10"></path></g><g transform="translate(-6,-5) scale(1,1)"><path fill="#FFFFFF" stroke="none" d="M 359.580964487968 324.6746502847517 L 368 345 L 376.419035512032 324.6746502847517"></path></g><g transform="translate(-6,-5) scale(1,1)"><path fill="none" stroke="#000000" d="M 359.580964487968 324.6746502847517 L 368 345 L 376.419035512032 324.6746502847517 L 359.580964487968 324.6746502847517" stroke-miterlimit="10"></path></g><g transform="translate(-6,-5) scale(1,1)"><rect fill="#ffffff" stroke="none" x="448" y="520" width="133.97900390625" height="24"></rect></g><g transform="translate(-6,-5) scale(1,1)"><path fill="none" stroke="#000000" d="M 448 520 L 581.97900390625 520 L 581.97900390625 544 L 448 544 L 448 520 Z Z" stroke-miterlimit="10"></path></g><g transform="translate(-6,-5) scale(1,1)"><g><path fill="none" stroke="none"></path><text fill="#000000" stroke="none" font-family="Arial" font-size="13px" font-style="normal" font-weight="bold" text-decoration="none" x="452.5" y="538">MediumHardCheese</text></g></g><g transform="translate(-6,-5) scale(1,1)"><path fill="none" stroke="#000000" d="M 896 520 L 896 496 L 440 496 L 440 384" stroke-miterlimit="10"></path></g><g transform="translate(-6,-5) scale(1,1)"><path fill="#FFFFFF" stroke="none" d="M 448.419035512032 404.3253497152483 L 440 384 L 431.580964487968 404.3253497152483"></path></g><g transform="translate(-6,-5) scale(1,1)"><path fill="none" stroke="#000000" d="M 448.419035512032 404.3253497152483 L 440 384 L 431.580964487968 404.3253497152483 L 448.419035512032 404.3253497152483" stroke-miterlimit="10"></path></g><g transform="translate(-6,-5) scale(1,1)"><path fill="none" stroke="#000000" d="M 688 520 L 688 496 L 440 496 L 440 384" stroke-miterlimit="10"></path></g><g transform="translate(-6,-5) scale(1,1)"><path fill="#FFFFFF" stroke="none" d="M 448.419035512032 404.3253497152483 L 440 384 L 431.580964487968 404.3253497152483"></path></g><g transform="translate(-6,-5) scale(1,1)"><path fill="none" stroke="#000000" d="M 448.419035512032 404.3253497152483 L 440 384 L 431.580964487968 404.3253497152483 L 448.419035512032 404.3253497152483" stroke-miterlimit="10"></path></g><g transform="translate(-6,-5) scale(1,1)"><path fill="none" stroke="#000000" d="M 520 520 L 520 496 L 440 496 L 440 384" stroke-miterlimit="10"></path></g><g transform="translate(-6,-5) scale(1,1)"><path fill="#FFFFFF" stroke="none" d="M 448.419035512032 404.3253497152483 L 440 384 L 431.580964487968 404.3253497152483"></path></g><g transform="translate(-6,-5) scale(1,1)"><path fill="none" stroke="#000000" d="M 448.419035512032 404.3253497152483 L 440 384 L 431.580964487968 404.3253497152483 L 448.419035512032 404.3253497152483" stroke-miterlimit="10"></path></g><g transform="translate(-6,-5) scale(1,1)"><path fill="none" stroke="#000000" d="M 336 520 L 336 496 L 440 496 L 440 384" stroke-miterlimit="10"></path></g><g transform="translate(-6,-5) scale(1,1)"><path fill="#FFFFFF" stroke="none" d="M 448.419035512032 404.3253497152483 L 440 384 L 431.580964487968 404.3253497152483"></path></g><g transform="translate(-6,-5) scale(1,1)"><path fill="none" stroke="#000000" d="M 448.419035512032 404.3253497152483 L 440 384 L 431.580964487968 404.3253497152483 L 448.419035512032 404.3253497152483" stroke-miterlimit="10"></path></g><g transform="translate(-6,-5) scale(1,1)"><path fill="none" stroke="#000000" d="M 120 520 L 120 496 L 440 496 L 440 384" stroke-miterlimit="10"></path></g><g transform="translate(-6,-5) scale(1,1)"><path fill="#FFFFFF" stroke="none" d="M 448.419035512032 404.3253497152483 L 440 384 L 431.580964487968 404.3253497152483"></path></g><g transform="translate(-6,-5) scale(1,1)"><path fill="none" stroke="#000000" d="M 448.419035512032 404.3253497152483 L 440 384 L 431.580964487968 404.3253497152483 L 448.419035512032 404.3253497152483" stroke-miterlimit="10"></path></g><g transform="translate(-6,-5) scale(1,1)"><g><path fill="none" stroke="none"></path><text fill="#000000" stroke="none" font-family="Arial" font-size="13px" font-style="normal" font-weight="normal" text-decoration="none" x="253" y="311">{disjoint, complete}</text></g></g><g transform="translate(-6,-5) scale(1,1)"><g><path fill="none" stroke="none"></path><text fill="#000000" stroke="none" font-family="Arial" font-size="13px" font-style="normal" font-weight="normal" text-decoration="none" x="453" y="487">:CheeseTexture</text></g></g><g transform="translate(-6,-5) scale(1,1)"><rect fill="#ffffff" stroke="none" x="184" y="440" width="198.541015625" height="39"></rect></g><g transform="translate(-6,-5) scale(1,1)"><path fill="none" stroke="#000000" d="M 184 440 L 382.541015625 440 L 382.541015625 479 L 184 479 L 184 440 Z Z" stroke-miterlimit="10"></path></g><g transform="translate(-6,-5) scale(1,1)"><g><path fill="none" stroke="none"></path><text fill="#000000" stroke="none" font-family="Arial" font-size="13px" font-style="normal" font-weight="bold" text-decoration="none" x="239.912841796875" y="458">CreamCheese</text></g></g><g transform="translate(-6,-5) scale(1,1)"><g><path fill="none" stroke="none"></path><text fill="#000000" stroke="none" font-family="Arial" font-size="13px" font-style="normal" font-weight="normal" text-decoration="none" x="188" y="473">{IRI="obo:FOODON_03301889"}</text></g></g><g transform="translate(-6,-5) scale(1,1)"><path fill="none" stroke="#000000" d="M 88 440 L 88 416 L 184 416 L 184 376 L 344 376" stroke-miterlimit="10"></path></g><g transform="translate(-6,-5) scale(1,1)"><path fill="#FFFFFF" stroke="none" d="M 323.6746502847517 384.419035512032 L 344 376 L 323.6746502847517 367.580964487968"></path></g><g transform="translate(-6,-5) scale(1,1)"><path fill="none" stroke="#000000" d="M 323.6746502847517 384.419035512032 L 344 376 L 323.6746502847517 367.580964487968 L 323.6746502847517 384.419035512032" stroke-miterlimit="10"></path></g><g transform="translate(-6,-5) scale(1,1)"><path fill="none" stroke="#000000" d="M 288 440 L 288 416 L 184 416 L 184 376 L 344 376" stroke-miterlimit="10"></path></g><g transform="translate(-6,-5) scale(1,1)"><path fill="#FFFFFF" stroke="none" d="M 323.6746502847517 384.419035512032 L 344 376 L 323.6746502847517 367.580964487968"></path></g><g transform="translate(-6,-5) scale(1,1)"><path fill="none" stroke="#000000" d="M 323.6746502847517 384.419035512032 L 344 376 L 323.6746502847517 367.580964487968 L 323.6746502847517 384.419035512032" stroke-miterlimit="10"></path></g><g transform="translate(-6,-5) scale(1,1)"><path fill="none" stroke="#000000" d="M 543 363 L 656 363" stroke-miterlimit="10"></path></g><g transform="translate(-6,-5) scale(1,1)"><g><path fill="none" stroke="none"></path><text fill="#000000" stroke="none" font-family="Arial" font-size="13px" font-style="normal" font-weight="normal" text-decoration="none" x="563.5" y="353">+hasTexture</text></g></g><g transform="translate(-6,-5) scale(1,1)"><g><path fill="none" stroke="none"></path><text fill="#000000" stroke="none" font-family="Arial" font-size="13px" font-style="normal" font-weight="normal" text-decoration="none" x="561.812255859375" y="380">*</text></g></g><g transform="translate(-6,-5) scale(1,1)"><g><path fill="none" stroke="none"></path><text fill="#000000" stroke="none" font-family="Arial" font-size="13px" font-style="normal" font-weight="normal" text-decoration="none" x="623.5" y="380">0..1</text></g></g><g transform="translate(-6,-5) scale(1,1)"><g><path fill="none" stroke="none"></path><text fill="#000000" stroke="none" font-family="Arial" font-size="13px" font-style="normal" font-weight="normal" text-decoration="none" x="453" y="423">{disjoint, complete}</text></g></g><g transform="translate(-6,-5) scale(1,1)"><rect fill="#ffffff" stroke="none" x="616" y="236" width="253.61962890625" height="47"></rect></g><g transform="translate(-6,-5) scale(1,1)"><path fill="none" stroke="#000000" d="M 616 236 L 869.61962890625 236 L 869.61962890625 283 L 616 283 L 616 236 Z Z" stroke-miterlimit="10"></path></g><g transform="translate(-6,-5) scale(1,1)"><path fill="none" stroke="#000000" d="M 616 261 L 869.61962890625 261" stroke-miterlimit="10"></path></g><g transform="translate(-6,-5) scale(1,1)"><g><path fill="none" stroke="none"></path><text fill="#000000" stroke="none" font-family="Arial" font-size="13px" font-style="normal" font-weight="bold" text-decoration="none" x="715.007080078125" y="254">Ripening</text></g></g><g transform="translate(-6,-5) scale(1,1)"><g><path fill="none" stroke="none"></path><text fill="#000000" stroke="none" font-family="Arial" font-size="13px" font-style="normal" font-weight="normal" text-decoration="none" x="621" y="277">+hasRipeningDuration: xsd:positiveInteger</text></g></g><g transform="translate(-6,-5) scale(1,1)"><g><path fill="none" stroke="none"></path><text fill="#000000" stroke="none" font-family="Arial" font-size="13px" font-style="normal" font-weight="normal" text-decoration="none" x="45" y="407">{disjoint, incomplete}</text></g></g><g transform="translate(-6,-5) scale(1,1)"><rect fill="#ffffff" stroke="none" x="480" y="19" width="44.40087890625" height="24"></rect></g><g transform="translate(-6,-5) scale(1,1)"><path fill="none" stroke="#000000" d="M 480 19 L 524.40087890625 19 L 524.40087890625 43 L 480 43 L 480 19 Z Z" stroke-miterlimit="10"></path></g><g transform="translate(-6,-5) scale(1,1)"><g><path fill="none" stroke="none"></path><text fill="#000000" stroke="none" font-family="Arial" font-size="13px" font-style="normal" font-weight="bold" text-decoration="none" x="484.5" y="37">Event</text></g></g><g transform="translate(-6,-5) scale(1,1)"><path fill="none" stroke="#000000" d="M 480 236 L 480 208 L 504 208 L 504 43" stroke-miterlimit="10"></path></g><g transform="translate(-6,-5) scale(1,1)"><path fill="#FFFFFF" stroke="none" d="M 512.419035512032 63.32534971524831 L 504 43 L 495.580964487968 63.32534971524831"></path></g><g transform="translate(-6,-5) scale(1,1)"><path fill="none" stroke="#000000" d="M 512.419035512032 63.32534971524831 L 504 43 L 495.580964487968 63.32534971524831 L 512.419035512032 63.32534971524831" stroke-miterlimit="10"></path></g><g transform="translate(-6,-5) scale(1,1)"><path fill="none" stroke="#000000" d="M 744 236 L 744 208 L 504 208 L 504 43" stroke-miterlimit="10"></path></g><g transform="translate(-6,-5) scale(1,1)"><path fill="#FFFFFF" stroke="none" d="M 512.419035512032 63.32534971524831 L 504 43 L 495.580964487968 63.32534971524831"></path></g><g transform="translate(-6,-5) scale(1,1)"><path fill="none" stroke="#000000" d="M 512.419035512032 63.32534971524831 L 504 43 L 495.580964487968 63.32534971524831 L 512.419035512032 63.32534971524831" stroke-miterlimit="10"></path></g><g transform="translate(-6,-5) scale(1,1)"><rect fill="#ffffff" stroke="none" x="760" y="19" width="88.45361328125" height="24"></rect></g><g transform="translate(-6,-5) scale(1,1)"><path fill="none" stroke="#000000" d="M 760 19 L 848.45361328125 19 L 848.45361328125 43 L 760 43 L 760 19 Z Z" stroke-miterlimit="10"></path></g><g transform="translate(-6,-5) scale(1,1)"><g><path fill="none" stroke="none"></path><text fill="#000000" stroke="none" font-family="Arial" font-size="13px" font-style="normal" font-weight="bold" text-decoration="none" x="764.5" y="37">Environment</text></g></g><g transform="translate(-6,-5) scale(1,1)"><rect fill="#ffffff" stroke="none" x="520" y="120" width="178.330078125" height="39"></rect></g><g transform="translate(-6,-5) scale(1,1)"><path fill="none" stroke="#000000" d="M 520 120 L 698.330078125 120 L 698.330078125 159 L 520 159 L 520 120 Z Z" stroke-miterlimit="10"></path></g><g transform="translate(-6,-5) scale(1,1)"><g><path fill="none" stroke="none"></path><text fill="#000000" stroke="none" font-family="Arial" font-size="13px" font-style="normal" font-weight="bold" text-decoration="none" x="593.6259765625" y="138">Cave</text></g></g><g transform="translate(-6,-5) scale(1,1)"><g><path fill="none" stroke="none"></path><text fill="#000000" stroke="none" font-family="Arial" font-size="13px" font-style="normal" font-weight="normal" text-decoration="none" x="524" y="153">{IRI="obo:ENVO_00000067"}</text></g></g><g transform="translate(-6,-5) scale(1,1)"><rect fill="#ffffff" stroke="none" x="712" y="120" width="178.330078125" height="39"></rect></g><g transform="translate(-6,-5) scale(1,1)"><path fill="none" stroke="#000000" d="M 712 120 L 890.330078125 120 L 890.330078125 159 L 712 159 L 712 120 Z Z" stroke-miterlimit="10"></path></g><g transform="translate(-6,-5) scale(1,1)"><g><path fill="none" stroke="none"></path><text fill="#000000" stroke="none" font-family="Arial" font-size="13px" font-style="normal" font-weight="bold" text-decoration="none" x="792.859130859375" y="138">Pit</text></g></g><g transform="translate(-6,-5) scale(1,1)"><g><path fill="none" stroke="none"></path><text fill="#000000" stroke="none" font-family="Arial" font-size="13px" font-style="normal" font-weight="normal" text-decoration="none" x="716" y="153">{IRI="obo:ENVO_01001871"}</text></g></g><g transform="translate(-6,-5) scale(1,1)"><rect fill="#ffffff" stroke="none" x="904" y="120" width="178.330078125" height="39"></rect></g><g transform="translate(-6,-5) scale(1,1)"><path fill="none" stroke="#000000" d="M 904 120 L 1082.330078125 120 L 1082.330078125 159 L 904 159 L 904 120 Z Z" stroke-miterlimit="10"></path></g><g transform="translate(-6,-5) scale(1,1)"><g><path fill="none" stroke="none"></path><text fill="#000000" stroke="none" font-family="Arial" font-size="13px" font-style="normal" font-weight="bold" text-decoration="none" x="955.96142578125" y="138">Refrigerator</text></g></g><g transform="translate(-6,-5) scale(1,1)"><g><path fill="none" stroke="none"></path><text fill="#000000" stroke="none" font-family="Arial" font-size="13px" font-style="normal" font-weight="normal" text-decoration="none" x="908" y="153">{IRI="obo:ENVO_01000583"}</text></g></g><g transform="translate(-6,-5) scale(1,1)"><path fill="none" stroke="#000000" d="M 525 31 L 759 31" stroke-miterlimit="10"></path></g><g transform="translate(-6,-5) scale(1,1)"><g><path fill="none" stroke="none"></path><text fill="#000000" stroke="none" font-family="Arial" font-size="13px" font-style="normal" font-weight="normal" text-decoration="none" x="575.5" y="27">+locatedInEnvironment</text></g></g><g transform="translate(-6,-5) scale(1,1)"><g><path fill="none" stroke="none"></path><text fill="#000000" stroke="none" font-family="Arial" font-size="13px" font-style="normal" font-weight="normal" text-decoration="none" x="543.812255859375" y="48">*</text></g></g><g transform="translate(-6,-5) scale(1,1)"><g><path fill="none" stroke="none"></path><text fill="#000000" stroke="none" font-family="Arial" font-size="13px" font-style="normal" font-weight="normal" text-decoration="none" x="726.5" y="48">0..1</text></g></g><g transform="translate(-6,-5) scale(1,1)"><path fill="none" stroke="#000000" d="M 608 120 L 608 96 L 800 96 L 800 43" stroke-miterlimit="10"></path></g><g transform="translate(-6,-5) scale(1,1)"><path fill="#FFFFFF" stroke="none" d="M 808.419035512032 63.32534971524831 L 800 43 L 791.580964487968 63.32534971524831"></path></g><g transform="translate(-6,-5) scale(1,1)"><path fill="none" stroke="#000000" d="M 808.419035512032 63.32534971524831 L 800 43 L 791.580964487968 63.32534971524831 L 808.419035512032 63.32534971524831" stroke-miterlimit="10"></path></g><g transform="translate(-6,-5) scale(1,1)"><path fill="none" stroke="#000000" d="M 800 120 L 800 43" stroke-miterlimit="10"></path></g><g transform="translate(-6,-5) scale(1,1)"><path fill="#FFFFFF" stroke="none" d="M 808.419035512032 63.32534971524831 L 800 43 L 791.580964487968 63.32534971524831"></path></g><g transform="translate(-6,-5) scale(1,1)"><path fill="none" stroke="#000000" d="M 808.419035512032 63.32534971524831 L 800 43 L 791.580964487968 63.32534971524831 L 808.419035512032 63.32534971524831" stroke-miterlimit="10"></path></g><g transform="translate(-6,-5) scale(1,1)"><path fill="none" stroke="#000000" d="M 992 120 L 992 96 L 800 96 L 800 43" stroke-miterlimit="10"></path></g><g transform="translate(-6,-5) scale(1,1)"><path fill="#FFFFFF" stroke="none" d="M 808.419035512032 63.32534971524831 L 800 43 L 791.580964487968 63.32534971524831"></path></g><g transform="translate(-6,-5) scale(1,1)"><path fill="none" stroke="#000000" d="M 808.419035512032 63.32534971524831 L 800 43 L 791.580964487968 63.32534971524831 L 808.419035512032 63.32534971524831" stroke-miterlimit="10"></path></g><g transform="translate(-6,-5) scale(1,1)"><rect fill="#ffffff" stroke="none" x="16" y="19" width="139.0380859375" height="39"></rect></g><g transform="translate(-6,-5) scale(1,1)"><path fill="none" stroke="#000000" d="M 16 19 L 155.0380859375 19 L 155.0380859375 58 L 16 58 L 16 19 Z Z" stroke-miterlimit="10"></path></g><g transform="translate(-6,-5) scale(1,1)"><g><path fill="none" stroke="none"></path><text fill="#000000" stroke="none" font-family="Arial" font-size="13px" font-style="normal" font-weight="bold" text-decoration="none" x="20.5" y="37">GeographicalFeature</text></g></g><g transform="translate(-6,-5) scale(1,1)"><g><path fill="none" stroke="none"></path><text fill="#000000" stroke="none" font-family="Arial" font-size="13px" font-style="normal" font-weight="normal" text-decoration="none" x="37.81787109375" y="52">{IRI="geo:Feature"}</text></g></g><g transform="translate(-6,-5) scale(1,1)"><path fill="none" stroke="#000000" d="M 480 32 L 155 32" stroke-miterlimit="10"></path></g><g transform="translate(-6,-5) scale(1,1)"><g><path fill="none" stroke="none"></path><text fill="#000000" stroke="none" font-family="Arial" font-size="13px" font-style="normal" font-weight="normal" text-decoration="none" x="262.944091796875" y="26">+hasTakenPlaceIn</text></g></g><g transform="translate(-6,-5) scale(1,1)"><g><path fill="none" stroke="none"></path><text fill="#000000" stroke="none" font-family="Arial" font-size="13px" font-style="normal" font-weight="normal" text-decoration="none" x="463.220458984375" y="51">*</text></g></g><g transform="translate(-6,-5) scale(1,1)"><g><path fill="none" stroke="none"></path><text fill="#000000" stroke="none" font-family="Arial" font-size="13px" font-style="normal" font-weight="normal" text-decoration="none" x="167.5" y="50">0..1</text></g></g><g transform="translate(-6,-5) scale(1,1)"><path fill="none" stroke="#000000" d="M 48 328 L 48 58" stroke-miterlimit="10"></path></g><g transform="translate(-6,-5) scale(1,1)"><g><path fill="none" stroke="none"></path><text fill="#000000" stroke="none" font-family="Arial" font-size="13px" font-style="normal" font-weight="normal" text-decoration="none" x="54.5" y="155">+producedIn</text></g></g><g transform="translate(-6,-5) scale(1,1)"><g><path fill="none" stroke="none"></path><text fill="#000000" stroke="none" font-family="Arial" font-size="13px" font-style="normal" font-weight="normal" text-decoration="none" x="57.220458984375" y="311">*</text></g></g><g transform="translate(-6,-5) scale(1,1)"><g><path fill="none" stroke="none"></path><text fill="#000000" stroke="none" font-family="Arial" font-size="13px" font-style="normal" font-weight="normal" text-decoration="none" x="15.5" y="76">0..1</text></g></g><g transform="translate(-6,-5) scale(1,1)"><path fill="none" stroke="#000000" d="M 520 345 L 520 312 L 744 312 L 744 283" stroke-miterlimit="10"></path></g><g transform="translate(-6,-5) scale(1,1)"><g><path fill="none" stroke="none"></path><text fill="#000000" stroke="none" font-family="Arial" font-size="13px" font-style="normal" font-weight="normal" text-decoration="none" x="592.5" y="302">+hasRipening</text></g></g><g transform="translate(-6,-5) scale(1,1)"><g><path fill="none" stroke="none"></path><text fill="#000000" stroke="none" font-family="Arial" font-size="13px" font-style="normal" font-weight="normal" text-decoration="none" x="529.470458984375" y="339">*</text></g></g><g transform="translate(-6,-5) scale(1,1)"><g><path fill="none" stroke="none"></path><text fill="#000000" stroke="none" font-family="Arial" font-size="13px" font-style="normal" font-weight="normal" text-decoration="none" x="751.5" y="306">0..1</text></g></g><g transform="translate(-6,-5) scale(1,1)"><g><path fill="none" stroke="none"></path><text fill="#000000" stroke="none" font-family="Arial" font-size="13px" font-style="normal" font-weight="normal" text-decoration="none" x="509" y="199">{disjoint, complete}</text></g></g><g transform="translate(-6,-5) scale(1,1)"><g><path fill="none" stroke="none"></path><text fill="#000000" stroke="none" font-family="Arial" font-size="13px" font-style="normal" font-weight="normal" text-decoration="none" x="677" y="87">{disjoint, complete}</text></g></g><g transform="translate(-6,-5) scale(1,1)"><rect fill="#ffffff" stroke="none" x="96" y="72" width="79.7763671875" height="37"></rect></g><g transform="translate(-6,-5) scale(1,1)"><path fill="none" stroke="#000000" d="M 96 72 L 175.7763671875 72 L 175.7763671875 109 L 96 109 L 96 72 Z Z" stroke-miterlimit="10"></path></g><g transform="translate(-6,-5) scale(1,1)"><g><path fill="none" stroke="none"></path><text fill="#000000" stroke="none" font-family="Arial" font-size="13px" font-style="normal" font-weight="normal" text-decoration="none" x="104.813232421875" y="87.5">«property»</text></g></g><g transform="translate(-6,-5) scale(1,1)"><g><path fill="none" stroke="none"></path><text fill="#000000" stroke="none" font-family="Arial" font-size="13px" font-style="normal" font-weight="bold" text-decoration="none" x="100.5" y="103">producedIn</text></g></g><g transform="translate(-6,-5) scale(1,1)"><rect fill="#ffffff" stroke="none" x="320" y="72" width="113.533203125" height="37"></rect></g><g transform="translate(-6,-5) scale(1,1)"><path fill="none" stroke="#000000" d="M 320 72 L 433.533203125 72 L 433.533203125 109 L 320 109 L 320 72 Z Z" stroke-miterlimit="10"></path></g><g transform="translate(-6,-5) scale(1,1)"><g><path fill="none" stroke="none"></path><text fill="#000000" stroke="none" font-family="Arial" font-size="13px" font-style="normal" font-weight="normal" text-decoration="none" x="345.691650390625" y="87.5">«property»</text></g></g><g transform="translate(-6,-5) scale(1,1)"><g><path fill="none" stroke="none"></path><text fill="#000000" stroke="none" font-family="Arial" font-size="13px" font-style="normal" font-weight="bold" text-decoration="none" x="324.5" y="103">hasTakenPlaceIn</text></g></g><g transform="translate(-6,-5) scale(1,1)"><rect fill="#ffffff" stroke="none" x="88" y="168" width="129.18017578125" height="52"></rect></g><g transform="translate(-6,-5) scale(1,1)"><path fill="none" stroke="#000000" d="M 88 168 L 217.18017578125 168 L 217.18017578125 220 L 88 220 L 88 168 Z Z" stroke-miterlimit="10"></path></g><g transform="translate(-6,-5) scale(1,1)"><g><path fill="none" stroke="none"></path><text fill="#000000" stroke="none" font-family="Arial" font-size="13px" font-style="normal" font-weight="normal" text-decoration="none" x="121.51513671875" y="183.5">«property»</text></g></g><g transform="translate(-6,-5) scale(1,1)"><g><path fill="none" stroke="none"></path><text fill="#000000" stroke="none" font-family="Arial" font-size="13px" font-style="normal" font-weight="bold" text-decoration="none" x="124.057373046875" y="199">locatedIn</text></g></g><g transform="translate(-6,-5) scale(1,1)"><g><path fill="none" stroke="none"></path><text fill="#000000" stroke="none" font-family="Arial" font-size="13px" font-style="normal" font-weight="normal" text-decoration="none" x="92" y="214">{IRI="geo:locatedIn"}</text></g></g><g transform="translate(-6,-5) scale(1,1)"><path fill="none" stroke="#000000" d="M 95 82 L 48 82 L 48 192" stroke-miterlimit="10" stroke-dasharray="3"></path></g><g transform="translate(-6,-5) scale(1,1)"><path fill="none" stroke="#000000" d="M 376 71 L 376 33 L 318 33" stroke-miterlimit="10" stroke-dasharray="3"></path></g><g transform="translate(-6,-5) scale(1,1)"><path fill="none" stroke="#000000" d="M 136 109 L 136 128 L 168 128 L 168 168" stroke-miterlimit="10"></path></g><g transform="translate(-6,-5) scale(1,1)"><path fill="#FFFFFF" stroke="none" d="M 159.58096448796803 147.6746502847517 L 168 168 L 176.41903551203197 147.6746502847517"></path></g><g transform="translate(-6,-5) scale(1,1)"><path fill="none" stroke="#000000" d="M 159.58096448796803 147.6746502847517 L 168 168 L 176.41903551203197 147.6746502847517 L 159.58096448796803 147.6746502847517" stroke-miterlimit="10"></path></g><g transform="translate(-6,-5) scale(1,1)"><path fill="none" stroke="#000000" d="M 376 109 L 376 128 L 168 128 L 168 168" stroke-miterlimit="10"></path></g><g transform="translate(-6,-5) scale(1,1)"><path fill="#FFFFFF" stroke="none" d="M 159.58096448796803 147.6746502847517 L 168 168 L 176.41903551203197 147.6746502847517"></path></g><g transform="translate(-6,-5) scale(1,1)"><path fill="none" stroke="#000000" d="M 159.58096448796803 147.6746502847517 L 168 168 L 176.41903551203197 147.6746502847517 L 159.58096448796803 147.6746502847517" stroke-miterlimit="10"></path></g><g transform="translate(-6,-5) scale(1,1)"><g><path fill="none" stroke="none"></path><text fill="#000000" stroke="none" font-family="Arial" font-size="13px" font-style="normal" font-weight="normal" text-decoration="none" x="189" y="119">{disjoint, incomplete}</text></g></g><g transform="translate(-6,-5) scale(1,1)"><rect fill="#ffffff" stroke="none" x="16" y="328" width="198.541015625" height="39"></rect></g><g transform="translate(-6,-5) scale(1,1)"><path fill="none" stroke="#000000" d="M 16 328 L 214.541015625 328 L 214.541015625 367 L 16 367 L 16 328 Z Z" stroke-miterlimit="10"></path></g><g transform="translate(-6,-5) scale(1,1)"><g><path fill="none" stroke="none"></path><text fill="#000000" stroke="none" font-family="Arial" font-size="13px" font-style="normal" font-weight="bold" text-decoration="none" x="99.388671875" y="346">Food</text></g></g><g transform="translate(-6,-5) scale(1,1)"><g><path fill="none" stroke="none"></path><text fill="#000000" stroke="none" font-family="Arial" font-size="13px" font-style="normal" font-weight="normal" text-decoration="none" x="20" y="361">{IRI="obo:FOODON_00002403"}</text></g></g><g transform="translate(-6,-5) scale(1,1)"><path fill="none" stroke="#000000" d="M 344 359 L 215 359" stroke-miterlimit="10"></path></g><g transform="translate(-6,-5) scale(1,1)"><path fill="#FFFFFF" stroke="none" d="M 235.3253497152483 350.580964487968 L 215 359 L 235.3253497152483 367.419035512032"></path></g><g transform="translate(-6,-5) scale(1,1)"><path fill="none" stroke="#000000" d="M 235.3253497152483 350.580964487968 L 215 359 L 235.3253497152483 367.419035512032 L 235.3253497152483 350.580964487968" stroke-miterlimit="10"></path></g></g></svg>