<svg version="1.1" xmlns="http://www.w3.org/2000/svg" xmlns:xlink="http://www.w3.org/1999/xlink" width="994.541015625" height="347"><defs></defs><g><g transform="translate(-6,-222) scale(1,1)"><rect fill="#ffffff" stroke="none" x="344" y="345" width="198.541015625" height="39"></rect></g><g transform="translate(-6,-222) scale(1,1)"><path fill="none" stroke="#000000" d="M 344 345 L 542.541015625 345 L 542.541015625 384 L 344 384 L 344 345 Z Z" stroke-miterlimit="10"></path></g><g transform="translate(-6,-222) scale(1,1)"><g><path fill="none" stroke="none"></path><text fill="#000000" stroke="none" font-family="Arial" font-size="13px" font-style="normal" font-weight="bold" text-decoration="none" x="420.14599609375" y="363">Cheese</text></g></g><g transform="translate(-6,-222) scale(1,1)"><g><path fill="none" stroke="none"></path><text fill="#000000" stroke="none" font-family="Arial" font-size="13px" font-style="normal" font-weight="normal" text-decoration="none" x="348" y="378">{IRI="obo:FOODON_00001013"}</text></g></g><g transform="translate(-6,-222) scale(1,1)"><rect fill="#ffffff" stroke="none" x="655.90185546875" y="336" width="135.8134765625" height="120"></rect></g><g transform="translate(-6,-222) scale(1,1)"><path fill="none" stroke="#000000" d="M 655.90185546875 336 L 791.71533203125 336 L 791.71533203125 456 L 655.90185546875 456 L 655.90185546875 336 Z Z" stroke-miterlimit="10"></path></g><g transform="translate(-6,-222) scale(1,1)"><path fill="none" stroke="#000000" d="M 655.90185546875 374 L 791.71533203125 374" stroke-miterlimit="10"></path></g><g transform="translate(-6,-222) scale(1,1)"><g><path fill="none" stroke="none"></path><text fill="#000000" stroke="none" font-family="Arial" font-size="13px" font-style="normal" font-weight="normal" text-decoration="none" x="686.589111328125" y="351.5">«powertype»</text></g></g><g transform="translate(-6,-222) scale(1,1)"><g><path fill="none" stroke="none"></path><text fill="#000000" stroke="none" font-family="Arial" font-size="13px" font-style="normal" font-weight="bold" text-decoration="none" x="677.6865234375" y="367">CheeseTexture</text></g></g><g transform="translate(-6,-222) scale(1,1)"><g><path fill="none" stroke="none"></path><text fill="#000000" stroke="none" font-family="Arial" font-size="13px" font-style="normal" font-weight="normal" text-decoration="none" x="660.90185546875" y="390">+SoftCheese</text></g></g><g transform="translate(-6,-222) scale(1,1)"><g><path fill="none" stroke="none"></path><text fill="#000000" stroke="none" font-family="Arial" font-size="13px" font-style="normal" font-weight="normal" text-decoration="none" x="660.90185546875" y="405">+SemiSoftCheese</text></g></g><g transform="translate(-6,-222) scale(1,1)"><g><path fill="none" stroke="none"></path><text fill="#000000" stroke="none" font-family="Arial" font-size="13px" font-style="normal" font-weight="normal" text-decoration="none" x="660.90185546875" y="420">+MediumHardCheese</text></g></g><g transform="translate(-6,-222) scale(1,1)"><g><path fill="none" stroke="none"></path><text fill="#000000" stroke="none" font-family="Arial" font-size="13px" font-style="normal" font-weight="normal" text-decoration="none" x="660.90185546875" y="435">+SemiHardCheese</text></g></g><g transform="translate(-6,-222) scale(1,1)"><g><path fill="none" stroke="none"></path><text fill="#000000" stroke="none" font-family="Arial" font-size="13px" font-style="normal" font-weight="normal" text-decoration="none" x="660.90185546875" y="450">+HardCheese</text></g></g><g transform="translate(-6,-222) scale(1,1)"><rect fill="#ffffff" stroke="none" x="16" y="520" width="198.541015625" height="39"></rect></g><g transform="translate(-6,-222) scale(1,1)"><path fill="none" stroke="#000000" d="M 16 520 L 214.541015625 520 L 214.541015625 559 L 16 559 L 16 520 Z Z" stroke-miterlimit="10"></path></g><g transform="translate(-6,-222) scale(1,1)"><g><path fill="none" stroke="none"></path><text fill="#000000" stroke="none" font-family="Arial" font-size="13px" font-style="normal" font-weight="bold" text-decoration="none" x="79.510986328125" y="538">SoftCheese</text></g></g><g transform="translate(-6,-222) scale(1,1)"><g><path fill="none" stroke="none"></path><text fill="#000000" stroke="none" font-family="Arial" font-size="13px" font-style="normal" font-weight="normal" text-decoration="none" x="20" y="553">{IRI="obo:FOODON_00002252"}</text></g></g><g transform="translate(-6,-222) scale(1,1)"><rect fill="#ffffff" stroke="none" x="232" y="520" width="198.541015625" height="39"></rect></g><g transform="translate(-6,-222) scale(1,1)"><path fill="none" stroke="#000000" d="M 232 520 L 430.541015625 520 L 430.541015625 559 L 232 559 L 232 520 Z Z" stroke-miterlimit="10"></path></g><g transform="translate(-6,-222) scale(1,1)"><g><path fill="none" stroke="none"></path><text fill="#000000" stroke="none" font-family="Arial" font-size="13px" font-style="normal" font-weight="bold" text-decoration="none" x="279.97509765625" y="538">SemiSoftCheese</text></g></g><g transform="translate(-6,-222) scale(1,1)"><g><path fill="none" stroke="none"></path><text fill="#000000" stroke="none" font-family="Arial" font-size="13px" font-style="normal" font-weight="normal" text-decoration="none" x="236" y="553">{IRI="obo:FOODON_00002231"}</text></g></g><g transform="translate(-6,-222) scale(1,1)"><rect fill="#ffffff" stroke="none" x="600" y="520" width="173.2392578125" height="39"></rect></g><g transform="translate(-6,-222) scale(1,1)"><path fill="none" stroke="#000000" d="M 600 520 L 773.2392578125 520 L 773.2392578125 559 L 600 559 L 600 520 Z Z" stroke-miterlimit="10"></path></g><g transform="translate(-6,-222) scale(1,1)"><g><path fill="none" stroke="none"></path><text fill="#000000" stroke="none" font-family="Arial" font-size="13px" font-style="normal" font-weight="bold" text-decoration="none" x="633.150146484375" y="538">SemiHardCheese</text></g></g><g transform="translate(-6,-222) scale(1,1)"><g><path fill="none" stroke="none"></path><text fill="#000000" stroke="none" font-family="Arial" font-size="13px" font-style="normal" font-weight="normal" text-decoration="none" x="604" y="553">{IRI="FOODON_00002230"}</text></g></g><g transform="translate(-6,-222) scale(1,1)"><rect fill="#ffffff" stroke="none" x="792" y="520" width="198.541015625" height="39"></rect></g><g transform="translate(-6,-222) scale(1,1)"><path fill="none" stroke="#000000" d="M 792 520 L 990.541015625 520 L 990.541015625 559 L 792 559 L 792 520 Z Z" stroke-miterlimit="10"></path></g><g transform="translate(-6,-222) scale(1,1)"><g><path fill="none" stroke="none"></path><text fill="#000000" stroke="none" font-family="Arial" font-size="13px" font-style="normal" font-weight="bold" text-decoration="none" x="853.3369140625" y="538">HardCheese</text></g></g><g transform="translate(-6,-222) scale(1,1)"><g><path fill="none" stroke="none"></path><text fill="#000000" stroke="none" font-family="Arial" font-size="13px" font-style="normal" font-weight="normal" text-decoration="none" x="796" y="553">{IRI="obo:FOODON_00001945"}</text></g></g><g transform="translate(-6,-222) scale(1,1)"><rect fill="#ffffff" stroke="none" x="16" y="440" width="145.5380859375" height="24"></rect></g><g transform="translate(-6,-222) scale(1,1)"><path fill="none" stroke="#000000" d="M 16 440 L 161.5380859375 440 L 161.5380859375 464 L 16 464 L 16 440 Z Z" stroke-miterlimit="10"></path></g><g transform="translate(-6,-222) scale(1,1)"><g><path fill="none" stroke="none"></path><text fill="#000000" stroke="none" font-family="Arial" font-size="13px" font-style="normal" font-weight="bold" text-decoration="none" x="20.5" y="458">StretchedCurdCheese</text></g></g><g transform="translate(-6,-222) scale(1,1)"><rect fill="#ffffff" stroke="none" x="448" y="520" width="133.97900390625" height="24"></rect></g><g transform="translate(-6,-222) scale(1,1)"><path fill="none" stroke="#000000" d="M 448 520 L 581.97900390625 520 L 581.97900390625 544 L 448 544 L 448 520 Z Z" stroke-miterlimit="10"></path></g><g transform="translate(-6,-222) scale(1,1)"><g><path fill="none" stroke="none"></path><text fill="#000000" stroke="none" font-family="Arial" font-size="13px" font-style="normal" font-weight="bold" text-decoration="none" x="452.5" y="538">MediumHardCheese</text></g></g><g transform="translate(-6,-222) scale(1,1)"><path fill="none" stroke="#000000" d="M 896 520 L 896 496 L 440 496 L 440 384" stroke-miterlimit="10"></path></g><g transform="translate(-6,-222) scale(1,1)"><path fill="#FFFFFF" stroke="none" d="M 448.419035512032 404.3253497152483 L 440 384 L 431.580964487968 404.3253497152483"></path></g><g transform="translate(-6,-222) scale(1,1)"><path fill="none" stroke="#000000" d="M 448.419035512032 404.3253497152483 L 440 384 L 431.580964487968 404.3253497152483 L 448.419035512032 404.3253497152483" stroke-miterlimit="10"></path></g><g transform="translate(-6,-222) scale(1,1)"><path fill="none" stroke="#000000" d="M 688 520 L 688 496 L 440 496 L 440 384" stroke-miterlimit="10"></path></g><g transform="translate(-6,-222) scale(1,1)"><path fill="#FFFFFF" stroke="none" d="M 448.419035512032 404.3253497152483 L 440 384 L 431.580964487968 404.3253497152483"></path></g><g transform="translate(-6,-222) scale(1,1)"><path fill="none" stroke="#000000" d="M 448.419035512032 404.3253497152483 L 440 384 L 431.580964487968 404.3253497152483 L 448.419035512032 404.3253497152483" stroke-miterlimit="10"></path></g><g transform="translate(-6,-222) scale(1,1)"><path fill="none" stroke="#000000" d="M 520 520 L 520 496 L 440 496 L 440 384" stroke-miterlimit="10"></path></g><g transform="translate(-6,-222) scale(1,1)"><path fill="#FFFFFF" stroke="none" d="M 448.419035512032 404.3253497152483 L 440 384 L 431.580964487968 404.3253497152483"></path></g><g transform="translate(-6,-222) scale(1,1)"><path fill="none" stroke="#000000" d="M 448.419035512032 404.3253497152483 L 440 384 L 431.580964487968 404.3253497152483 L 448.419035512032 404.3253497152483" stroke-miterlimit="10"></path></g><g transform="translate(-6,-222) scale(1,1)"><path fill="none" stroke="#000000" d="M 336 520 L 336 496 L 440 496 L 440 384" stroke-miterlimit="10"></path></g><g transform="translate(-6,-222) scale(1,1)"><path fill="#FFFFFF" stroke="none" d="M 448.419035512032 404.3253497152483 L 440 384 L 431.580964487968 404.3253497152483"></path></g><g transform="translate(-6,-222) scale(1,1)"><path fill="none" stroke="#000000" d="M 448.419035512032 404.3253497152483 L 440 384 L 431.580964487968 404.3253497152483 L 448.419035512032 404.3253497152483" stroke-miterlimit="10"></path></g><g transform="translate(-6,-222) scale(1,1)"><path fill="none" stroke="#000000" d="M 120 520 L 120 496 L 440 496 L 440 384" stroke-miterlimit="10"></path></g><g transform="translate(-6,-222) scale(1,1)"><path fill="#FFFFFF" stroke="none" d="M 448.419035512032 404.3253497152483 L 440 384 L 431.580964487968 404.3253497152483"></path></g><g transform="translate(-6,-222) scale(1,1)"><path fill="none" stroke="#000000" d="M 448.419035512032 404.3253497152483 L 440 384 L 431.580964487968 404.3253497152483 L 448.419035512032 404.3253497152483" stroke-miterlimit="10"></path></g><g transform="translate(-6,-222) scale(1,1)"><g><path fill="none" stroke="none"></path><text fill="#000000" stroke="none" font-family="Arial" font-size="13px" font-style="normal" font-weight="normal" text-decoration="none" x="453" y="487">:CheeseTexture</text></g></g><g transform="translate(-6,-222) scale(1,1)"><rect fill="#ffffff" stroke="none" x="184" y="440" width="198.541015625" height="39"></rect></g><g transform="translate(-6,-222) scale(1,1)"><path fill="none" stroke="#000000" d="M 184 440 L 382.541015625 440 L 382.541015625 479 L 184 479 L 184 440 Z Z" stroke-miterlimit="10"></path></g><g transform="translate(-6,-222) scale(1,1)"><g><path fill="none" stroke="none"></path><text fill="#000000" stroke="none" font-family="Arial" font-size="13px" font-style="normal" font-weight="bold" text-decoration="none" x="239.912841796875" y="458">CreamCheese</text></g></g><g transform="translate(-6,-222) scale(1,1)"><g><path fill="none" stroke="none"></path><text fill="#000000" stroke="none" font-family="Arial" font-size="13px" font-style="normal" font-weight="normal" text-decoration="none" x="188" y="473">{IRI="obo:FOODON_03301889"}</text></g></g><g transform="translate(-6,-222) scale(1,1)"><path fill="none" stroke="#000000" d="M 88 440 L 88 416 L 184 416 L 184 368 L 344 368" stroke-miterlimit="10"></path></g><g transform="translate(-6,-222) scale(1,1)"><path fill="#FFFFFF" stroke="none" d="M 323.6746502847517 376.419035512032 L 344 368 L 323.6746502847517 359.580964487968"></path></g><g transform="translate(-6,-222) scale(1,1)"><path fill="none" stroke="#000000" d="M 323.6746502847517 376.419035512032 L 344 368 L 323.6746502847517 359.580964487968 L 323.6746502847517 376.419035512032" stroke-miterlimit="10"></path></g><g transform="translate(-6,-222) scale(1,1)"><path fill="none" stroke="#000000" d="M 288 440 L 288 416 L 184 416 L 184 368 L 344 368" stroke-miterlimit="10"></path></g><g transform="translate(-6,-222) scale(1,1)"><path fill="#FFFFFF" stroke="none" d="M 323.6746502847517 376.419035512032 L 344 368 L 323.6746502847517 359.580964487968"></path></g><g transform="translate(-6,-222) scale(1,1)"><path fill="none" stroke="#000000" d="M 323.6746502847517 376.419035512032 L 344 368 L 323.6746502847517 359.580964487968 L 323.6746502847517 376.419035512032" stroke-miterlimit="10"></path></g><g transform="translate(-6,-222) scale(1,1)"><path fill="none" stroke="#000000" d="M 543 363 L 656 363" stroke-miterlimit="10"></path></g><g transform="translate(-6,-222) scale(1,1)"><g><path fill="none" stroke="none"></path><text fill="#000000" stroke="none" font-family="Arial" font-size="13px" font-style="normal" font-weight="normal" text-decoration="none" x="563.5" y="353">+hasTexture</text></g></g><g transform="translate(-6,-222) scale(1,1)"><g><path fill="none" stroke="none"></path><text fill="#000000" stroke="none" font-family="Arial" font-size="13px" font-style="normal" font-weight="normal" text-decoration="none" x="561.812255859375" y="379.5">*</text></g></g><g transform="translate(-6,-222) scale(1,1)"><g><path fill="none" stroke="none"></path><text fill="#000000" stroke="none" font-family="Arial" font-size="13px" font-style="normal" font-weight="normal" text-decoration="none" x="623.5" y="380">0..1</text></g></g><g transform="translate(-6,-222) scale(1,1)"><g><path fill="none" stroke="none"></path><text fill="#000000" stroke="none" font-family="Arial" font-size="13px" font-style="normal" font-weight="normal" text-decoration="none" x="453" y="423">{disjoint, complete}</text></g></g><g transform="translate(-6,-222) scale(1,1)"><g><path fill="none" stroke="none"></path><text fill="#000000" stroke="none" font-family="Arial" font-size="13px" font-style="normal" font-weight="normal" text-decoration="none" x="197" y="359">{disjoint, incomplete}</text></g></g><g transform="translate(-6,-222) scale(1,1)"><rect fill="#ffffff" stroke="none" x="344" y="232" width="198.541015625" height="39"></rect></g><g transform="translate(-6,-222) scale(1,1)"><path fill="none" stroke="#000000" d="M 344 232 L 542.541015625 232 L 542.541015625 271 L 344 271 L 344 232 Z Z" stroke-miterlimit="10"></path></g><g transform="translate(-6,-222) scale(1,1)"><g><path fill="none" stroke="none"></path><text fill="#000000" stroke="none" font-family="Arial" font-size="13px" font-style="normal" font-weight="bold" text-decoration="none" x="427.388671875" y="250">Food</text></g></g><g transform="translate(-6,-222) scale(1,1)"><g><path fill="none" stroke="none"></path><text fill="#000000" stroke="none" font-family="Arial" font-size="13px" font-style="normal" font-weight="normal" text-decoration="none" x="348" y="265">{IRI="obo:FOODON_00002403"}</text></g></g><g transform="translate(-6,-222) scale(1,1)"><path fill="none" stroke="#000000" d="M 440 345 L 440 271" stroke-miterlimit="10"></path></g><g transform="translate(-6,-222) scale(1,1)"><path fill="#FFFFFF" stroke="none" d="M 448.419035512032 291.3253497152483 L 440 271 L 431.580964487968 291.3253497152483"></path></g><g transform="translate(-6,-222) scale(1,1)"><path fill="none" stroke="#000000" d="M 448.419035512032 291.3253497152483 L 440 271 L 431.580964487968 291.3253497152483 L 448.419035512032 291.3253497152483" stroke-miterlimit="10"></path></g></g></svg>