<svg version="1.1" xmlns="http://www.w3.org/2000/svg" xmlns:xlink="http://www.w3.org/1999/xlink" width="1086.330078125" height="389"><defs></defs><g><g transform="translate(-6,-5) scale(1,1)"><rect fill="#ffffff" stroke="none" x="344" y="345" width="198.541015625" height="39"></rect></g><g transform="translate(-6,-5) scale(1,1)"><path fill="none" stroke="#000000" d="M 344 345 L 542.541015625 345 L 542.541015625 384 L 344 384 L 344 345 Z Z" stroke-miterlimit="10"></path></g><g transform="translate(-6,-5) scale(1,1)"><g><path fill="none" stroke="none"></path><text fill="#000000" stroke="none" font-family="Arial" font-size="13px" font-style="normal" font-weight="bold" text-decoration="none" x="420.14599609375" y="363">Cheese</text></g></g><g transform="translate(-6,-5) scale(1,1)"><g><path fill="none" stroke="none"></path><text fill="#000000" stroke="none" font-family="Arial" font-size="13px" font-style="normal" font-weight="normal" text-decoration="none" x="348" y="378">{IRI="obo:FOODON_00001013"}</text></g></g><g transform="translate(-6,-5) scale(1,1)"><rect fill="#ffffff" stroke="none" x="320" y="236" width="235.55419921875" height="47"></rect></g><g transform="translate(-6,-5) scale(1,1)"><path fill="none" stroke="#000000" d="M 320 236 L 555.55419921875 236 L 555.55419921875 283 L 320 283 L 320 236 Z Z" stroke-miterlimit="10"></path></g><g transform="translate(-6,-5) scale(1,1)"><path fill="none" stroke="#000000" d="M 320 261 L 555.55419921875 261" stroke-miterlimit="10"></path></g><g transform="translate(-6,-5) scale(1,1)"><g><path fill="none" stroke="none"></path><text fill="#000000" stroke="none" font-family="Arial" font-size="13px" font-style="normal" font-weight="bold" text-decoration="none" x="419.36572265625" y="254">Aging</text></g></g><g transform="translate(-6,-5) scale(1,1)"><g><path fill="none" stroke="none"></path><text fill="#000000" stroke="none" font-family="Arial" font-size="13px" font-style="normal" font-weight="normal" text-decoration="none" x="325" y="277">+hasAgingDuration: xsd:positiveInteger</text></g></g><g transform="translate(-6,-5) scale(1,1)"><path fill="none" stroke="#000000" d="M 440 345 L 440 283" stroke-miterlimit="10"></path></g><g transform="translate(-6,-5) scale(1,1)"><g><path fill="none" stroke="none"></path><text fill="#000000" stroke="none" font-family="Arial" font-size="13px" font-style="normal" font-weight="normal" text-decoration="none" x="446.5" y="314">+hasAging</text></g></g><g transform="translate(-6,-5) scale(1,1)"><g><path fill="none" stroke="none"></path><text fill="#000000" stroke="none" font-family="Arial" font-size="13px" font-style="normal" font-weight="normal" text-decoration="none" x="423.220458984375" y="335">*</text></g></g><g transform="translate(-6,-5) scale(1,1)"><g><path fill="none" stroke="none"></path><text fill="#000000" stroke="none" font-family="Arial" font-size="13px" font-style="normal" font-weight="normal" text-decoration="none" x="415.5" y="303">0..1</text></g></g><g transform="translate(-6,-5) scale(1,1)"><rect fill="#ffffff" stroke="none" x="616" y="236" width="253.61962890625" height="47"></rect></g><g transform="translate(-6,-5) scale(1,1)"><path fill="none" stroke="#000000" d="M 616 236 L 869.61962890625 236 L 869.61962890625 283 L 616 283 L 616 236 Z Z" stroke-miterlimit="10"></path></g><g transform="translate(-6,-5) scale(1,1)"><path fill="none" stroke="#000000" d="M 616 261 L 869.61962890625 261" stroke-miterlimit="10"></path></g><g transform="translate(-6,-5) scale(1,1)"><g><path fill="none" stroke="none"></path><text fill="#000000" stroke="none" font-family="Arial" font-size="13px" font-style="normal" font-weight="bold" text-decoration="none" x="715.007080078125" y="254">Ripening</text></g></g><g transform="translate(-6,-5) scale(1,1)"><g><path fill="none" stroke="none"></path><text fill="#000000" stroke="none" font-family="Arial" font-size="13px" font-style="normal" font-weight="normal" text-decoration="none" x="621" y="277">+hasRipeningDuration: xsd:positiveInteger</text></g></g><g transform="translate(-6,-5) scale(1,1)"><rect fill="#ffffff" stroke="none" x="480" y="19" width="44.40087890625" height="24"></rect></g><g transform="translate(-6,-5) scale(1,1)"><path fill="none" stroke="#000000" d="M 480 19 L 524.40087890625 19 L 524.40087890625 43 L 480 43 L 480 19 Z Z" stroke-miterlimit="10"></path></g><g transform="translate(-6,-5) scale(1,1)"><g><path fill="none" stroke="none"></path><text fill="#000000" stroke="none" font-family="Arial" font-size="13px" font-style="normal" font-weight="bold" text-decoration="none" x="484.5" y="37">Event</text></g></g><g transform="translate(-6,-5) scale(1,1)"><path fill="none" stroke="#000000" d="M 480 236 L 480 208 L 504 208 L 504 43" stroke-miterlimit="10"></path></g><g transform="translate(-6,-5) scale(1,1)"><path fill="#FFFFFF" stroke="none" d="M 512.419035512032 63.32534971524831 L 504 43 L 495.580964487968 63.32534971524831"></path></g><g transform="translate(-6,-5) scale(1,1)"><path fill="none" stroke="#000000" d="M 512.419035512032 63.32534971524831 L 504 43 L 495.580964487968 63.32534971524831 L 512.419035512032 63.32534971524831" stroke-miterlimit="10"></path></g><g transform="translate(-6,-5) scale(1,1)"><path fill="none" stroke="#000000" d="M 744 236 L 744 208 L 504 208 L 504 43" stroke-miterlimit="10"></path></g><g transform="translate(-6,-5) scale(1,1)"><path fill="#FFFFFF" stroke="none" d="M 512.419035512032 63.32534971524831 L 504 43 L 495.580964487968 63.32534971524831"></path></g><g transform="translate(-6,-5) scale(1,1)"><path fill="none" stroke="#000000" d="M 512.419035512032 63.32534971524831 L 504 43 L 495.580964487968 63.32534971524831 L 512.419035512032 63.32534971524831" stroke-miterlimit="10"></path></g><g transform="translate(-6,-5) scale(1,1)"><rect fill="#ffffff" stroke="none" x="760" y="19" width="88.45361328125" height="24"></rect></g><g transform="translate(-6,-5) scale(1,1)"><path fill="none" stroke="#000000" d="M 760 19 L 848.45361328125 19 L 848.45361328125 43 L 760 43 L 760 19 Z Z" stroke-miterlimit="10"></path></g><g transform="translate(-6,-5) scale(1,1)"><g><path fill="none" stroke="none"></path><text fill="#000000" stroke="none" font-family="Arial" font-size="13px" font-style="normal" font-weight="bold" text-decoration="none" x="764.5" y="37">Environment</text></g></g><g transform="translate(-6,-5) scale(1,1)"><rect fill="#ffffff" stroke="none" x="520" y="120" width="178.330078125" height="39"></rect></g><g transform="translate(-6,-5) scale(1,1)"><path fill="none" stroke="#000000" d="M 520 120 L 698.330078125 120 L 698.330078125 159 L 520 159 L 520 120 Z Z" stroke-miterlimit="10"></path></g><g transform="translate(-6,-5) scale(1,1)"><g><path fill="none" stroke="none"></path><text fill="#000000" stroke="none" font-family="Arial" font-size="13px" font-style="normal" font-weight="bold" text-decoration="none" x="593.6259765625" y="138">Cave</text></g></g><g transform="translate(-6,-5) scale(1,1)"><g><path fill="none" stroke="none"></path><text fill="#000000" stroke="none" font-family="Arial" font-size="13px" font-style="normal" font-weight="normal" text-decoration="none" x="524" y="153">{IRI="obo:ENVO_00000067"}</text></g></g><g transform="translate(-6,-5) scale(1,1)"><rect fill="#ffffff" stroke="none" x="712" y="120" width="178.330078125" height="39"></rect></g><g transform="translate(-6,-5) scale(1,1)"><path fill="none" stroke="#000000" d="M 712 120 L 890.330078125 120 L 890.330078125 159 L 712 159 L 712 120 Z Z" stroke-miterlimit="10"></path></g><g transform="translate(-6,-5) scale(1,1)"><g><path fill="none" stroke="none"></path><text fill="#000000" stroke="none" font-family="Arial" font-size="13px" font-style="normal" font-weight="bold" text-decoration="none" x="792.859130859375" y="138">Pit</text></g></g><g transform="translate(-6,-5) scale(1,1)"><g><path fill="none" stroke="none"></path><text fill="#000000" stroke="none" font-family="Arial" font-size="13px" font-style="normal" font-weight="normal" text-decoration="none" x="716" y="153">{IRI="obo:ENVO_01001871"}</text></g></g><g transform="translate(-6,-5) scale(1,1)"><rect fill="#ffffff" stroke="none" x="904" y="120" width="178.330078125" height="39"></rect></g><g transform="translate(-6,-5) scale(1,1)"><path fill="none" stroke="#000000" d="M 904 120 L 1082.330078125 120 L 1082.330078125 159 L 904 159 L 904 120 Z Z" stroke-miterlimit="10"></path></g><g transform="translate(-6,-5) scale(1,1)"><g><path fill="none" stroke="none"></path><text fill="#000000" stroke="none" font-family="Arial" font-size="13px" font-style="normal" font-weight="bold" text-decoration="none" x="955.96142578125" y="138">Refrigerator</text></g></g><g transform="translate(-6,-5) scale(1,1)"><g><path fill="none" stroke="none"></path><text fill="#000000" stroke="none" font-family="Arial" font-size="13px" font-style="normal" font-weight="normal" text-decoration="none" x="908" y="153">{IRI="obo:ENVO_01000583"}</text></g></g><g transform="translate(-6,-5) scale(1,1)"><path fill="none" stroke="#000000" d="M 525 31 L 759 31" stroke-miterlimit="10"></path></g><g transform="translate(-6,-5) scale(1,1)"><g><path fill="none" stroke="none"></path><text fill="#000000" stroke="none" font-family="Arial" font-size="13px" font-style="normal" font-weight="normal" text-decoration="none" x="575.5" y="27">+locatedInEnvironment</text></g></g><g transform="translate(-6,-5) scale(1,1)"><g><path fill="none" stroke="none"></path><text fill="#000000" stroke="none" font-family="Arial" font-size="13px" font-style="normal" font-weight="normal" text-decoration="none" x="543.812255859375" y="48">*</text></g></g><g transform="translate(-6,-5) scale(1,1)"><g><path fill="none" stroke="none"></path><text fill="#000000" stroke="none" font-family="Arial" font-size="13px" font-style="normal" font-weight="normal" text-decoration="none" x="726.5" y="48">0..1</text></g></g><g transform="translate(-6,-5) scale(1,1)"><path fill="none" stroke="#000000" d="M 608 120 L 608 96 L 800 96 L 800 43" stroke-miterlimit="10"></path></g><g transform="translate(-6,-5) scale(1,1)"><path fill="#FFFFFF" stroke="none" d="M 808.419035512032 63.32534971524831 L 800 43 L 791.580964487968 63.32534971524831"></path></g><g transform="translate(-6,-5) scale(1,1)"><path fill="none" stroke="#000000" d="M 808.419035512032 63.32534971524831 L 800 43 L 791.580964487968 63.32534971524831 L 808.419035512032 63.32534971524831" stroke-miterlimit="10"></path></g><g transform="translate(-6,-5) scale(1,1)"><path fill="none" stroke="#000000" d="M 800 120 L 800 43" stroke-miterlimit="10"></path></g><g transform="translate(-6,-5) scale(1,1)"><path fill="#FFFFFF" stroke="none" d="M 808.419035512032 63.32534971524831 L 800 43 L 791.580964487968 63.32534971524831"></path></g><g transform="translate(-6,-5) scale(1,1)"><path fill="none" stroke="#000000" d="M 808.419035512032 63.32534971524831 L 800 43 L 791.580964487968 63.32534971524831 L 808.419035512032 63.32534971524831" stroke-miterlimit="10"></path></g><g transform="translate(-6,-5) scale(1,1)"><path fill="none" stroke="#000000" d="M 992 120 L 992 96 L 800 96 L 800 43" stroke-miterlimit="10"></path></g><g transform="translate(-6,-5) scale(1,1)"><path fill="#FFFFFF" stroke="none" d="M 808.419035512032 63.32534971524831 L 800 43 L 791.580964487968 63.32534971524831"></path></g><g transform="translate(-6,-5) scale(1,1)"><path fill="none" stroke="#000000" d="M 808.419035512032 63.32534971524831 L 800 43 L 791.580964487968 63.32534971524831 L 808.419035512032 63.32534971524831" stroke-miterlimit="10"></path></g><g transform="translate(-6,-5) scale(1,1)"><rect fill="#ffffff" stroke="none" x="16" y="19" width="139.0380859375" height="39"></rect></g><g transform="translate(-6,-5) scale(1,1)"><path fill="none" stroke="#000000" d="M 16 19 L 155.0380859375 19 L 155.0380859375 58 L 16 58 L 16 19 Z Z" stroke-miterlimit="10"></path></g><g transform="translate(-6,-5) scale(1,1)"><g><path fill="none" stroke="none"></path><text fill="#000000" stroke="none" font-family="Arial" font-size="13px" font-style="normal" font-weight="bold" text-decoration="none" x="20.5" y="37">GeographicalFeature</text></g></g><g transform="translate(-6,-5) scale(1,1)"><g><path fill="none" stroke="none"></path><text fill="#000000" stroke="none" font-family="Arial" font-size="13px" font-style="normal" font-weight="normal" text-decoration="none" x="37.81787109375" y="52">{IRI="geo:Feature"}</text></g></g><g transform="translate(-6,-5) scale(1,1)"><path fill="none" stroke="#000000" d="M 480 32 L 155 32" stroke-miterlimit="10"></path></g><g transform="translate(-6,-5) scale(1,1)"><g><path fill="none" stroke="none"></path><text fill="#000000" stroke="none" font-family="Arial" font-size="13px" font-style="normal" font-weight="normal" text-decoration="none" x="262.944091796875" y="26">+hasTakenPlaceIn</text></g></g><g transform="translate(-6,-5) scale(1,1)"><g><path fill="none" stroke="none"></path><text fill="#000000" stroke="none" font-family="Arial" font-size="13px" font-style="normal" font-weight="normal" text-decoration="none" x="463.220458984375" y="51">*</text></g></g><g transform="translate(-6,-5) scale(1,1)"><g><path fill="none" stroke="none"></path><text fill="#000000" stroke="none" font-family="Arial" font-size="13px" font-style="normal" font-weight="normal" text-decoration="none" x="167.5" y="50">0..1</text></g></g><g transform="translate(-6,-5) scale(1,1)"><path fill="none" stroke="#000000" d="M 80 328 L 80 58" stroke-miterlimit="10"></path></g><g transform="translate(-6,-5) scale(1,1)"><g><path fill="none" stroke="none"></path><text fill="#000000" stroke="none" font-family="Arial" font-size="13px" font-style="normal" font-weight="normal" text-decoration="none" x="86.5" y="155">+producedIn</text></g></g><g transform="translate(-6,-5) scale(1,1)"><g><path fill="none" stroke="none"></path><text fill="#000000" stroke="none" font-family="Arial" font-size="13px" font-style="normal" font-weight="normal" text-decoration="none" x="89.220458984375" y="311">*</text></g></g><g transform="translate(-6,-5) scale(1,1)"><g><path fill="none" stroke="none"></path><text fill="#000000" stroke="none" font-family="Arial" font-size="13px" font-style="normal" font-weight="normal" text-decoration="none" x="47.5" y="76">0..1</text></g></g><g transform="translate(-6,-5) scale(1,1)"><path fill="none" stroke="#000000" d="M 520 345 L 520 312 L 744 312 L 744 283" stroke-miterlimit="10"></path></g><g transform="translate(-6,-5) scale(1,1)"><g><path fill="none" stroke="none"></path><text fill="#000000" stroke="none" font-family="Arial" font-size="13px" font-style="normal" font-weight="normal" text-decoration="none" x="592.5" y="302">+hasRipening</text></g></g><g transform="translate(-6,-5) scale(1,1)"><g><path fill="none" stroke="none"></path><text fill="#000000" stroke="none" font-family="Arial" font-size="13px" font-style="normal" font-weight="normal" text-decoration="none" x="529.470458984375" y="339">*</text></g></g><g transform="translate(-6,-5) scale(1,1)"><g><path fill="none" stroke="none"></path><text fill="#000000" stroke="none" font-family="Arial" font-size="13px" font-style="normal" font-weight="normal" text-decoration="none" x="751.5" y="306">0..1</text></g></g><g transform="translate(-6,-5) scale(1,1)"><g><path fill="none" stroke="none"></path><text fill="#000000" stroke="none" font-family="Arial" font-size="13px" font-style="normal" font-weight="normal" text-decoration="none" x="509" y="199">{disjoint, complete}</text></g></g><g transform="translate(-6,-5) scale(1,1)"><g><path fill="none" stroke="none"></path><text fill="#000000" stroke="none" font-family="Arial" font-size="13px" font-style="normal" font-weight="normal" text-decoration="none" x="677" y="87">{disjoint, complete}</text></g></g><g transform="translate(-6,-5) scale(1,1)"><rect fill="#ffffff" stroke="none" x="128" y="80" width="79.7763671875" height="37"></rect></g><g transform="translate(-6,-5) scale(1,1)"><path fill="none" stroke="#000000" d="M 128 80 L 207.7763671875 80 L 207.7763671875 117 L 128 117 L 128 80 Z Z" stroke-miterlimit="10"></path></g><g transform="translate(-6,-5) scale(1,1)"><g><path fill="none" stroke="none"></path><text fill="#000000" stroke="none" font-family="Arial" font-size="13px" font-style="normal" font-weight="normal" text-decoration="none" x="136.813232421875" y="95.5">«property»</text></g></g><g transform="translate(-6,-5) scale(1,1)"><g><path fill="none" stroke="none"></path><text fill="#000000" stroke="none" font-family="Arial" font-size="13px" font-style="normal" font-weight="bold" text-decoration="none" x="132.5" y="111">producedIn</text></g></g><g transform="translate(-6,-5) scale(1,1)"><rect fill="#ffffff" stroke="none" x="352" y="80" width="113.533203125" height="37"></rect></g><g transform="translate(-6,-5) scale(1,1)"><path fill="none" stroke="#000000" d="M 352 80 L 465.533203125 80 L 465.533203125 117 L 352 117 L 352 80 Z Z" stroke-miterlimit="10"></path></g><g transform="translate(-6,-5) scale(1,1)"><g><path fill="none" stroke="none"></path><text fill="#000000" stroke="none" font-family="Arial" font-size="13px" font-style="normal" font-weight="normal" text-decoration="none" x="377.691650390625" y="95.5">«property»</text></g></g><g transform="translate(-6,-5) scale(1,1)"><g><path fill="none" stroke="none"></path><text fill="#000000" stroke="none" font-family="Arial" font-size="13px" font-style="normal" font-weight="bold" text-decoration="none" x="356.5" y="111">hasTakenPlaceIn</text></g></g><g transform="translate(-6,-5) scale(1,1)"><rect fill="#ffffff" stroke="none" x="120" y="176" width="129.18017578125" height="52"></rect></g><g transform="translate(-6,-5) scale(1,1)"><path fill="none" stroke="#000000" d="M 120 176 L 249.18017578125 176 L 249.18017578125 228 L 120 228 L 120 176 Z Z" stroke-miterlimit="10"></path></g><g transform="translate(-6,-5) scale(1,1)"><g><path fill="none" stroke="none"></path><text fill="#000000" stroke="none" font-family="Arial" font-size="13px" font-style="normal" font-weight="normal" text-decoration="none" x="153.51513671875" y="191.5">«property»</text></g></g><g transform="translate(-6,-5) scale(1,1)"><g><path fill="none" stroke="none"></path><text fill="#000000" stroke="none" font-family="Arial" font-size="13px" font-style="normal" font-weight="bold" text-decoration="none" x="156.057373046875" y="207">locatedIn</text></g></g><g transform="translate(-6,-5) scale(1,1)"><g><path fill="none" stroke="none"></path><text fill="#000000" stroke="none" font-family="Arial" font-size="13px" font-style="normal" font-weight="normal" text-decoration="none" x="124" y="222">{IRI="geo:locatedIn"}</text></g></g><g transform="translate(-6,-5) scale(1,1)"><path fill="none" stroke="#000000" d="M 127 90 L 80 90 L 80 192" stroke-miterlimit="10" stroke-dasharray="3"></path></g><g transform="translate(-6,-5) scale(1,1)"><path fill="none" stroke="#000000" d="M 408 79 L 408 32 L 318 32" stroke-miterlimit="10" stroke-dasharray="3"></path></g><g transform="translate(-6,-5) scale(1,1)"><path fill="none" stroke="#000000" d="M 168 117 L 168 136 L 200 136 L 200 176" stroke-miterlimit="10"></path></g><g transform="translate(-6,-5) scale(1,1)"><path fill="#FFFFFF" stroke="none" d="M 191.58096448796803 155.6746502847517 L 200 176 L 208.41903551203197 155.6746502847517"></path></g><g transform="translate(-6,-5) scale(1,1)"><path fill="none" stroke="#000000" d="M 191.58096448796803 155.6746502847517 L 200 176 L 208.41903551203197 155.6746502847517 L 191.58096448796803 155.6746502847517" stroke-miterlimit="10"></path></g><g transform="translate(-6,-5) scale(1,1)"><path fill="none" stroke="#000000" d="M 408 117 L 408 136 L 200 136 L 200 176" stroke-miterlimit="10"></path></g><g transform="translate(-6,-5) scale(1,1)"><path fill="#FFFFFF" stroke="none" d="M 191.58096448796803 155.6746502847517 L 200 176 L 208.41903551203197 155.6746502847517"></path></g><g transform="translate(-6,-5) scale(1,1)"><path fill="none" stroke="#000000" d="M 191.58096448796803 155.6746502847517 L 200 176 L 208.41903551203197 155.6746502847517 L 191.58096448796803 155.6746502847517" stroke-miterlimit="10"></path></g><g transform="translate(-6,-5) scale(1,1)"><g><path fill="none" stroke="none"></path><text fill="#000000" stroke="none" font-family="Arial" font-size="13px" font-style="normal" font-weight="normal" text-decoration="none" x="221" y="127">{disjoint, incomplete}</text></g></g><g transform="translate(-6,-5) scale(1,1)"><rect fill="#ffffff" stroke="none" x="16" y="328" width="198.541015625" height="39"></rect></g><g transform="translate(-6,-5) scale(1,1)"><path fill="none" stroke="#000000" d="M 16 328 L 214.541015625 328 L 214.541015625 367 L 16 367 L 16 328 Z Z" stroke-miterlimit="10"></path></g><g transform="translate(-6,-5) scale(1,1)"><g><path fill="none" stroke="none"></path><text fill="#000000" stroke="none" font-family="Arial" font-size="13px" font-style="normal" font-weight="bold" text-decoration="none" x="99.388671875" y="346">Food</text></g></g><g transform="translate(-6,-5) scale(1,1)"><g><path fill="none" stroke="none"></path><text fill="#000000" stroke="none" font-family="Arial" font-size="13px" font-style="normal" font-weight="normal" text-decoration="none" x="20" y="361">{IRI="obo:FOODON_00002403"}</text></g></g><g transform="translate(-6,-5) scale(1,1)"><path fill="none" stroke="#000000" d="M 344 359 L 215 359" stroke-miterlimit="10"></path></g><g transform="translate(-6,-5) scale(1,1)"><path fill="#FFFFFF" stroke="none" d="M 235.3253497152483 350.580964487968 L 215 359 L 235.3253497152483 367.419035512032"></path></g><g transform="translate(-6,-5) scale(1,1)"><path fill="none" stroke="#000000" d="M 235.3253497152483 350.580964487968 L 215 359 L 235.3253497152483 367.419035512032 L 235.3253497152483 350.580964487968" stroke-miterlimit="10"></path></g></g></svg>