<svg version="1.1" xmlns="http://www.w3.org/2000/svg" xmlns:xlink="http://www.w3.org/1999/xlink" width="969.61962890625" height="580"><defs></defs><g><g transform="translate(-150,-231) scale(1,1)"><rect fill="#ffffff" stroke="none" x="558" y="574" width="198.541015625" height="39"></rect></g><g transform="translate(-150,-231) scale(1,1)"><path fill="none" stroke="#000000" d="M 558 574 L 756.541015625 574 L 756.541015625 613 L 558 613 L 558 574 Z Z" stroke-miterlimit="10"></path></g><g transform="translate(-150,-231) scale(1,1)"><g><path fill="none" stroke="none"></path><text fill="#000000" stroke="none" font-family="Arial" font-size="13px" font-style="normal" font-weight="bold" text-decoration="none" x="634.14599609375" y="591.5">Cheese</text></g></g><g transform="translate(-150,-231) scale(1,1)"><g><path fill="none" stroke="none"></path><text fill="#000000" stroke="none" font-family="Arial" font-size="13px" font-style="normal" font-weight="normal" text-decoration="none" x="562" y="606.5">{IRI="obo:FOODON_00001013"}</text></g></g><g transform="translate(-150,-231) scale(1,1)"><rect fill="#ffffff" stroke="none" x="534" y="465" width="235.55419921875" height="47"></rect></g><g transform="translate(-150,-231) scale(1,1)"><path fill="none" stroke="#000000" d="M 534 465 L 769.55419921875 465 L 769.55419921875 512 L 534 512 L 534 465 Z Z" stroke-miterlimit="10"></path></g><g transform="translate(-150,-231) scale(1,1)"><path fill="none" stroke="#000000" d="M 534 490 L 769.55419921875 490" stroke-miterlimit="10"></path></g><g transform="translate(-150,-231) scale(1,1)"><g><path fill="none" stroke="none"></path><text fill="#000000" stroke="none" font-family="Arial" font-size="13px" font-style="normal" font-weight="bold" text-decoration="none" x="633.36572265625" y="482.5">Aging</text></g></g><g transform="translate(-150,-231) scale(1,1)"><g><path fill="none" stroke="none"></path><text fill="#000000" stroke="none" font-family="Arial" font-size="13px" font-style="normal" font-weight="normal" text-decoration="none" x="539" y="505.5">+hasAgingDuration: xsd:positiveInteger</text></g></g><g transform="translate(-150,-231) scale(1,1)"><path fill="none" stroke="#000000" d="M 654 574 L 654 512" stroke-miterlimit="10"></path></g><g transform="translate(-150,-231) scale(1,1)"><g><path fill="none" stroke="none"></path><text fill="#000000" stroke="none" font-family="Arial" font-size="13px" font-style="normal" font-weight="normal" text-decoration="none" x="660.5" y="542.5">+hasAging</text></g></g><g transform="translate(-150,-231) scale(1,1)"><g><path fill="none" stroke="none"></path><text fill="#000000" stroke="none" font-family="Arial" font-size="13px" font-style="normal" font-weight="normal" text-decoration="none" x="637.220458984375" y="563.5">*</text></g></g><g transform="translate(-150,-231) scale(1,1)"><g><path fill="none" stroke="none"></path><text fill="#000000" stroke="none" font-family="Arial" font-size="13px" font-style="normal" font-weight="normal" text-decoration="none" x="629.5" y="531.5">0..1</text></g></g><g transform="translate(-150,-231) scale(1,1)"><rect fill="#ffffff" stroke="none" x="406" y="461" width="87.7490234375" height="24"></rect></g><g transform="translate(-150,-231) scale(1,1)"><path fill="none" stroke="#000000" d="M 406 461 L 493.7490234375 461 L 493.7490234375 485 L 406 485 L 406 461 Z Z" stroke-miterlimit="10"></path></g><g transform="translate(-150,-231) scale(1,1)"><g><path fill="none" stroke="none"></path><text fill="#000000" stroke="none" font-family="Arial" font-size="13px" font-style="normal" font-weight="bold" text-decoration="none" x="410.5" y="478.5">AgedCheese</text></g></g><g transform="translate(-150,-231) scale(1,1)"><path fill="none" stroke="#000000" d="M 446 485 L 446 501 L 398 501 L 398 525 L 582 525 L 582 574" stroke-miterlimit="10"></path></g><g transform="translate(-150,-231) scale(1,1)"><path fill="#FFFFFF" stroke="none" d="M 573.580964487968 553.6746502847517 L 582 574 L 590.419035512032 553.6746502847517"></path></g><g transform="translate(-150,-231) scale(1,1)"><path fill="none" stroke="#000000" d="M 573.580964487968 553.6746502847517 L 582 574 L 590.419035512032 553.6746502847517 L 573.580964487968 553.6746502847517" stroke-miterlimit="10"></path></g><g transform="translate(-150,-231) scale(1,1)"><path fill="none" stroke="#000000" d="M 449 461 L 449 437 L 606 437 L 606 465" stroke-miterlimit="10" stroke-dasharray="3"></path></g><g transform="translate(-150,-231) scale(1,1)"><path fill="none" stroke="#000000" d="M 601.790482243984 454.83732514237585 L 606 465 L 610.209517756016 454.83732514237585" stroke-miterlimit="10"></path></g><g transform="translate(-150,-231) scale(1,1)"><g><path fill="none" stroke="none"></path><text fill="#000000" stroke="none" font-family="Arial" font-size="13px" font-style="normal" font-weight="normal" text-decoration="none" x="494.5" y="430.5">+hasAging</text></g></g><g transform="translate(-150,-231) scale(1,1)"><rect fill="#ffffff" stroke="none" x="294" y="461" width="90.64990234375" height="24"></rect></g><g transform="translate(-150,-231) scale(1,1)"><path fill="none" stroke="#000000" d="M 294 461 L 384.64990234375 461 L 384.64990234375 485 L 294 485 L 294 461 Z Z" stroke-miterlimit="10"></path></g><g transform="translate(-150,-231) scale(1,1)"><g><path fill="none" stroke="none"></path><text fill="#000000" stroke="none" font-family="Arial" font-size="13px" font-style="normal" font-weight="bold" text-decoration="none" x="298.5" y="478.5">FreshCheese</text></g></g><g transform="translate(-150,-231) scale(1,1)"><path fill="none" stroke="#000000" d="M 342 485 L 342 501 L 398 501 L 398 525 L 582 525 L 582 574" stroke-miterlimit="10"></path></g><g transform="translate(-150,-231) scale(1,1)"><path fill="#FFFFFF" stroke="none" d="M 573.580964487968 553.6746502847517 L 582 574 L 590.419035512032 553.6746502847517"></path></g><g transform="translate(-150,-231) scale(1,1)"><path fill="none" stroke="#000000" d="M 573.580964487968 553.6746502847517 L 582 574 L 590.419035512032 553.6746502847517 L 573.580964487968 553.6746502847517" stroke-miterlimit="10"></path></g><g transform="translate(-150,-231) scale(1,1)"><g><path fill="none" stroke="none"></path><text fill="#000000" stroke="none" font-family="Arial" font-size="13px" font-style="normal" font-weight="normal" text-decoration="none" x="467" y="539">{disjoint, complete}</text></g></g><g transform="translate(-150,-231) scale(1,1)"><rect fill="#ffffff" stroke="none" x="856" y="465" width="253.61962890625" height="47"></rect></g><g transform="translate(-150,-231) scale(1,1)"><path fill="none" stroke="#000000" d="M 856 465 L 1109.61962890625 465 L 1109.61962890625 512 L 856 512 L 856 465 Z Z" stroke-miterlimit="10"></path></g><g transform="translate(-150,-231) scale(1,1)"><path fill="none" stroke="#000000" d="M 856 490 L 1109.61962890625 490" stroke-miterlimit="10"></path></g><g transform="translate(-150,-231) scale(1,1)"><g><path fill="none" stroke="none"></path><text fill="#000000" stroke="none" font-family="Arial" font-size="13px" font-style="normal" font-weight="bold" text-decoration="none" x="955.007080078125" y="482.5">Ripening</text></g></g><g transform="translate(-150,-231) scale(1,1)"><g><path fill="none" stroke="none"></path><text fill="#000000" stroke="none" font-family="Arial" font-size="13px" font-style="normal" font-weight="normal" text-decoration="none" x="861" y="505.5">+hasRipeningDuration: xsd:positiveInteger</text></g></g><g transform="translate(-150,-231) scale(1,1)"><rect fill="#ffffff" stroke="none" x="816" y="248" width="44.40087890625" height="24"></rect></g><g transform="translate(-150,-231) scale(1,1)"><path fill="none" stroke="#000000" d="M 816 248 L 860.40087890625 248 L 860.40087890625 272 L 816 272 L 816 248 Z Z" stroke-miterlimit="10"></path></g><g transform="translate(-150,-231) scale(1,1)"><g><path fill="none" stroke="none"></path><text fill="#000000" stroke="none" font-family="Arial" font-size="13px" font-style="normal" font-weight="bold" text-decoration="none" x="820.5" y="265.5">Event</text></g></g><g transform="translate(-150,-231) scale(1,1)"><path fill="none" stroke="#000000" d="M 694 465 L 694 437 L 840 437 L 840 272" stroke-miterlimit="10"></path></g><g transform="translate(-150,-231) scale(1,1)"><path fill="#FFFFFF" stroke="none" d="M 848.419035512032 292.3253497152483 L 840 272 L 831.580964487968 292.3253497152483"></path></g><g transform="translate(-150,-231) scale(1,1)"><path fill="none" stroke="#000000" d="M 848.419035512032 292.3253497152483 L 840 272 L 831.580964487968 292.3253497152483 L 848.419035512032 292.3253497152483" stroke-miterlimit="10"></path></g><g transform="translate(-150,-231) scale(1,1)"><path fill="none" stroke="#000000" d="M 984 465 L 984 437 L 840 437 L 840 272" stroke-miterlimit="10"></path></g><g transform="translate(-150,-231) scale(1,1)"><path fill="#FFFFFF" stroke="none" d="M 848.419035512032 292.3253497152483 L 840 272 L 831.580964487968 292.3253497152483"></path></g><g transform="translate(-150,-231) scale(1,1)"><path fill="none" stroke="#000000" d="M 848.419035512032 292.3253497152483 L 840 272 L 831.580964487968 292.3253497152483 L 848.419035512032 292.3253497152483" stroke-miterlimit="10"></path></g><g transform="translate(-150,-231) scale(1,1)"><rect fill="#ffffff" stroke="none" x="424" y="248" width="88.45361328125" height="24"></rect></g><g transform="translate(-150,-231) scale(1,1)"><path fill="none" stroke="#000000" d="M 424 248 L 512.45361328125 248 L 512.45361328125 272 L 424 272 L 424 248 Z Z" stroke-miterlimit="10"></path></g><g transform="translate(-150,-231) scale(1,1)"><g><path fill="none" stroke="none"></path><text fill="#000000" stroke="none" font-family="Arial" font-size="13px" font-style="normal" font-weight="bold" text-decoration="none" x="428.5" y="265.5">Environment</text></g></g><g transform="translate(-150,-231) scale(1,1)"><rect fill="#ffffff" stroke="none" x="184" y="349" width="178.330078125" height="39"></rect></g><g transform="translate(-150,-231) scale(1,1)"><path fill="none" stroke="#000000" d="M 184 349 L 362.330078125 349 L 362.330078125 388 L 184 388 L 184 349 Z Z" stroke-miterlimit="10"></path></g><g transform="translate(-150,-231) scale(1,1)"><g><path fill="none" stroke="none"></path><text fill="#000000" stroke="none" font-family="Arial" font-size="13px" font-style="normal" font-weight="bold" text-decoration="none" x="257.6259765625" y="366.5">Cave</text></g></g><g transform="translate(-150,-231) scale(1,1)"><g><path fill="none" stroke="none"></path><text fill="#000000" stroke="none" font-family="Arial" font-size="13px" font-style="normal" font-weight="normal" text-decoration="none" x="188" y="381.5">{IRI="obo:ENVO_00000067"}</text></g></g><g transform="translate(-150,-231) scale(1,1)"><rect fill="#ffffff" stroke="none" x="376" y="349" width="178.330078125" height="39"></rect></g><g transform="translate(-150,-231) scale(1,1)"><path fill="none" stroke="#000000" d="M 376 349 L 554.330078125 349 L 554.330078125 388 L 376 388 L 376 349 Z Z" stroke-miterlimit="10"></path></g><g transform="translate(-150,-231) scale(1,1)"><g><path fill="none" stroke="none"></path><text fill="#000000" stroke="none" font-family="Arial" font-size="13px" font-style="normal" font-weight="bold" text-decoration="none" x="456.859130859375" y="366.5">Pit</text></g></g><g transform="translate(-150,-231) scale(1,1)"><g><path fill="none" stroke="none"></path><text fill="#000000" stroke="none" font-family="Arial" font-size="13px" font-style="normal" font-weight="normal" text-decoration="none" x="380" y="381.5">{IRI="obo:ENVO_01001871"}</text></g></g><g transform="translate(-150,-231) scale(1,1)"><rect fill="#ffffff" stroke="none" x="568" y="349" width="178.330078125" height="39"></rect></g><g transform="translate(-150,-231) scale(1,1)"><path fill="none" stroke="#000000" d="M 568 349 L 746.330078125 349 L 746.330078125 388 L 568 388 L 568 349 Z Z" stroke-miterlimit="10"></path></g><g transform="translate(-150,-231) scale(1,1)"><g><path fill="none" stroke="none"></path><text fill="#000000" stroke="none" font-family="Arial" font-size="13px" font-style="normal" font-weight="bold" text-decoration="none" x="619.96142578125" y="366.5">Refrigerator</text></g></g><g transform="translate(-150,-231) scale(1,1)"><g><path fill="none" stroke="none"></path><text fill="#000000" stroke="none" font-family="Arial" font-size="13px" font-style="normal" font-weight="normal" text-decoration="none" x="572" y="381.5">{IRI="obo:ENVO_01000583"}</text></g></g><g transform="translate(-150,-231) scale(1,1)"><path fill="none" stroke="#000000" d="M 815 260 L 513 260" stroke-miterlimit="10"></path></g><g transform="translate(-150,-231) scale(1,1)"><g><path fill="none" stroke="none"></path><text fill="#000000" stroke="none" font-family="Arial" font-size="13px" font-style="normal" font-weight="normal" text-decoration="none" x="596.5" y="272.5">+locatedInEnvironment</text></g></g><g transform="translate(-150,-231) scale(1,1)"><g><path fill="none" stroke="none"></path><text fill="#000000" stroke="none" font-family="Arial" font-size="13px" font-style="normal" font-weight="normal" text-decoration="none" x="790.812255859375" y="251.5">*</text></g></g><g transform="translate(-150,-231) scale(1,1)"><g><path fill="none" stroke="none"></path><text fill="#000000" stroke="none" font-family="Arial" font-size="13px" font-style="normal" font-weight="normal" text-decoration="none" x="523.5" y="251.5">0..1</text></g></g><g transform="translate(-150,-231) scale(1,1)"><path fill="none" stroke="#000000" d="M 272 349 L 272 325 L 464 325 L 464 272" stroke-miterlimit="10"></path></g><g transform="translate(-150,-231) scale(1,1)"><path fill="#FFFFFF" stroke="none" d="M 472.419035512032 292.3253497152483 L 464 272 L 455.580964487968 292.3253497152483"></path></g><g transform="translate(-150,-231) scale(1,1)"><path fill="none" stroke="#000000" d="M 472.419035512032 292.3253497152483 L 464 272 L 455.580964487968 292.3253497152483 L 472.419035512032 292.3253497152483" stroke-miterlimit="10"></path></g><g transform="translate(-150,-231) scale(1,1)"><path fill="none" stroke="#000000" d="M 464 349 L 464 272" stroke-miterlimit="10"></path></g><g transform="translate(-150,-231) scale(1,1)"><path fill="#FFFFFF" stroke="none" d="M 472.419035512032 292.3253497152483 L 464 272 L 455.580964487968 292.3253497152483"></path></g><g transform="translate(-150,-231) scale(1,1)"><path fill="none" stroke="#000000" d="M 472.419035512032 292.3253497152483 L 464 272 L 455.580964487968 292.3253497152483 L 472.419035512032 292.3253497152483" stroke-miterlimit="10"></path></g><g transform="translate(-150,-231) scale(1,1)"><path fill="none" stroke="#000000" d="M 656 349 L 656 325 L 464 325 L 464 272" stroke-miterlimit="10"></path></g><g transform="translate(-150,-231) scale(1,1)"><path fill="#FFFFFF" stroke="none" d="M 472.419035512032 292.3253497152483 L 464 272 L 455.580964487968 292.3253497152483"></path></g><g transform="translate(-150,-231) scale(1,1)"><path fill="none" stroke="#000000" d="M 472.419035512032 292.3253497152483 L 464 272 L 455.580964487968 292.3253497152483 L 472.419035512032 292.3253497152483" stroke-miterlimit="10"></path></g><g transform="translate(-150,-231) scale(1,1)"><path fill="none" stroke="#000000" d="M 734 574 L 734 541 L 984 541 L 984 512" stroke-miterlimit="10"></path></g><g transform="translate(-150,-231) scale(1,1)"><g><path fill="none" stroke="none"></path><text fill="#000000" stroke="none" font-family="Arial" font-size="13px" font-style="normal" font-weight="normal" text-decoration="none" x="819.5" y="530.5">+hasRipening</text></g></g><g transform="translate(-150,-231) scale(1,1)"><g><path fill="none" stroke="none"></path><text fill="#000000" stroke="none" font-family="Arial" font-size="13px" font-style="normal" font-weight="normal" text-decoration="none" x="743.470458984375" y="567.5">*</text></g></g><g transform="translate(-150,-231) scale(1,1)"><g><path fill="none" stroke="none"></path><text fill="#000000" stroke="none" font-family="Arial" font-size="13px" font-style="normal" font-weight="normal" text-decoration="none" x="991.5" y="534.5">0..1</text></g></g><g transform="translate(-150,-231) scale(1,1)"><g><path fill="none" stroke="none"></path><text fill="#000000" stroke="none" font-family="Arial" font-size="13px" font-style="normal" font-weight="normal" text-decoration="none" x="723" y="427">{disjoint, complete}</text></g></g><g transform="translate(-150,-231) scale(1,1)"><g><path fill="none" stroke="none"></path><text fill="#000000" stroke="none" font-family="Arial" font-size="13px" font-style="normal" font-weight="normal" text-decoration="none" x="341" y="315">{disjoint, complete}</text></g></g><g transform="translate(-150,-231) scale(1,1)"><rect fill="#ffffff" stroke="none" x="230" y="576" width="198.541015625" height="39"></rect></g><g transform="translate(-150,-231) scale(1,1)"><path fill="none" stroke="#000000" d="M 230 576 L 428.541015625 576 L 428.541015625 615 L 230 615 L 230 576 Z Z" stroke-miterlimit="10"></path></g><g transform="translate(-150,-231) scale(1,1)"><g><path fill="none" stroke="none"></path><text fill="#000000" stroke="none" font-family="Arial" font-size="13px" font-style="normal" font-weight="bold" text-decoration="none" x="313.388671875" y="593.5">Food</text></g></g><g transform="translate(-150,-231) scale(1,1)"><g><path fill="none" stroke="none"></path><text fill="#000000" stroke="none" font-family="Arial" font-size="13px" font-style="normal" font-weight="normal" text-decoration="none" x="234" y="608.5">{IRI="obo:FOODON_00002403"}</text></g></g><g transform="translate(-150,-231) scale(1,1)"><path fill="none" stroke="#000000" d="M 558 588 L 429 588" stroke-miterlimit="10"></path></g><g transform="translate(-150,-231) scale(1,1)"><path fill="#FFFFFF" stroke="none" d="M 449.3253497152483 579.580964487968 L 429 588 L 449.3253497152483 596.419035512032"></path></g><g transform="translate(-150,-231) scale(1,1)"><path fill="none" stroke="#000000" d="M 449.3253497152483 579.580964487968 L 429 588 L 449.3253497152483 596.419035512032 L 449.3253497152483 579.580964487968" stroke-miterlimit="10"></path></g><g transform="translate(-150,-231) scale(1,1)"><rect fill="#ffffff" stroke="none" x="408" y="672" width="189.87646484375" height="39"></rect></g><g transform="translate(-150,-231) scale(1,1)"><path fill="none" stroke="#000000" d="M 408 672 L 597.87646484375 672 L 597.87646484375 711 L 408 711 L 408 672 Z Z" stroke-miterlimit="10"></path></g><g transform="translate(-150,-231) scale(1,1)"><g><path fill="none" stroke="none"></path><text fill="#000000" stroke="none" font-family="Arial" font-size="13px" font-style="normal" font-weight="bold" text-decoration="none" x="490.296875" y="689.5">Milk</text></g></g><g transform="translate(-150,-231) scale(1,1)"><g><path fill="none" stroke="none"></path><text fill="#000000" stroke="none" font-family="Arial" font-size="13px" font-style="normal" font-weight="normal" text-decoration="none" x="412" y="704.5">{IRI="obo:UBERON_0001913"}</text></g></g><g transform="translate(-150,-231) scale(1,1)"><path fill="none" stroke="#000000" d="M 408 691 L 359 691 L 359 615" stroke-miterlimit="10"></path></g><g transform="translate(-150,-231) scale(1,1)"><path fill="#FFFFFF" stroke="none" d="M 367.419035512032 635.3253497152483 L 359 615 L 350.580964487968 635.3253497152483"></path></g><g transform="translate(-150,-231) scale(1,1)"><path fill="none" stroke="#000000" d="M 367.419035512032 635.3253497152483 L 359 615 L 350.580964487968 635.3253497152483 L 367.419035512032 635.3253497152483" stroke-miterlimit="10"></path></g><g transform="translate(-150,-231) scale(1,1)"><path fill="none" stroke="#000000" d="M 576 672 L 576 613" stroke-miterlimit="10"></path></g><g transform="translate(-150,-231) scale(1,1)"><g><path fill="none" stroke="none"></path><text fill="#000000" stroke="none" font-family="Arial" font-size="13px" font-style="normal" font-weight="normal" text-decoration="none" x="467.5" y="642.5">+isMadeWithMilk</text></g></g><g transform="translate(-150,-231) scale(1,1)"><rect fill="#ffffff" stroke="none" x="240" y="736" width="166.751953125" height="39"></rect></g><g transform="translate(-150,-231) scale(1,1)"><path fill="none" stroke="#000000" d="M 240 736 L 406.751953125 736 L 406.751953125 775 L 240 775 L 240 736 Z Z" stroke-miterlimit="10"></path></g><g transform="translate(-150,-231) scale(1,1)"><g><path fill="none" stroke="none"></path><text fill="#000000" stroke="none" font-family="Arial" font-size="13px" font-style="normal" font-weight="bold" text-decoration="none" x="277.51416015625" y="753.5">ProtectedFood</text></g></g><g transform="translate(-150,-231) scale(1,1)"><g><path fill="none" stroke="none"></path><text fill="#000000" stroke="none" font-family="Arial" font-size="13px" font-style="normal" font-weight="normal" text-decoration="none" x="244" y="768.5">{IRI="food-upper:Prodotto"}</text></g></g><g transform="translate(-150,-231) scale(1,1)"><rect fill="#ffffff" stroke="none" x="568" y="736" width="188.41650390625" height="39"></rect></g><g transform="translate(-150,-231) scale(1,1)"><path fill="none" stroke="#000000" d="M 568 736 L 756.41650390625 736 L 756.41650390625 775 L 568 775 L 568 736 Z Z" stroke-miterlimit="10"></path></g><g transform="translate(-150,-231) scale(1,1)"><g><path fill="none" stroke="none"></path><text fill="#000000" stroke="none" font-family="Arial" font-size="13px" font-style="normal" font-weight="bold" text-decoration="none" x="609.103759765625" y="753.5">ProtectedCheese</text></g></g><g transform="translate(-150,-231) scale(1,1)"><g><path fill="none" stroke="none"></path><text fill="#000000" stroke="none" font-family="Arial" font-size="13px" font-style="normal" font-weight="normal" text-decoration="none" x="572" y="768.5">{IRI="food-cheese:Formaggio"}</text></g></g><g transform="translate(-150,-231) scale(1,1)"><path fill="none" stroke="#000000" d="M 567 755 L 408 755" stroke-miterlimit="10"></path></g><g transform="translate(-150,-231) scale(1,1)"><path fill="#FFFFFF" stroke="none" d="M 428.3253497152483 746.580964487968 L 408 755 L 428.3253497152483 763.419035512032"></path></g><g transform="translate(-150,-231) scale(1,1)"><path fill="none" stroke="#000000" d="M 428.3253497152483 746.580964487968 L 408 755 L 428.3253497152483 763.419035512032 L 428.3253497152483 746.580964487968" stroke-miterlimit="10"></path></g><g transform="translate(-150,-231) scale(1,1)"><path fill="none" stroke="#000000" d="M 658 736 L 658 613" stroke-miterlimit="10"></path></g><g transform="translate(-150,-231) scale(1,1)"><path fill="#FFFFFF" stroke="none" d="M 666.419035512032 633.3253497152483 L 658 613 L 649.580964487968 633.3253497152483"></path></g><g transform="translate(-150,-231) scale(1,1)"><path fill="none" stroke="#000000" d="M 666.419035512032 633.3253497152483 L 658 613 L 649.580964487968 633.3253497152483 L 666.419035512032 633.3253497152483" stroke-miterlimit="10"></path></g><g transform="translate(-150,-231) scale(1,1)"><path fill="none" stroke="#000000" d="M 296 736 L 296 615" stroke-miterlimit="10"></path></g><g transform="translate(-150,-231) scale(1,1)"><path fill="#FFFFFF" stroke="none" d="M 304.419035512032 635.3253497152483 L 296 615 L 287.580964487968 635.3253497152483"></path></g><g transform="translate(-150,-231) scale(1,1)"><path fill="none" stroke="#000000" d="M 304.419035512032 635.3253497152483 L 296 615 L 287.580964487968 635.3253497152483 L 304.419035512032 635.3253497152483" stroke-miterlimit="10"></path></g><g transform="translate(-150,-231) scale(1,1)"><rect fill="#ffffff" stroke="none" x="912" y="576" width="194.90380859375" height="39"></rect></g><g transform="translate(-150,-231) scale(1,1)"><path fill="none" stroke="#000000" d="M 912 576 L 1106.90380859375 576 L 1106.90380859375 615 L 912 615 L 912 576 Z Z" stroke-miterlimit="10"></path></g><g transform="translate(-150,-231) scale(1,1)"><g><path fill="none" stroke="none"></path><text fill="#000000" stroke="none" font-family="Arial" font-size="13px" font-style="normal" font-weight="bold" text-decoration="none" x="971.521484375" y="593.5">RawMaterial</text></g></g><g transform="translate(-150,-231) scale(1,1)"><g><path fill="none" stroke="none"></path><text fill="#000000" stroke="none" font-family="Arial" font-size="13px" font-style="normal" font-weight="normal" text-decoration="none" x="916" y="608.5">{IRI="food-upper:MateriaPrima"}</text></g></g><g transform="translate(-150,-231) scale(1,1)"><path fill="none" stroke="#000000" d="M 1008 615 L 1008 800 L 160 800 L 160 600 L 230 600" stroke-miterlimit="10"></path></g><g transform="translate(-150,-231) scale(1,1)"><path fill="#FFFFFF" stroke="none" d="M 209.6746502847517 608.419035512032 L 230 600 L 209.6746502847517 591.580964487968"></path></g><g transform="translate(-150,-231) scale(1,1)"><path fill="none" stroke="#000000" d="M 209.6746502847517 608.419035512032 L 230 600 L 209.6746502847517 591.580964487968 L 209.6746502847517 608.419035512032" stroke-miterlimit="10"></path></g><g transform="translate(-150,-231) scale(1,1)"><path fill="none" stroke="#000000" d="M 912 594 L 757 594" stroke-miterlimit="10"></path></g><g transform="translate(-150,-231) scale(1,1)"><g><path fill="none" stroke="none"></path><text fill="#000000" stroke="none" font-family="Arial" font-size="13px" font-style="normal" font-weight="normal" text-decoration="none" x="759.5" y="626.5">+isMadeWithRawMaterial</text></g></g></g></svg>