<svg version="1.1" xmlns="http://www.w3.org/2000/svg" xmlns:xlink="http://www.w3.org/1999/xlink" width="1286" height="813"><defs></defs><g><g transform="translate(3,-6) scale(1,1)"><rect fill="#ffffff" stroke="none" x="430" y="72" width="198.541015625" height="39"></rect></g><g transform="translate(3,-6) scale(1,1)"><path fill="none" stroke="#000000" d="M 430 72 L 628.541015625 72 L 628.541015625 111 L 430 111 L 430 72 Z Z" stroke-miterlimit="10"></path></g><g transform="translate(3,-6) scale(1,1)"><g><path fill="none" stroke="none"></path><text fill="#000000" stroke="none" font-family="Arial" font-size="13px" font-style="normal" font-weight="bold" text-decoration="none" x="506.14599609375" y="89.5">Cheese</text></g></g><g transform="translate(3,-6) scale(1,1)"><g><path fill="none" stroke="none"></path><text fill="#000000" stroke="none" font-family="Arial" font-size="13px" font-style="normal" font-weight="normal" text-decoration="none" x="434" y="104.5">{IRI="obo:FOODON_00001013"}</text></g></g><g transform="translate(3,-6) scale(1,1)"><rect fill="#ffffff" stroke="none" x="335" y="408" width="189.87646484375" height="39"></rect></g><g transform="translate(3,-6) scale(1,1)"><path fill="none" stroke="#000000" d="M 335 408 L 524.87646484375 408 L 524.87646484375 447 L 335 447 L 335 408 Z Z" stroke-miterlimit="10"></path></g><g transform="translate(3,-6) scale(1,1)"><g><path fill="none" stroke="none"></path><text fill="#000000" stroke="none" font-family="Arial" font-size="13px" font-style="normal" font-weight="bold" text-decoration="none" x="417.296875" y="425.5">Milk</text></g></g><g transform="translate(3,-6) scale(1,1)"><g><path fill="none" stroke="none"></path><text fill="#000000" stroke="none" font-family="Arial" font-size="13px" font-style="normal" font-weight="normal" text-decoration="none" x="339" y="440.5">{IRI="obo:UBERON_0001913"}</text></g></g><g transform="translate(3,-6) scale(1,1)"><rect fill="#ffffff" stroke="none" x="18" y="264" width="198.541015625" height="39"></rect></g><g transform="translate(3,-6) scale(1,1)"><path fill="none" stroke="#000000" d="M 18 264 L 216.541015625 264 L 216.541015625 303 L 18 303 L 18 264 Z Z" stroke-miterlimit="10"></path></g><g transform="translate(3,-6) scale(1,1)"><g><path fill="none" stroke="none"></path><text fill="#000000" stroke="none" font-family="Arial" font-size="13px" font-style="normal" font-weight="bold" text-decoration="none" x="90.90869140625" y="281.5">CowMilk</text></g></g><g transform="translate(3,-6) scale(1,1)"><g><path fill="none" stroke="none"></path><text fill="#000000" stroke="none" font-family="Arial" font-size="13px" font-style="normal" font-weight="normal" text-decoration="none" x="22" y="296.5">{IRI="obo:FOODON_00001771"}</text></g></g><g transform="translate(3,-6) scale(1,1)"><rect fill="#ffffff" stroke="none" x="296" y="264" width="196.611328125" height="39"></rect></g><g transform="translate(3,-6) scale(1,1)"><path fill="none" stroke="#000000" d="M 296 264 L 492.611328125 264 L 492.611328125 303 L 296 303 L 296 264 Z Z" stroke-miterlimit="10"></path></g><g transform="translate(3,-6) scale(1,1)"><g><path fill="none" stroke="none"></path><text fill="#000000" stroke="none" font-family="Arial" font-size="13px" font-style="normal" font-weight="bold" text-decoration="none" x="362.157958984375" y="281.5">SheepMilk</text></g></g><g transform="translate(3,-6) scale(1,1)"><g><path fill="none" stroke="none"></path><text fill="#000000" stroke="none" font-family="Arial" font-size="13px" font-style="normal" font-weight="normal" text-decoration="none" x="300" y="296.5">{IRI="obo:FOODON_00001112"}</text></g></g><g transform="translate(3,-6) scale(1,1)"><rect fill="#ffffff" stroke="none" x="568" y="264" width="197.576171875" height="39"></rect></g><g transform="translate(3,-6) scale(1,1)"><path fill="none" stroke="#000000" d="M 568 264 L 765.576171875 264 L 765.576171875 303 L 568 303 L 568 264 Z Z" stroke-miterlimit="10"></path></g><g transform="translate(3,-6) scale(1,1)"><g><path fill="none" stroke="none"></path><text fill="#000000" stroke="none" font-family="Arial" font-size="13px" font-style="normal" font-weight="bold" text-decoration="none" x="639.3408203125" y="281.5">GoatMilk</text></g></g><g transform="translate(3,-6) scale(1,1)"><g><path fill="none" stroke="none"></path><text fill="#000000" stroke="none" font-family="Arial" font-size="13px" font-style="normal" font-weight="normal" text-decoration="none" x="572" y="296.5">{IRI="obo:FOODON_00001911"}</text></g></g><g transform="translate(3,-6) scale(1,1)"><rect fill="#ffffff" stroke="none" x="840" y="264" width="197.576171875" height="39"></rect></g><g transform="translate(3,-6) scale(1,1)"><path fill="none" stroke="#000000" d="M 840 264 L 1037.576171875 264 L 1037.576171875 303 L 840 303 L 840 264 Z Z" stroke-miterlimit="10"></path></g><g transform="translate(3,-6) scale(1,1)"><g><path fill="none" stroke="none"></path><text fill="#000000" stroke="none" font-family="Arial" font-size="13px" font-style="normal" font-weight="bold" text-decoration="none" x="903.76171875" y="281.5">BuffaloMilk</text></g></g><g transform="translate(3,-6) scale(1,1)"><g><path fill="none" stroke="none"></path><text fill="#000000" stroke="none" font-family="Arial" font-size="13px" font-style="normal" font-weight="normal" text-decoration="none" x="844" y="296.5">{IRI="obo:FOODON_00001108"}</text></g></g><g transform="translate(3,-6) scale(1,1)"><rect fill="#ffffff" stroke="none" x="1128" y="264" width="71.12451171875" height="24"></rect></g><g transform="translate(3,-6) scale(1,1)"><path fill="none" stroke="#000000" d="M 1128 264 L 1199.12451171875 264 L 1199.12451171875 288 L 1128 288 L 1128 264 Z Z" stroke-miterlimit="10"></path></g><g transform="translate(3,-6) scale(1,1)"><g><path fill="none" stroke="none"></path><text fill="#000000" stroke="none" font-family="Arial" font-size="13px" font-style="normal" font-weight="bold" text-decoration="none" x="1132.5" y="281.5">MixedMilk</text></g></g><g transform="translate(3,-6) scale(1,1)"><rect fill="#ffffff" stroke="none" x="15" y="175" width="197.576171875" height="39"></rect></g><g transform="translate(3,-6) scale(1,1)"><path fill="none" stroke="#000000" d="M 15 175 L 212.576171875 175 L 212.576171875 214 L 15 214 L 15 175 Z Z" stroke-miterlimit="10"></path></g><g transform="translate(3,-6) scale(1,1)"><g><path fill="none" stroke="none"></path><text fill="#000000" stroke="none" font-family="Arial" font-size="13px" font-style="normal" font-weight="bold" text-decoration="none" x="76.943115234375" y="192.5">CowCheese</text></g></g><g transform="translate(3,-6) scale(1,1)"><g><path fill="none" stroke="none"></path><text fill="#000000" stroke="none" font-family="Arial" font-size="13px" font-style="normal" font-weight="normal" text-decoration="none" x="19" y="207.5">{IRI="obo:FOODON_00001126"}</text></g></g><g transform="translate(3,-6) scale(1,1)"><rect fill="#ffffff" stroke="none" x="288" y="175" width="197.576171875" height="39"></rect></g><g transform="translate(3,-6) scale(1,1)"><path fill="none" stroke="#000000" d="M 288 175 L 485.576171875 175 L 485.576171875 214 L 288 214 L 288 175 Z Z" stroke-miterlimit="10"></path></g><g transform="translate(3,-6) scale(1,1)"><g><path fill="none" stroke="none"></path><text fill="#000000" stroke="none" font-family="Arial" font-size="13px" font-style="normal" font-weight="bold" text-decoration="none" x="344.1572265625" y="192.5">SheepCheese</text></g></g><g transform="translate(3,-6) scale(1,1)"><g><path fill="none" stroke="none"></path><text fill="#000000" stroke="none" font-family="Arial" font-size="13px" font-style="normal" font-weight="normal" text-decoration="none" x="292" y="207.5">{IRI="obo:FOODON_00001125"}</text></g></g><g transform="translate(3,-6) scale(1,1)"><rect fill="#ffffff" stroke="none" x="568" y="176" width="197.576171875" height="39"></rect></g><g transform="translate(3,-6) scale(1,1)"><path fill="none" stroke="#000000" d="M 568 176 L 765.576171875 176 L 765.576171875 215 L 568 215 L 568 176 Z Z" stroke-miterlimit="10"></path></g><g transform="translate(3,-6) scale(1,1)"><g><path fill="none" stroke="none"></path><text fill="#000000" stroke="none" font-family="Arial" font-size="13px" font-style="normal" font-weight="bold" text-decoration="none" x="628.857666015625" y="193.5">GoatCheese</text></g></g><g transform="translate(3,-6) scale(1,1)"><g><path fill="none" stroke="none"></path><text fill="#000000" stroke="none" font-family="Arial" font-size="13px" font-style="normal" font-weight="normal" text-decoration="none" x="572" y="208.5">{IRI="obo:FOODON_00001124"}</text></g></g><g transform="translate(3,-6) scale(1,1)"><rect fill="#ffffff" stroke="none" x="872" y="176" width="100.01904296875" height="24"></rect></g><g transform="translate(3,-6) scale(1,1)"><path fill="none" stroke="#000000" d="M 872 176 L 972.01904296875 176 L 972.01904296875 200 L 872 200 L 872 176 Z Z" stroke-miterlimit="10"></path></g><g transform="translate(3,-6) scale(1,1)"><g><path fill="none" stroke="none"></path><text fill="#000000" stroke="none" font-family="Arial" font-size="13px" font-style="normal" font-weight="bold" text-decoration="none" x="876.5" y="193.5">BuffaloCheese</text></g></g><g transform="translate(3,-6) scale(1,1)"><rect fill="#ffffff" stroke="none" x="1112" y="176" width="117.37353515625" height="24"></rect></g><g transform="translate(3,-6) scale(1,1)"><path fill="none" stroke="#000000" d="M 1112 176 L 1229.37353515625 176 L 1229.37353515625 200 L 1112 200 L 1112 176 Z Z" stroke-miterlimit="10"></path></g><g transform="translate(3,-6) scale(1,1)"><g><path fill="none" stroke="none"></path><text fill="#000000" stroke="none" font-family="Arial" font-size="13px" font-style="normal" font-weight="bold" text-decoration="none" x="1116.5" y="193.5">MixedMilkCheese</text></g></g><g transform="translate(3,-6) scale(1,1)"><path fill="none" stroke="#000000" d="M 114 214 L 114 264" stroke-miterlimit="10"></path></g><g transform="translate(3,-6) scale(1,1)"><g><path fill="none" stroke="none"></path><text fill="#000000" stroke="none" font-family="Arial" font-size="13px" font-style="normal" font-weight="normal" text-decoration="none" x="8.66455078125" y="241.5">+isMadeWithMilk</text></g></g><g transform="translate(3,-6) scale(1,1)"><g><path fill="none" stroke="none"></path><text fill="#000000" stroke="none" font-family="Arial" font-size="13px" font-style="normal" font-weight="normal" text-decoration="none" x="127.812255859375" y="232.5">*</text></g></g><g transform="translate(3,-6) scale(1,1)"><g><path fill="none" stroke="none"></path><text fill="#000000" stroke="none" font-family="Arial" font-size="13px" font-style="normal" font-weight="normal" text-decoration="none" x="119.82666015625" y="255.5">0..1</text></g></g><g transform="translate(3,-6) scale(1,1)"><path fill="none" stroke="#000000" d="M 392 214 L 392 264" stroke-miterlimit="10"></path></g><g transform="translate(3,-6) scale(1,1)"><g><path fill="none" stroke="none"></path><text fill="#000000" stroke="none" font-family="Arial" font-size="13px" font-style="normal" font-weight="normal" text-decoration="none" x="286.5" y="241.5">+isMadeWithMilk</text></g></g><g transform="translate(3,-6) scale(1,1)"><g><path fill="none" stroke="none"></path><text fill="#000000" stroke="none" font-family="Arial" font-size="13px" font-style="normal" font-weight="normal" text-decoration="none" x="407.812255859375" y="232.5">*</text></g></g><g transform="translate(3,-6) scale(1,1)"><g><path fill="none" stroke="none"></path><text fill="#000000" stroke="none" font-family="Arial" font-size="13px" font-style="normal" font-weight="normal" text-decoration="none" x="399.5" y="258.5">0..1</text></g></g><g transform="translate(3,-6) scale(1,1)"><path fill="none" stroke="#000000" d="M 672 215 L 672 264" stroke-miterlimit="10"></path></g><g transform="translate(3,-6) scale(1,1)"><g><path fill="none" stroke="none"></path><text fill="#000000" stroke="none" font-family="Arial" font-size="13px" font-style="normal" font-weight="normal" text-decoration="none" x="566.5" y="240.5">+isMadeWithMilk</text></g></g><g transform="translate(3,-6) scale(1,1)"><g><path fill="none" stroke="none"></path><text fill="#000000" stroke="none" font-family="Arial" font-size="13px" font-style="normal" font-weight="normal" text-decoration="none" x="687.812255859375" y="233.5">*</text></g></g><g transform="translate(3,-6) scale(1,1)"><g><path fill="none" stroke="none"></path><text fill="#000000" stroke="none" font-family="Arial" font-size="13px" font-style="normal" font-weight="normal" text-decoration="none" x="679.5" y="258.5">0..1</text></g></g><g transform="translate(3,-6) scale(1,1)"><path fill="none" stroke="#000000" d="M 922 200 L 922 264" stroke-miterlimit="10"></path></g><g transform="translate(3,-6) scale(1,1)"><g><path fill="none" stroke="none"></path><text fill="#000000" stroke="none" font-family="Arial" font-size="13px" font-style="normal" font-weight="normal" text-decoration="none" x="816.5" y="234.5">+isMadeWithMilk</text></g></g><g transform="translate(3,-6) scale(1,1)"><g><path fill="none" stroke="none"></path><text fill="#000000" stroke="none" font-family="Arial" font-size="13px" font-style="normal" font-weight="normal" text-decoration="none" x="937.812255859375" y="218.5">*</text></g></g><g transform="translate(3,-6) scale(1,1)"><g><path fill="none" stroke="none"></path><text fill="#000000" stroke="none" font-family="Arial" font-size="13px" font-style="normal" font-weight="normal" text-decoration="none" x="929.5" y="258.5">0..1</text></g></g><g transform="translate(3,-6) scale(1,1)"><path fill="none" stroke="#000000" d="M 1170 200 L 1170 264" stroke-miterlimit="10"></path></g><g transform="translate(3,-6) scale(1,1)"><g><path fill="none" stroke="none"></path><text fill="#000000" stroke="none" font-family="Arial" font-size="13px" font-style="normal" font-weight="normal" text-decoration="none" x="1064.5" y="234.5">+isMadeWithMilk</text></g></g><g transform="translate(3,-6) scale(1,1)"><g><path fill="none" stroke="none"></path><text fill="#000000" stroke="none" font-family="Arial" font-size="13px" font-style="normal" font-weight="normal" text-decoration="none" x="1151.812255859375" y="218.5">*</text></g></g><g transform="translate(3,-6) scale(1,1)"><g><path fill="none" stroke="none"></path><text fill="#000000" stroke="none" font-family="Arial" font-size="13px" font-style="normal" font-weight="normal" text-decoration="none" x="1143.5" y="257.5">0..1</text></g></g><g transform="translate(3,-6) scale(1,1)"><path fill="none" stroke="#000000" d="M 525 424 L 1240 424 L 1240 96 L 629 96" stroke-miterlimit="10"></path></g><g transform="translate(3,-6) scale(1,1)"><g><path fill="none" stroke="none"></path><text fill="#000000" stroke="none" font-family="Arial" font-size="13px" font-style="normal" font-weight="normal" text-decoration="none" x="1061.5" y="412.5">+isMadeWithMilk</text></g></g><g transform="translate(3,-6) scale(1,1)"><g><path fill="none" stroke="none"></path><text fill="#000000" stroke="none" font-family="Arial" font-size="13px" font-style="normal" font-weight="normal" text-decoration="none" x="535.5" y="440.5">0..1</text></g></g><g transform="translate(3,-6) scale(1,1)"><g><path fill="none" stroke="none"></path><text fill="#000000" stroke="none" font-family="Arial" font-size="13px" font-style="normal" font-weight="normal" text-decoration="none" x="647.812255859375" y="87.5">*</text></g></g><g transform="translate(3,-6) scale(1,1)"><path fill="none" stroke="#000000" d="M 112 175 L 112 152 L 528 152 L 528 111" stroke-miterlimit="10"></path></g><g transform="translate(3,-6) scale(1,1)"><path fill="#FFFFFF" stroke="none" d="M 536.419035512032 131.3253497152483 L 528 111 L 519.580964487968 131.3253497152483"></path></g><g transform="translate(3,-6) scale(1,1)"><path fill="none" stroke="#000000" d="M 536.419035512032 131.3253497152483 L 528 111 L 519.580964487968 131.3253497152483 L 536.419035512032 131.3253497152483" stroke-miterlimit="10"></path></g><g transform="translate(3,-6) scale(1,1)"><path fill="none" stroke="#000000" d="M 392 175 L 392 152 L 528 152 L 528 111" stroke-miterlimit="10"></path></g><g transform="translate(3,-6) scale(1,1)"><path fill="#FFFFFF" stroke="none" d="M 536.419035512032 131.3253497152483 L 528 111 L 519.580964487968 131.3253497152483"></path></g><g transform="translate(3,-6) scale(1,1)"><path fill="none" stroke="#000000" d="M 536.419035512032 131.3253497152483 L 528 111 L 519.580964487968 131.3253497152483 L 536.419035512032 131.3253497152483" stroke-miterlimit="10"></path></g><g transform="translate(3,-6) scale(1,1)"><path fill="none" stroke="#000000" d="M 672 176 L 672 152 L 528 152 L 528 111" stroke-miterlimit="10"></path></g><g transform="translate(3,-6) scale(1,1)"><path fill="#FFFFFF" stroke="none" d="M 536.419035512032 131.3253497152483 L 528 111 L 519.580964487968 131.3253497152483"></path></g><g transform="translate(3,-6) scale(1,1)"><path fill="none" stroke="#000000" d="M 536.419035512032 131.3253497152483 L 528 111 L 519.580964487968 131.3253497152483 L 536.419035512032 131.3253497152483" stroke-miterlimit="10"></path></g><g transform="translate(3,-6) scale(1,1)"><path fill="none" stroke="#000000" d="M 920 176 L 920 152 L 528 152 L 528 111" stroke-miterlimit="10"></path></g><g transform="translate(3,-6) scale(1,1)"><path fill="#FFFFFF" stroke="none" d="M 536.419035512032 131.3253497152483 L 528 111 L 519.580964487968 131.3253497152483"></path></g><g transform="translate(3,-6) scale(1,1)"><path fill="none" stroke="#000000" d="M 536.419035512032 131.3253497152483 L 528 111 L 519.580964487968 131.3253497152483 L 536.419035512032 131.3253497152483" stroke-miterlimit="10"></path></g><g transform="translate(3,-6) scale(1,1)"><path fill="none" stroke="#000000" d="M 1168 176 L 1168 152 L 528 152 L 528 111" stroke-miterlimit="10"></path></g><g transform="translate(3,-6) scale(1,1)"><path fill="#FFFFFF" stroke="none" d="M 536.419035512032 131.3253497152483 L 528 111 L 519.580964487968 131.3253497152483"></path></g><g transform="translate(3,-6) scale(1,1)"><path fill="none" stroke="#000000" d="M 536.419035512032 131.3253497152483 L 528 111 L 519.580964487968 131.3253497152483 L 536.419035512032 131.3253497152483" stroke-miterlimit="10"></path></g><g transform="translate(3,-6) scale(1,1)"><path fill="none" stroke="#000000" d="M 1240 261 L 1240 352 L 232 352 L 232 239 L 115 239" stroke-miterlimit="10" stroke-dasharray="3"></path></g><g transform="translate(3,-6) scale(1,1)"><path fill="none" stroke="#000000" d="M 393 239 L 504 239 L 504 336 L 1240 336 L 1240 261" stroke-miterlimit="10" stroke-dasharray="3"></path></g><g transform="translate(3,-6) scale(1,1)"><path fill="none" stroke="#000000" d="M 673 239 L 776 239 L 776 320 L 1240 320 L 1240 261" stroke-miterlimit="10" stroke-dasharray="3"></path></g><g transform="translate(3,-6) scale(1,1)"><path fill="none" stroke="#000000" d="M 923 232 L 1048 232 L 1048 304 L 1240 304 L 1240 261" stroke-miterlimit="10" stroke-dasharray="3"></path></g><g transform="translate(3,-6) scale(1,1)"><path fill="none" stroke="#000000" d="M 112 303 L 112 368 L 432 368 L 432 408" stroke-miterlimit="10"></path></g><g transform="translate(3,-6) scale(1,1)"><path fill="#FFFFFF" stroke="none" d="M 423.580964487968 387.6746502847517 L 432 408 L 440.419035512032 387.6746502847517"></path></g><g transform="translate(3,-6) scale(1,1)"><path fill="none" stroke="#000000" d="M 423.580964487968 387.6746502847517 L 432 408 L 440.419035512032 387.6746502847517 L 423.580964487968 387.6746502847517" stroke-miterlimit="10"></path></g><g transform="translate(3,-6) scale(1,1)"><path fill="none" stroke="#000000" d="M 392 303 L 392 368 L 432 368 L 432 408" stroke-miterlimit="10"></path></g><g transform="translate(3,-6) scale(1,1)"><path fill="#FFFFFF" stroke="none" d="M 423.580964487968 387.6746502847517 L 432 408 L 440.419035512032 387.6746502847517"></path></g><g transform="translate(3,-6) scale(1,1)"><path fill="none" stroke="#000000" d="M 423.580964487968 387.6746502847517 L 432 408 L 440.419035512032 387.6746502847517 L 423.580964487968 387.6746502847517" stroke-miterlimit="10"></path></g><g transform="translate(3,-6) scale(1,1)"><path fill="none" stroke="#000000" d="M 672 303 L 672 368 L 432 368 L 432 408" stroke-miterlimit="10"></path></g><g transform="translate(3,-6) scale(1,1)"><path fill="#FFFFFF" stroke="none" d="M 423.580964487968 387.6746502847517 L 432 408 L 440.419035512032 387.6746502847517"></path></g><g transform="translate(3,-6) scale(1,1)"><path fill="none" stroke="#000000" d="M 423.580964487968 387.6746502847517 L 432 408 L 440.419035512032 387.6746502847517 L 423.580964487968 387.6746502847517" stroke-miterlimit="10"></path></g><g transform="translate(3,-6) scale(1,1)"><path fill="none" stroke="#000000" d="M 922 303 L 922 368 L 432 368 L 432 408" stroke-miterlimit="10"></path></g><g transform="translate(3,-6) scale(1,1)"><path fill="#FFFFFF" stroke="none" d="M 423.580964487968 387.6746502847517 L 432 408 L 440.419035512032 387.6746502847517"></path></g><g transform="translate(3,-6) scale(1,1)"><path fill="none" stroke="#000000" d="M 423.580964487968 387.6746502847517 L 432 408 L 440.419035512032 387.6746502847517 L 423.580964487968 387.6746502847517" stroke-miterlimit="10"></path></g><g transform="translate(3,-6) scale(1,1)"><path fill="none" stroke="#000000" d="M 1168 288 L 1168 368 L 432 368 L 432 408" stroke-miterlimit="10"></path></g><g transform="translate(3,-6) scale(1,1)"><path fill="#FFFFFF" stroke="none" d="M 423.580964487968 387.6746502847517 L 432 408 L 440.419035512032 387.6746502847517"></path></g><g transform="translate(3,-6) scale(1,1)"><path fill="none" stroke="#000000" d="M 423.580964487968 387.6746502847517 L 432 408 L 440.419035512032 387.6746502847517 L 423.580964487968 387.6746502847517" stroke-miterlimit="10"></path></g><g transform="translate(3,-6) scale(1,1)"><g><path fill="none" stroke="none"></path><text fill="#000000" stroke="none" font-family="Arial" font-size="13px" font-style="normal" font-weight="normal" text-decoration="none" x="237" y="278">{subset}</text></g></g><g transform="translate(3,-6) scale(1,1)"><g><path fill="none" stroke="none"></path><text fill="#000000" stroke="none" font-family="Arial" font-size="13px" font-style="normal" font-weight="normal" text-decoration="none" x="509" y="278">{subset}</text></g></g><g transform="translate(3,-6) scale(1,1)"><g><path fill="none" stroke="none"></path><text fill="#000000" stroke="none" font-family="Arial" font-size="13px" font-style="normal" font-weight="normal" text-decoration="none" x="781" y="278">{subset}</text></g></g><g transform="translate(3,-6) scale(1,1)"><g><path fill="none" stroke="none"></path><text fill="#000000" stroke="none" font-family="Arial" font-size="13px" font-style="normal" font-weight="normal" text-decoration="none" x="1053" y="278">{subset}</text></g></g><g transform="translate(3,-6) scale(1,1)"><rect fill="#ffffff" stroke="none" x="207" y="520" width="61.0126953125" height="24"></rect></g><g transform="translate(3,-6) scale(1,1)"><path fill="none" stroke="#000000" d="M 207 520 L 268.0126953125 520 L 268.0126953125 544 L 207 544 L 207 520 Z Z" stroke-miterlimit="10"></path></g><g transform="translate(3,-6) scale(1,1)"><g><path fill="none" stroke="none"></path><text fill="#000000" stroke="none" font-family="Arial" font-size="13px" font-style="normal" font-weight="bold" text-decoration="none" x="211.5" y="537.5">RawMilk</text></g></g><g transform="translate(3,-6) scale(1,1)"><rect fill="#ffffff" stroke="none" x="544" y="520" width="107.25537109375" height="24"></rect></g><g transform="translate(3,-6) scale(1,1)"><path fill="none" stroke="#000000" d="M 544 520 L 651.25537109375 520 L 651.25537109375 544 L 544 544 L 544 520 Z Z" stroke-miterlimit="10"></path></g><g transform="translate(3,-6) scale(1,1)"><g><path fill="none" stroke="none"></path><text fill="#000000" stroke="none" font-family="Arial" font-size="13px" font-style="normal" font-weight="bold" text-decoration="none" x="548.5" y="537.5">PasteurizedMilk</text></g></g><g transform="translate(3,-6) scale(1,1)"><path fill="none" stroke="#000000" d="M 237 520 L 237 496 L 432 496 L 432 447" stroke-miterlimit="10"></path></g><g transform="translate(3,-6) scale(1,1)"><path fill="#FFFFFF" stroke="none" d="M 440.419035512032 467.3253497152483 L 432 447 L 423.580964487968 467.3253497152483"></path></g><g transform="translate(3,-6) scale(1,1)"><path fill="none" stroke="#000000" d="M 440.419035512032 467.3253497152483 L 432 447 L 423.580964487968 467.3253497152483 L 440.419035512032 467.3253497152483" stroke-miterlimit="10"></path></g><g transform="translate(3,-6) scale(1,1)"><path fill="none" stroke="#000000" d="M 600 520 L 600 496 L 432 496 L 432 447" stroke-miterlimit="10"></path></g><g transform="translate(3,-6) scale(1,1)"><path fill="#FFFFFF" stroke="none" d="M 440.419035512032 467.3253497152483 L 432 447 L 423.580964487968 467.3253497152483"></path></g><g transform="translate(3,-6) scale(1,1)"><path fill="none" stroke="#000000" d="M 440.419035512032 467.3253497152483 L 432 447 L 423.580964487968 467.3253497152483 L 440.419035512032 467.3253497152483" stroke-miterlimit="10"></path></g><g transform="translate(3,-6) scale(1,1)"><rect fill="#ffffff" stroke="none" x="784" y="487" width="123.49267578125" height="90"></rect></g><g transform="translate(3,-6) scale(1,1)"><path fill="none" stroke="#000000" d="M 784 487 L 907.49267578125 487 L 907.49267578125 577 L 784 577 L 784 487 Z Z" stroke-miterlimit="10"></path></g><g transform="translate(3,-6) scale(1,1)"><path fill="none" stroke="#000000" d="M 784 525 L 907.49267578125 525" stroke-miterlimit="10"></path></g><g transform="translate(3,-6) scale(1,1)"><g><path fill="none" stroke="none"></path><text fill="#000000" stroke="none" font-family="Arial" font-size="13px" font-style="normal" font-weight="normal" text-decoration="none" x="808.52685546875" y="502.5">«powertype»</text></g></g><g transform="translate(3,-6) scale(1,1)"><g><path fill="none" stroke="none"></path><text fill="#000000" stroke="none" font-family="Arial" font-size="13px" font-style="normal" font-weight="bold" text-decoration="none" x="802.042724609375" y="517.5">MilkSkimming</text></g></g><g transform="translate(3,-6) scale(1,1)"><g><path fill="none" stroke="none"></path><text fill="#000000" stroke="none" font-family="Arial" font-size="13px" font-style="normal" font-weight="normal" text-decoration="none" x="789" y="540.5">+SkimmedMilk</text></g></g><g transform="translate(3,-6) scale(1,1)"><g><path fill="none" stroke="none"></path><text fill="#000000" stroke="none" font-family="Arial" font-size="13px" font-style="normal" font-weight="normal" text-decoration="none" x="789" y="555.5">+SemiSkimmedMilk</text></g></g><g transform="translate(3,-6) scale(1,1)"><g><path fill="none" stroke="none"></path><text fill="#000000" stroke="none" font-family="Arial" font-size="13px" font-style="normal" font-weight="normal" text-decoration="none" x="789" y="570.5">+WholeMilk</text></g></g><g transform="translate(3,-6) scale(1,1)"><path fill="none" stroke="#000000" d="M 652 532 L 783 532" stroke-miterlimit="10"></path></g><g transform="translate(3,-6) scale(1,1)"><g><path fill="none" stroke="none"></path><text fill="#000000" stroke="none" font-family="Arial" font-size="13px" font-style="normal" font-weight="normal" text-decoration="none" x="674.5" y="521.5">+hasSkimming</text></g></g><g transform="translate(3,-6) scale(1,1)"><g><path fill="none" stroke="none"></path><text fill="#000000" stroke="none" font-family="Arial" font-size="13px" font-style="normal" font-weight="normal" text-decoration="none" x="670.812255859375" y="548.5">*</text></g></g><g transform="translate(3,-6) scale(1,1)"><g><path fill="none" stroke="none"></path><text fill="#000000" stroke="none" font-family="Arial" font-size="13px" font-style="normal" font-weight="normal" text-decoration="none" x="750.5" y="548.5">0..1</text></g></g><g transform="translate(3,-6) scale(1,1)"><rect fill="#ffffff" stroke="none" x="317" y="611" width="198.541015625" height="39"></rect></g><g transform="translate(3,-6) scale(1,1)"><path fill="none" stroke="#000000" d="M 317 611 L 515.541015625 611 L 515.541015625 650 L 317 650 L 317 611 Z Z" stroke-miterlimit="10"></path></g><g transform="translate(3,-6) scale(1,1)"><g><path fill="none" stroke="none"></path><text fill="#000000" stroke="none" font-family="Arial" font-size="13px" font-style="normal" font-weight="bold" text-decoration="none" x="374.728271484375" y="628.5">SkimmedMilk</text></g></g><g transform="translate(3,-6) scale(1,1)"><g><path fill="none" stroke="none"></path><text fill="#000000" stroke="none" font-family="Arial" font-size="13px" font-style="normal" font-weight="normal" text-decoration="none" x="321" y="643.5">{IRI="obo:FOODON_03301484"}</text></g></g><g transform="translate(3,-6) scale(1,1)"><rect fill="#ffffff" stroke="none" x="541" y="611" width="123.15625" height="24"></rect></g><g transform="translate(3,-6) scale(1,1)"><path fill="none" stroke="#000000" d="M 541 611 L 664.15625 611 L 664.15625 635 L 541 635 L 541 611 Z Z" stroke-miterlimit="10"></path></g><g transform="translate(3,-6) scale(1,1)"><g><path fill="none" stroke="none"></path><text fill="#000000" stroke="none" font-family="Arial" font-size="13px" font-style="normal" font-weight="bold" text-decoration="none" x="545.5" y="628.5">SemiSkimmedMilk</text></g></g><g transform="translate(3,-6) scale(1,1)"><rect fill="#ffffff" stroke="none" x="742" y="611" width="73.2763671875" height="24"></rect></g><g transform="translate(3,-6) scale(1,1)"><path fill="none" stroke="#000000" d="M 742 611 L 815.2763671875 611 L 815.2763671875 635 L 742 635 L 742 611 Z Z" stroke-miterlimit="10"></path></g><g transform="translate(3,-6) scale(1,1)"><g><path fill="none" stroke="none"></path><text fill="#000000" stroke="none" font-family="Arial" font-size="13px" font-style="normal" font-weight="bold" text-decoration="none" x="746.5" y="628.5">WholeMilk</text></g></g><g transform="translate(3,-6) scale(1,1)"><path fill="none" stroke="#000000" d="M 416 611 L 416 592 L 600 592 L 600 544" stroke-miterlimit="10"></path></g><g transform="translate(3,-6) scale(1,1)"><path fill="#FFFFFF" stroke="none" d="M 608.419035512032 564.3253497152483 L 600 544 L 591.580964487968 564.3253497152483"></path></g><g transform="translate(3,-6) scale(1,1)"><path fill="none" stroke="#000000" d="M 608.419035512032 564.3253497152483 L 600 544 L 591.580964487968 564.3253497152483 L 608.419035512032 564.3253497152483" stroke-miterlimit="10"></path></g><g transform="translate(3,-6) scale(1,1)"><path fill="none" stroke="#000000" d="M 600 611 L 600 544" stroke-miterlimit="10"></path></g><g transform="translate(3,-6) scale(1,1)"><path fill="#FFFFFF" stroke="none" d="M 608.419035512032 564.3253497152483 L 600 544 L 591.580964487968 564.3253497152483"></path></g><g transform="translate(3,-6) scale(1,1)"><path fill="none" stroke="#000000" d="M 608.419035512032 564.3253497152483 L 600 544 L 591.580964487968 564.3253497152483 L 608.419035512032 564.3253497152483" stroke-miterlimit="10"></path></g><g transform="translate(3,-6) scale(1,1)"><path fill="none" stroke="#000000" d="M 776 611 L 776 592 L 600 592 L 600 544" stroke-miterlimit="10"></path></g><g transform="translate(3,-6) scale(1,1)"><path fill="#FFFFFF" stroke="none" d="M 608.419035512032 564.3253497152483 L 600 544 L 591.580964487968 564.3253497152483"></path></g><g transform="translate(3,-6) scale(1,1)"><path fill="none" stroke="#000000" d="M 608.419035512032 564.3253497152483 L 600 544 L 591.580964487968 564.3253497152483 L 608.419035512032 564.3253497152483" stroke-miterlimit="10"></path></g><g transform="translate(3,-6) scale(1,1)"><g><path fill="none" stroke="none"></path><text fill="#000000" stroke="none" font-family="Arial" font-size="13px" font-style="normal" font-weight="normal" text-decoration="none" x="405" y="142">{disjoint, complete}</text></g></g><g transform="translate(3,-6) scale(1,1)"><g><path fill="none" stroke="none"></path><text fill="#000000" stroke="none" font-family="Arial" font-size="13px" font-style="normal" font-weight="normal" text-decoration="none" x="301" y="390">{disjoint, complete}</text></g></g><g transform="translate(3,-6) scale(1,1)"><g><path fill="none" stroke="none"></path><text fill="#000000" stroke="none" font-family="Arial" font-size="13px" font-style="normal" font-weight="normal" text-decoration="none" x="613" y="582">:MilkSkimming</text></g></g><g transform="translate(3,-6) scale(1,1)"><g><path fill="none" stroke="none"></path><text fill="#000000" stroke="none" font-family="Arial" font-size="13px" font-style="normal" font-weight="normal" text-decoration="none" x="437" y="486">{disjoint, complete}</text></g></g><g transform="translate(3,-6) scale(1,1)"><rect fill="#ffffff" stroke="none" x="184" y="616" width="107.26171875" height="24"></rect></g><g transform="translate(3,-6) scale(1,1)"><path fill="none" stroke="#000000" d="M 184 616 L 291.26171875 616 L 291.26171875 640 L 184 640 L 184 616 Z Z" stroke-miterlimit="10"></path></g><g transform="translate(3,-6) scale(1,1)"><g><path fill="none" stroke="none"></path><text fill="#000000" stroke="none" font-family="Arial" font-size="13px" font-style="normal" font-weight="bold" text-decoration="none" x="188.5" y="633.5">RawMilkCheese</text></g></g><g transform="translate(3,-6) scale(1,1)"><rect fill="#ffffff" stroke="none" x="347" y="696" width="138.33349609375" height="24"></rect></g><g transform="translate(3,-6) scale(1,1)"><path fill="none" stroke="#000000" d="M 347 696 L 485.33349609375 696 L 485.33349609375 720 L 347 720 L 347 696 Z Z" stroke-miterlimit="10"></path></g><g transform="translate(3,-6) scale(1,1)"><g><path fill="none" stroke="none"></path><text fill="#000000" stroke="none" font-family="Arial" font-size="13px" font-style="normal" font-weight="bold" text-decoration="none" x="351.5" y="713.5">SkimmedMilkCheese</text></g></g><g transform="translate(3,-6) scale(1,1)"><rect fill="#ffffff" stroke="none" x="503" y="696" width="198.541015625" height="39"></rect></g><g transform="translate(3,-6) scale(1,1)"><path fill="none" stroke="#000000" d="M 503 696 L 701.541015625 696 L 701.541015625 735 L 503 735 L 503 696 Z Z" stroke-miterlimit="10"></path></g><g transform="translate(3,-6) scale(1,1)"><g><path fill="none" stroke="none"></path><text fill="#000000" stroke="none" font-family="Arial" font-size="13px" font-style="normal" font-weight="bold" text-decoration="none" x="522.06787109375" y="713.5">SemiSkimmedMilkCheese</text></g></g><g transform="translate(3,-6) scale(1,1)"><g><path fill="none" stroke="none"></path><text fill="#000000" stroke="none" font-family="Arial" font-size="13px" font-style="normal" font-weight="normal" text-decoration="none" x="507" y="728.5">{IRI="obo:FOODON_03401217"}</text></g></g><g transform="translate(3,-6) scale(1,1)"><rect fill="#ffffff" stroke="none" x="719" y="696" width="119.525390625" height="24"></rect></g><g transform="translate(3,-6) scale(1,1)"><path fill="none" stroke="#000000" d="M 719 696 L 838.525390625 696 L 838.525390625 720 L 719 720 L 719 696 Z Z" stroke-miterlimit="10"></path></g><g transform="translate(3,-6) scale(1,1)"><g><path fill="none" stroke="none"></path><text fill="#000000" stroke="none" font-family="Arial" font-size="13px" font-style="normal" font-weight="bold" text-decoration="none" x="723.5" y="713.5">WholeMilkCheese</text></g></g><g transform="translate(3,-6) scale(1,1)"><path fill="none" stroke="#000000" d="M 416 695 L 416 651" stroke-miterlimit="10" stroke-dasharray="3"></path></g><g transform="translate(3,-6) scale(1,1)"><path fill="none" stroke="#000000" d="M 420.209517756016 661.1626748576241 L 416 651 L 411.790482243984 661.1626748576241" stroke-miterlimit="10"></path></g><g transform="translate(3,-6) scale(1,1)"><g><path fill="none" stroke="none"></path><text fill="#000000" stroke="none" font-family="Arial" font-size="13px" font-style="normal" font-weight="normal" text-decoration="none" x="305.5" y="675.5">+isMadeWithMilk</text></g></g><g transform="translate(3,-6) scale(1,1)"><path fill="none" stroke="#000000" d="M 602 695 L 602 636" stroke-miterlimit="10" stroke-dasharray="3"></path></g><g transform="translate(3,-6) scale(1,1)"><path fill="none" stroke="#000000" d="M 606.209517756016 646.1626748576241 L 602 636 L 597.790482243984 646.1626748576241" stroke-miterlimit="10"></path></g><g transform="translate(3,-6) scale(1,1)"><g><path fill="none" stroke="none"></path><text fill="#000000" stroke="none" font-family="Arial" font-size="13px" font-style="normal" font-weight="normal" text-decoration="none" x="490.5" y="674.5">+isMadeWithMilk</text></g></g><g transform="translate(3,-6) scale(1,1)"><path fill="none" stroke="#000000" d="M 778 695 L 778 636" stroke-miterlimit="10" stroke-dasharray="3"></path></g><g transform="translate(3,-6) scale(1,1)"><path fill="none" stroke="#000000" d="M 782.209517756016 646.1626748576241 L 778 636 L 773.790482243984 646.1626748576241" stroke-miterlimit="10"></path></g><g transform="translate(3,-6) scale(1,1)"><g><path fill="none" stroke="none"></path><text fill="#000000" stroke="none" font-family="Arial" font-size="13px" font-style="normal" font-weight="normal" text-decoration="none" x="668.5" y="668.5">+isMadeWithMilk</text></g></g><g transform="translate(3,-6) scale(1,1)"><path fill="none" stroke="#000000" d="M 237 615 L 237 545" stroke-miterlimit="10" stroke-dasharray="3"></path></g><g transform="translate(3,-6) scale(1,1)"><path fill="none" stroke="#000000" d="M 241.209517756016 555.1626748576241 L 237 545 L 232.790482243984 555.1626748576241" stroke-miterlimit="10"></path></g><g transform="translate(3,-6) scale(1,1)"><g><path fill="none" stroke="none"></path><text fill="#000000" stroke="none" font-family="Arial" font-size="13px" font-style="normal" font-weight="normal" text-decoration="none" x="244.5" y="585.5">+isMadeWithMilk</text></g></g><g transform="translate(3,-6) scale(1,1)"><path fill="none" stroke="#000000" d="M 237 640 L 237 808 L 1272 808 L 1272 16 L 472 16 L 472 72" stroke-miterlimit="10"></path></g><g transform="translate(3,-6) scale(1,1)"><path fill="#FFFFFF" stroke="none" d="M 463.580964487968 51.67465028475169 L 472 72 L 480.419035512032 51.67465028475169"></path></g><g transform="translate(3,-6) scale(1,1)"><path fill="none" stroke="#000000" d="M 463.580964487968 51.67465028475169 L 472 72 L 480.419035512032 51.67465028475169 L 463.580964487968 51.67465028475169" stroke-miterlimit="10"></path></g><g transform="translate(3,-6) scale(1,1)"><path fill="none" stroke="#000000" d="M 416 720 L 416 760 L 608 760 L 608 792 L 1256 792 L 1256 32 L 592 32 L 592 72" stroke-miterlimit="10"></path></g><g transform="translate(3,-6) scale(1,1)"><path fill="#FFFFFF" stroke="none" d="M 583.580964487968 51.67465028475169 L 592 72 L 600.419035512032 51.67465028475169"></path></g><g transform="translate(3,-6) scale(1,1)"><path fill="none" stroke="#000000" d="M 583.580964487968 51.67465028475169 L 592 72 L 600.419035512032 51.67465028475169 L 583.580964487968 51.67465028475169" stroke-miterlimit="10"></path></g><g transform="translate(3,-6) scale(1,1)"><path fill="none" stroke="#000000" d="M 600 735 L 600 760 L 608 760 L 608 792 L 1256 792 L 1256 32 L 592 32 L 592 72" stroke-miterlimit="10"></path></g><g transform="translate(3,-6) scale(1,1)"><path fill="#FFFFFF" stroke="none" d="M 583.580964487968 51.67465028475169 L 592 72 L 600.419035512032 51.67465028475169"></path></g><g transform="translate(3,-6) scale(1,1)"><path fill="none" stroke="#000000" d="M 583.580964487968 51.67465028475169 L 592 72 L 600.419035512032 51.67465028475169 L 583.580964487968 51.67465028475169" stroke-miterlimit="10"></path></g><g transform="translate(3,-6) scale(1,1)"><path fill="none" stroke="#000000" d="M 776 720 L 776 760 L 608 760 L 608 792 L 1256 792 L 1256 32 L 592 32 L 592 72" stroke-miterlimit="10"></path></g><g transform="translate(3,-6) scale(1,1)"><path fill="#FFFFFF" stroke="none" d="M 583.580964487968 51.67465028475169 L 592 72 L 600.419035512032 51.67465028475169"></path></g><g transform="translate(3,-6) scale(1,1)"><path fill="none" stroke="#000000" d="M 583.580964487968 51.67465028475169 L 592 72 L 600.419035512032 51.67465028475169 L 583.580964487968 51.67465028475169" stroke-miterlimit="10"></path></g><g transform="translate(3,-6) scale(1,1)"><g><path fill="none" stroke="none"></path><text fill="#000000" stroke="none" font-family="Arial" font-size="13px" font-style="normal" font-weight="normal" text-decoration="none" x="485" y="582">{disjoint, complete}</text></g></g><g transform="translate(3,-6) scale(1,1)"><path fill="none" stroke="#000000" d="M 1170 233 L 1170 232 L 1240 232 L 1240 259" stroke-miterlimit="10" stroke-dasharray="3"></path></g><g transform="translate(3,-6) scale(1,1)"><g><path fill="none" stroke="none"></path><text fill="#000000" stroke="none" font-family="Arial" font-size="13px" font-style="normal" font-weight="normal" text-decoration="none" x="613" y="782">{disjoint, complete}</text></g></g><g transform="translate(3,-6) scale(1,1)"><g><path fill="none" stroke="none"></path><text fill="#000000" stroke="none" font-family="Arial" font-size="13px" font-style="normal" font-weight="normal" text-decoration="none" x="1181" y="246">{subset}</text></g></g></g></svg>