<svg version="1.1" xmlns="http://www.w3.org/2000/svg" xmlns:xlink="http://www.w3.org/1999/xlink" width="1153.69580078125" height="531"><defs></defs><g><g transform="translate(-5,-6) scale(1,1)"><rect fill="#ffffff" stroke="none" x="112" y="16" width="198.541015625" height="39"></rect></g><g transform="translate(-5,-6) scale(1,1)"><path fill="none" stroke="#000000" d="M 112 16 L 310.541015625 16 L 310.541015625 55 L 112 55 L 112 16 Z Z" stroke-miterlimit="10"></path></g><g transform="translate(-5,-6) scale(1,1)"><g><path fill="none" stroke="none"></path><text fill="#000000" stroke="none" font-family="Arial" font-size="13px" font-style="normal" font-weight="bold" text-decoration="none" x="195.388671875" y="33.5">Food</text></g></g><g transform="translate(-5,-6) scale(1,1)"><g><path fill="none" stroke="none"></path><text fill="#000000" stroke="none" font-family="Arial" font-size="13px" font-style="normal" font-weight="normal" text-decoration="none" x="116" y="48.5">{IRI="obo:FOODON_00002403"}</text></g></g><g transform="translate(-5,-6) scale(1,1)"><rect fill="#ffffff" stroke="none" x="15" y="68" width="198.541015625" height="39"></rect></g><g transform="translate(-5,-6) scale(1,1)"><path fill="none" stroke="#000000" d="M 15 68 L 213.541015625 68 L 213.541015625 107 L 15 107 L 15 68 Z Z" stroke-miterlimit="10"></path></g><g transform="translate(-5,-6) scale(1,1)"><g><path fill="none" stroke="none"></path><text fill="#000000" stroke="none" font-family="Arial" font-size="13px" font-style="normal" font-weight="bold" text-decoration="none" x="91.14599609375" y="85.5">Cheese</text></g></g><g transform="translate(-5,-6) scale(1,1)"><g><path fill="none" stroke="none"></path><text fill="#000000" stroke="none" font-family="Arial" font-size="13px" font-style="normal" font-weight="normal" text-decoration="none" x="19" y="100.5">{IRI="obo:FOODON_00001013"}</text></g></g><g transform="translate(-5,-6) scale(1,1)"><path fill="none" stroke="#000000" d="M 48 68 L 48 35 L 112 35" stroke-miterlimit="10"></path></g><g transform="translate(-5,-6) scale(1,1)"><path fill="#FFFFFF" stroke="none" d="M 91.67465028475169 43.419035512031975 L 112 35 L 91.67465028475169 26.580964487968025"></path></g><g transform="translate(-5,-6) scale(1,1)"><path fill="none" stroke="#000000" d="M 91.67465028475169 43.419035512031975 L 112 35 L 91.67465028475169 26.580964487968025 L 91.67465028475169 43.419035512031975" stroke-miterlimit="10"></path></g><g transform="translate(-5,-6) scale(1,1)"><rect fill="#ffffff" stroke="none" x="192" y="186" width="188.41650390625" height="39"></rect></g><g transform="translate(-5,-6) scale(1,1)"><path fill="none" stroke="#000000" d="M 192 186 L 380.41650390625 186 L 380.41650390625 225 L 192 225 L 192 186 Z Z" stroke-miterlimit="10"></path></g><g transform="translate(-5,-6) scale(1,1)"><g><path fill="none" stroke="none"></path><text fill="#000000" stroke="none" font-family="Arial" font-size="13px" font-style="normal" font-weight="bold" text-decoration="none" x="233.103759765625" y="203.5">ProtectedCheese</text></g></g><g transform="translate(-5,-6) scale(1,1)"><g><path fill="none" stroke="none"></path><text fill="#000000" stroke="none" font-family="Arial" font-size="13px" font-style="normal" font-weight="normal" text-decoration="none" x="196" y="218.5">{IRI="food-cheese:Formaggio"}</text></g></g><g transform="translate(-5,-6) scale(1,1)"><path fill="none" stroke="#000000" d="M 232 186 L 232 152 L 112 152 L 112 107" stroke-miterlimit="10"></path></g><g transform="translate(-5,-6) scale(1,1)"><path fill="#FFFFFF" stroke="none" d="M 120.41903551203198 127.32534971524831 L 112 107 L 103.58096448796803 127.32534971524831"></path></g><g transform="translate(-5,-6) scale(1,1)"><path fill="none" stroke="#000000" d="M 120.41903551203198 127.32534971524831 L 112 107 L 103.58096448796803 127.32534971524831 L 120.41903551203198 127.32534971524831" stroke-miterlimit="10"></path></g><g transform="translate(-5,-6) scale(1,1)"><rect fill="#ffffff" stroke="none" x="656" y="66" width="207.94189453125" height="39"></rect></g><g transform="translate(-5,-6) scale(1,1)"><path fill="none" stroke="#000000" d="M 656 66 L 863.94189453125 66 L 863.94189453125 105 L 656 105 L 656 66 Z Z" stroke-miterlimit="10"></path></g><g transform="translate(-5,-6) scale(1,1)"><g><path fill="none" stroke="none"></path><text fill="#000000" stroke="none" font-family="Arial" font-size="13px" font-style="normal" font-weight="bold" text-decoration="none" x="712.287353515625" y="83.5">ProtectedName</text></g></g><g transform="translate(-5,-6) scale(1,1)"><g><path fill="none" stroke="none"></path><text fill="#000000" stroke="none" font-family="Arial" font-size="13px" font-style="normal" font-weight="normal" text-decoration="none" x="660" y="98.5">{IRI="food-upper:Denominazione"}</text></g></g><g transform="translate(-5,-6) scale(1,1)"><rect fill="#ffffff" stroke="none" x="240" y="66" width="166.751953125" height="39"></rect></g><g transform="translate(-5,-6) scale(1,1)"><path fill="none" stroke="#000000" d="M 240 66 L 406.751953125 66 L 406.751953125 105 L 240 105 L 240 66 Z Z" stroke-miterlimit="10"></path></g><g transform="translate(-5,-6) scale(1,1)"><g><path fill="none" stroke="none"></path><text fill="#000000" stroke="none" font-family="Arial" font-size="13px" font-style="normal" font-weight="bold" text-decoration="none" x="277.51416015625" y="83.5">ProtectedFood</text></g></g><g transform="translate(-5,-6) scale(1,1)"><g><path fill="none" stroke="none"></path><text fill="#000000" stroke="none" font-family="Arial" font-size="13px" font-style="normal" font-weight="normal" text-decoration="none" x="244" y="98.5">{IRI="food-upper:Prodotto"}</text></g></g><g transform="translate(-5,-6) scale(1,1)"><path fill="none" stroke="#000000" d="M 376 66 L 376 35 L 311 35" stroke-miterlimit="10"></path></g><g transform="translate(-5,-6) scale(1,1)"><path fill="#FFFFFF" stroke="none" d="M 331.3253497152483 26.580964487968025 L 311 35 L 331.3253497152483 43.419035512031975"></path></g><g transform="translate(-5,-6) scale(1,1)"><path fill="none" stroke="#000000" d="M 331.3253497152483 26.580964487968025 L 311 35 L 331.3253497152483 43.419035512031975 L 331.3253497152483 26.580964487968025" stroke-miterlimit="10"></path></g><g transform="translate(-5,-6) scale(1,1)"><path fill="none" stroke="#000000" d="M 408 85 L 655 85" stroke-miterlimit="10"></path></g><g transform="translate(-5,-6) scale(1,1)"><g><path fill="none" stroke="none"></path><text fill="#000000" stroke="none" font-family="Arial" font-size="13px" font-style="normal" font-weight="normal" text-decoration="none" x="471.5" y="59.5">+hasProtectedName</text></g></g><g transform="translate(-5,-6) scale(1,1)"><g><path fill="none" stroke="none"></path><text fill="#000000" stroke="none" font-family="Arial" font-size="13px" font-style="normal" font-weight="normal" text-decoration="none" x="424.5" y="76.5">{IRI="food-upper:haDenominazione"}</text></g></g><g transform="translate(-5,-6) scale(1,1)"><g><path fill="none" stroke="none"></path><text fill="#000000" stroke="none" font-family="Arial" font-size="13px" font-style="normal" font-weight="normal" text-decoration="none" x="417.5" y="99.5">0..1</text></g></g><g transform="translate(-5,-6) scale(1,1)"><g><path fill="none" stroke="none"></path><text fill="#000000" stroke="none" font-family="Arial" font-size="13px" font-style="normal" font-weight="normal" text-decoration="none" x="623.5" y="100.5">0..1</text></g></g><g transform="translate(-5,-6) scale(1,1)"><path fill="none" stroke="#000000" d="M 336 186 L 336 168 L 304 168 L 304 105" stroke-miterlimit="10"></path></g><g transform="translate(-5,-6) scale(1,1)"><path fill="#FFFFFF" stroke="none" d="M 312.419035512032 125.32534971524831 L 304 105 L 295.580964487968 125.32534971524831"></path></g><g transform="translate(-5,-6) scale(1,1)"><path fill="none" stroke="#000000" d="M 312.419035512032 125.32534971524831 L 304 105 L 295.580964487968 125.32534971524831 L 312.419035512032 125.32534971524831" stroke-miterlimit="10"></path></g><g transform="translate(-5,-6) scale(1,1)"><rect fill="#ffffff" stroke="none" x="288" y="488" width="295.37451171875" height="39"></rect></g><g transform="translate(-5,-6) scale(1,1)"><path fill="none" stroke="#000000" d="M 288 488 L 583.37451171875 488 L 583.37451171875 527 L 288 527 L 288 488 Z Z" stroke-miterlimit="10"></path></g><g transform="translate(-5,-6) scale(1,1)"><g><path fill="none" stroke="none"></path><text fill="#000000" stroke="none" font-family="Arial" font-size="13px" font-style="normal" font-weight="bold" text-decoration="none" x="349.371826171875" y="505.5">ProtectedDesignationOrigin</text></g></g><g transform="translate(-5,-6) scale(1,1)"><g><path fill="none" stroke="none"></path><text fill="#000000" stroke="none" font-family="Arial" font-size="13px" font-style="normal" font-weight="normal" text-decoration="none" x="292" y="520.5">{IRI="food-upper:DenominazioneOrigineProtetta"}</text></g></g><g transform="translate(-5,-6) scale(1,1)"><rect fill="#ffffff" stroke="none" x="336" y="440" width="292.49267578125" height="39"></rect></g><g transform="translate(-5,-6) scale(1,1)"><path fill="none" stroke="#000000" d="M 336 440 L 628.49267578125 440 L 628.49267578125 479 L 336 479 L 336 440 Z Z" stroke-miterlimit="10"></path></g><g transform="translate(-5,-6) scale(1,1)"><g><path fill="none" stroke="none"></path><text fill="#000000" stroke="none" font-family="Arial" font-size="13px" font-style="normal" font-weight="bold" text-decoration="none" x="380.033203125" y="457.5">ProtectedGeographicalIndication</text></g></g><g transform="translate(-5,-6) scale(1,1)"><g><path fill="none" stroke="none"></path><text fill="#000000" stroke="none" font-family="Arial" font-size="13px" font-style="normal" font-weight="normal" text-decoration="none" x="340" y="472.5">{IRI="food-upper:IndicazioneGeograficaProtetta"}</text></g></g><g transform="translate(-5,-6) scale(1,1)"><rect fill="#ffffff" stroke="none" x="384" y="392" width="297.7802734375" height="39"></rect></g><g transform="translate(-5,-6) scale(1,1)"><path fill="none" stroke="#000000" d="M 384 392 L 681.7802734375 392 L 681.7802734375 431 L 384 431 L 384 392 Z Z" stroke-miterlimit="10"></path></g><g transform="translate(-5,-6) scale(1,1)"><g><path fill="none" stroke="none"></path><text fill="#000000" stroke="none" font-family="Arial" font-size="13px" font-style="normal" font-weight="bold" text-decoration="none" x="435.361572265625" y="409.5">TraditionalSpecialtyGuaranteed</text></g></g><g transform="translate(-5,-6) scale(1,1)"><g><path fill="none" stroke="none"></path><text fill="#000000" stroke="none" font-family="Arial" font-size="13px" font-style="normal" font-weight="normal" text-decoration="none" x="388" y="424.5">{IRI="food-upper:SpecialitaTradizionaleGarantita"}</text></g></g><g transform="translate(-5,-6) scale(1,1)"><rect fill="#ffffff" stroke="none" x="544" y="344" width="293.197265625" height="39"></rect></g><g transform="translate(-5,-6) scale(1,1)"><path fill="none" stroke="#000000" d="M 544 344 L 837.197265625 344 L 837.197265625 383 L 544 383 L 544 344 Z Z" stroke-miterlimit="10"></path></g><g transform="translate(-5,-6) scale(1,1)"><g><path fill="none" stroke="none"></path><text fill="#000000" stroke="none" font-family="Arial" font-size="13px" font-style="normal" font-weight="bold" text-decoration="none" x="603.927734375" y="361.5">ControlledDesignatedOrigin</text></g></g><g transform="translate(-5,-6) scale(1,1)"><g><path fill="none" stroke="none"></path><text fill="#000000" stroke="none" font-family="Arial" font-size="13px" font-style="normal" font-weight="normal" text-decoration="none" x="548" y="376.5">{IRI="food-ita:DenominazioneOrigineControllata"}</text></g></g><g transform="translate(-5,-6) scale(1,1)"><rect fill="#ffffff" stroke="none" x="704" y="392" width="346.669921875" height="39"></rect></g><g transform="translate(-5,-6) scale(1,1)"><path fill="none" stroke="#000000" d="M 704 392 L 1050.669921875 392 L 1050.669921875 431 L 704 431 L 704 392 Z Z" stroke-miterlimit="10"></path></g><g transform="translate(-5,-6) scale(1,1)"><g><path fill="none" stroke="none"></path><text fill="#000000" stroke="none" font-family="Arial" font-size="13px" font-style="normal" font-weight="bold" text-decoration="none" x="754.542724609375" y="409.5">ControlledGuaranteedDesignatedOrigin</text></g></g><g transform="translate(-5,-6) scale(1,1)"><g><path fill="none" stroke="none"></path><text fill="#000000" stroke="none" font-family="Arial" font-size="13px" font-style="normal" font-weight="normal" text-decoration="none" x="708" y="424.5">{IRI="food-ita:DenominazioneOrigineControllataGarantita"}</text></g></g><g transform="translate(-5,-6) scale(1,1)"><rect fill="#ffffff" stroke="none" x="840" y="440" width="261.64306640625" height="39"></rect></g><g transform="translate(-5,-6) scale(1,1)"><path fill="none" stroke="#000000" d="M 840 440 L 1101.64306640625 440 L 1101.64306640625 479 L 840 479 L 840 440 Z Z" stroke-miterlimit="10"></path></g><g transform="translate(-5,-6) scale(1,1)"><g><path fill="none" stroke="none"></path><text fill="#000000" stroke="none" font-family="Arial" font-size="13px" font-style="normal" font-weight="bold" text-decoration="none" x="876.673095703125" y="457.5">TypicalGeographicalIndication</text></g></g><g transform="translate(-5,-6) scale(1,1)"><g><path fill="none" stroke="none"></path><text fill="#000000" stroke="none" font-family="Arial" font-size="13px" font-style="normal" font-weight="normal" text-decoration="none" x="844" y="472.5">{IRI="food-ita:IndicazioneGeograficaTipica"}</text></g></g><g transform="translate(-5,-6) scale(1,1)"><rect fill="#ffffff" stroke="none" x="856" y="488" width="292.69580078125" height="39"></rect></g><g transform="translate(-5,-6) scale(1,1)"><path fill="none" stroke="#000000" d="M 856 488 L 1148.69580078125 488 L 1148.69580078125 527 L 856 527 L 856 488 Z Z" stroke-miterlimit="10"></path></g><g transform="translate(-5,-6) scale(1,1)"><g><path fill="none" stroke="none"></path><text fill="#000000" stroke="none" font-family="Arial" font-size="13px" font-style="normal" font-weight="bold" text-decoration="none" x="926.52197265625" y="505.5">TraditionalAgriFoodstuff</text></g></g><g transform="translate(-5,-6) scale(1,1)"><g><path fill="none" stroke="none"></path><text fill="#000000" stroke="none" font-family="Arial" font-size="13px" font-style="normal" font-weight="normal" text-decoration="none" x="860" y="520.5">{IRI="food-ita:ProdottiAgroalimentariTradizionali"}</text></g></g><g transform="translate(-5,-6) scale(1,1)"><rect fill="#ffffff" stroke="none" x="736" y="186" width="278.75" height="39"></rect></g><g transform="translate(-5,-6) scale(1,1)"><path fill="none" stroke="#000000" d="M 736 186 L 1014.75 186 L 1014.75 225 L 736 225 L 736 186 Z Z" stroke-miterlimit="10"></path></g><g transform="translate(-5,-6) scale(1,1)"><g><path fill="none" stroke="none"></path><text fill="#000000" stroke="none" font-family="Arial" font-size="13px" font-style="normal" font-weight="bold" text-decoration="none" x="804.56689453125" y="203.5">CheeseProtectedName</text></g></g><g transform="translate(-5,-6) scale(1,1)"><g><path fill="none" stroke="none"></path><text fill="#000000" stroke="none" font-family="Arial" font-size="13px" font-style="normal" font-weight="normal" text-decoration="none" x="740" y="218.5">{IRI="food-cheese:DenominazioneFormaggio"}</text></g></g><g transform="translate(-5,-6) scale(1,1)"><path fill="none" stroke="#000000" d="M 880 186 L 880 152 L 731 152 L 731 105" stroke-miterlimit="10"></path></g><g transform="translate(-5,-6) scale(1,1)"><path fill="#FFFFFF" stroke="none" d="M 739.419035512032 125.32534971524831 L 731 105 L 722.580964487968 125.32534971524831"></path></g><g transform="translate(-5,-6) scale(1,1)"><path fill="none" stroke="#000000" d="M 739.419035512032 125.32534971524831 L 731 105 L 722.580964487968 125.32534971524831 L 739.419035512032 125.32534971524831" stroke-miterlimit="10"></path></g><g transform="translate(-5,-6) scale(1,1)"><path fill="none" stroke="#000000" d="M 381 205 L 735 205" stroke-miterlimit="10"></path></g><g transform="translate(-5,-6) scale(1,1)"><g><path fill="none" stroke="none"></path><text fill="#000000" stroke="none" font-family="Arial" font-size="13px" font-style="normal" font-weight="normal" text-decoration="none" x="462.5" y="194.5">+hasProtectedName</text></g></g><g transform="translate(-5,-6) scale(1,1)"><g><path fill="none" stroke="none"></path><text fill="#000000" stroke="none" font-family="Arial" font-size="13px" font-style="normal" font-weight="normal" text-decoration="none" x="479.5" y="220.5">{IRI="food-upper:haDenominazione"}</text></g></g><g transform="translate(-5,-6) scale(1,1)"><g><path fill="none" stroke="none"></path><text fill="#000000" stroke="none" font-family="Arial" font-size="13px" font-style="normal" font-weight="normal" text-decoration="none" x="391.5" y="194.5">0..1</text></g></g><g transform="translate(-5,-6) scale(1,1)"><g><path fill="none" stroke="none"></path><text fill="#000000" stroke="none" font-family="Arial" font-size="13px" font-style="normal" font-weight="normal" text-decoration="none" x="702.5" y="193.5">0..1</text></g></g><g transform="translate(-5,-6) scale(1,1)"><path fill="none" stroke="#000000" d="M 559 205 L 592 205 L 592 85 L 532 85" stroke-miterlimit="10" stroke-dasharray="3"></path></g><g transform="translate(-5,-6) scale(1,1)"><g><path fill="none" stroke="none"></path><text fill="#000000" stroke="none" font-family="Arial" font-size="13px" font-style="normal" font-weight="normal" text-decoration="none" x="597" y="150">{subset}</text></g></g><g transform="translate(-5,-6) scale(1,1)"><path fill="none" stroke="#000000" d="M 312 488 L 312 328 L 688 328 L 688 296 L 1048 296 L 1048 88 L 864 88" stroke-miterlimit="10"></path></g><g transform="translate(-5,-6) scale(1,1)"><path fill="#FFFFFF" stroke="none" d="M 884.3253497152483 79.58096448796803 L 864 88 L 884.3253497152483 96.41903551203197"></path></g><g transform="translate(-5,-6) scale(1,1)"><path fill="none" stroke="#000000" d="M 884.3253497152483 79.58096448796803 L 864 88 L 884.3253497152483 96.41903551203197 L 884.3253497152483 79.58096448796803" stroke-miterlimit="10"></path></g><g transform="translate(-5,-6) scale(1,1)"><path fill="none" stroke="#000000" d="M 360 440 L 360 328 L 688 328 L 688 296 L 1048 296 L 1048 88 L 864 88" stroke-miterlimit="10"></path></g><g transform="translate(-5,-6) scale(1,1)"><path fill="#FFFFFF" stroke="none" d="M 884.3253497152483 79.58096448796803 L 864 88 L 884.3253497152483 96.41903551203197"></path></g><g transform="translate(-5,-6) scale(1,1)"><path fill="none" stroke="#000000" d="M 884.3253497152483 79.58096448796803 L 864 88 L 884.3253497152483 96.41903551203197 L 884.3253497152483 79.58096448796803" stroke-miterlimit="10"></path></g><g transform="translate(-5,-6) scale(1,1)"><path fill="none" stroke="#000000" d="M 520 392 L 520 328 L 688 328 L 688 296 L 1048 296 L 1048 88 L 864 88" stroke-miterlimit="10"></path></g><g transform="translate(-5,-6) scale(1,1)"><path fill="#FFFFFF" stroke="none" d="M 884.3253497152483 79.58096448796803 L 864 88 L 884.3253497152483 96.41903551203197"></path></g><g transform="translate(-5,-6) scale(1,1)"><path fill="none" stroke="#000000" d="M 884.3253497152483 79.58096448796803 L 864 88 L 884.3253497152483 96.41903551203197 L 884.3253497152483 79.58096448796803" stroke-miterlimit="10"></path></g><g transform="translate(-5,-6) scale(1,1)"><path fill="none" stroke="#000000" d="M 688 344 L 688 296 L 1048 296 L 1048 88 L 864 88" stroke-miterlimit="10"></path></g><g transform="translate(-5,-6) scale(1,1)"><path fill="#FFFFFF" stroke="none" d="M 884.3253497152483 79.58096448796803 L 864 88 L 884.3253497152483 96.41903551203197"></path></g><g transform="translate(-5,-6) scale(1,1)"><path fill="none" stroke="#000000" d="M 884.3253497152483 79.58096448796803 L 864 88 L 884.3253497152483 96.41903551203197 L 884.3253497152483 79.58096448796803" stroke-miterlimit="10"></path></g><g transform="translate(-5,-6) scale(1,1)"><path fill="none" stroke="#000000" d="M 888 392 L 888 328 L 688 328 L 688 296 L 1048 296 L 1048 88 L 864 88" stroke-miterlimit="10"></path></g><g transform="translate(-5,-6) scale(1,1)"><path fill="#FFFFFF" stroke="none" d="M 884.3253497152483 79.58096448796803 L 864 88 L 884.3253497152483 96.41903551203197"></path></g><g transform="translate(-5,-6) scale(1,1)"><path fill="none" stroke="#000000" d="M 884.3253497152483 79.58096448796803 L 864 88 L 884.3253497152483 96.41903551203197 L 884.3253497152483 79.58096448796803" stroke-miterlimit="10"></path></g><g transform="translate(-5,-6) scale(1,1)"><path fill="none" stroke="#000000" d="M 1080 440 L 1080 328 L 688 328 L 688 296 L 1048 296 L 1048 88 L 864 88" stroke-miterlimit="10"></path></g><g transform="translate(-5,-6) scale(1,1)"><path fill="#FFFFFF" stroke="none" d="M 884.3253497152483 79.58096448796803 L 864 88 L 884.3253497152483 96.41903551203197"></path></g><g transform="translate(-5,-6) scale(1,1)"><path fill="none" stroke="#000000" d="M 884.3253497152483 79.58096448796803 L 864 88 L 884.3253497152483 96.41903551203197 L 884.3253497152483 79.58096448796803" stroke-miterlimit="10"></path></g><g transform="translate(-5,-6) scale(1,1)"><path fill="none" stroke="#000000" d="M 1128 488 L 1128 328 L 688 328 L 688 296 L 1048 296 L 1048 88 L 864 88" stroke-miterlimit="10"></path></g><g transform="translate(-5,-6) scale(1,1)"><path fill="#FFFFFF" stroke="none" d="M 884.3253497152483 79.58096448796803 L 864 88 L 884.3253497152483 96.41903551203197"></path></g><g transform="translate(-5,-6) scale(1,1)"><path fill="none" stroke="#000000" d="M 884.3253497152483 79.58096448796803 L 864 88 L 884.3253497152483 96.41903551203197 L 884.3253497152483 79.58096448796803" stroke-miterlimit="10"></path></g><g transform="translate(-5,-6) scale(1,1)"><g><path fill="none" stroke="none"></path><text fill="#000000" stroke="none" font-family="Arial" font-size="13px" font-style="normal" font-weight="normal" text-decoration="none" x="573" y="318">{disjoint, complete}</text></g></g><g transform="translate(-5,-6) scale(1,1)"><rect fill="#ffffff" stroke="none" x="16" y="232" width="160.22021484375" height="39"></rect></g><g transform="translate(-5,-6) scale(1,1)"><path fill="none" stroke="#000000" d="M 16 232 L 176.22021484375 232 L 176.22021484375 271 L 16 271 L 16 232 Z Z" stroke-miterlimit="10"></path></g><g transform="translate(-5,-6) scale(1,1)"><g><path fill="none" stroke="none"></path><text fill="#000000" stroke="none" font-family="Arial" font-size="13px" font-style="normal" font-weight="bold" text-decoration="none" x="44.1005859375" y="249.5">ProtectedRicotta</text></g></g><g transform="translate(-5,-6) scale(1,1)"><g><path fill="none" stroke="none"></path><text fill="#000000" stroke="none" font-family="Arial" font-size="13px" font-style="normal" font-weight="normal" text-decoration="none" x="20" y="264.5">{IRI="food-ricotta:Ricotta"}</text></g></g><g transform="translate(-5,-6) scale(1,1)"><rect fill="#ffffff" stroke="none" x="764.1962890625" y="232" width="250.5537109375" height="39"></rect></g><g transform="translate(-5,-6) scale(1,1)"><path fill="none" stroke="#000000" d="M 764.1962890625 232 L 1014.75 232 L 1014.75 271 L 764.1962890625 271 L 764.1962890625 232 Z Z" stroke-miterlimit="10"></path></g><g transform="translate(-5,-6) scale(1,1)"><g><path fill="none" stroke="none"></path><text fill="#000000" stroke="none" font-family="Arial" font-size="13px" font-style="normal" font-weight="bold" text-decoration="none" x="819.760009765625" y="249.5">RicottaProtectedName</text></g></g><g transform="translate(-5,-6) scale(1,1)"><g><path fill="none" stroke="none"></path><text fill="#000000" stroke="none" font-family="Arial" font-size="13px" font-style="normal" font-weight="normal" text-decoration="none" x="768.1962890625" y="264.5">{IRI="food-ricotta:DenominazioneRicotta"}</text></g></g><g transform="translate(-5,-6) scale(1,1)"><path fill="none" stroke="#000000" d="M 177 251 L 763 251" stroke-miterlimit="10"></path></g><g transform="translate(-5,-6) scale(1,1)"><g><path fill="none" stroke="none"></path><text fill="#000000" stroke="none" font-family="Arial" font-size="13px" font-style="normal" font-weight="normal" text-decoration="none" x="409.5" y="266.5">+hasProtectedName</text></g></g><g transform="translate(-5,-6) scale(1,1)"><g><path fill="none" stroke="none"></path><text fill="#000000" stroke="none" font-family="Arial" font-size="13px" font-style="normal" font-weight="normal" text-decoration="none" x="363.5" y="281.5">{IRI="food-upper:haDenominazione"}</text></g></g><g transform="translate(-5,-6) scale(1,1)"><g><path fill="none" stroke="none"></path><text fill="#000000" stroke="none" font-family="Arial" font-size="13px" font-style="normal" font-weight="normal" text-decoration="none" x="183.5" y="242.5">0..1</text></g></g><g transform="translate(-5,-6) scale(1,1)"><g><path fill="none" stroke="none"></path><text fill="#000000" stroke="none" font-family="Arial" font-size="13px" font-style="normal" font-weight="normal" text-decoration="none" x="730.5" y="241.5">0..1</text></g></g><g transform="translate(-5,-6) scale(1,1)"><path fill="none" stroke="#000000" d="M 1015 259 L 1032 259 L 1032 152 L 731 152 L 731 105" stroke-miterlimit="10"></path></g><g transform="translate(-5,-6) scale(1,1)"><path fill="#FFFFFF" stroke="none" d="M 739.419035512032 125.32534971524831 L 731 105 L 722.580964487968 125.32534971524831"></path></g><g transform="translate(-5,-6) scale(1,1)"><path fill="none" stroke="#000000" d="M 739.419035512032 125.32534971524831 L 731 105 L 722.580964487968 125.32534971524831 L 739.419035512032 125.32534971524831" stroke-miterlimit="10"></path></g><g transform="translate(-5,-6) scale(1,1)"><path fill="none" stroke="#000000" d="M 56 232 L 56 152 L 112 152 L 112 107" stroke-miterlimit="10"></path></g><g transform="translate(-5,-6) scale(1,1)"><path fill="#FFFFFF" stroke="none" d="M 120.41903551203198 127.32534971524831 L 112 107 L 103.58096448796803 127.32534971524831"></path></g><g transform="translate(-5,-6) scale(1,1)"><path fill="none" stroke="#000000" d="M 120.41903551203198 127.32534971524831 L 112 107 L 103.58096448796803 127.32534971524831 L 120.41903551203198 127.32534971524831" stroke-miterlimit="10"></path></g><g transform="translate(-5,-6) scale(1,1)"><g><path fill="none" stroke="none"></path><text fill="#000000" stroke="none" font-family="Arial" font-size="13px" font-style="normal" font-weight="normal" text-decoration="none" x="133" y="142">{disjoint, incomplete}</text></g></g><g transform="translate(-5,-6) scale(1,1)"><path fill="none" stroke="#000000" d="M 136 232 L 136 168 L 304 168 L 304 105" stroke-miterlimit="10"></path></g><g transform="translate(-5,-6) scale(1,1)"><path fill="#FFFFFF" stroke="none" d="M 312.419035512032 125.32534971524831 L 304 105 L 295.580964487968 125.32534971524831"></path></g><g transform="translate(-5,-6) scale(1,1)"><path fill="none" stroke="#000000" d="M 312.419035512032 125.32534971524831 L 304 105 L 295.580964487968 125.32534971524831 L 312.419035512032 125.32534971524831" stroke-miterlimit="10"></path></g><g transform="translate(-5,-6) scale(1,1)"><path fill="none" stroke="#000000" d="M 469 251 L 456 251 L 456 86 L 530 86" stroke-miterlimit="10" stroke-dasharray="3"></path></g><g transform="translate(-5,-6) scale(1,1)"><g><path fill="none" stroke="none"></path><text fill="#000000" stroke="none" font-family="Arial" font-size="13px" font-style="normal" font-weight="normal" text-decoration="none" x="461" y="142">{subset}</text></g></g><g transform="translate(-5,-6) scale(1,1)"><g><path fill="none" stroke="none"></path><text fill="#000000" stroke="none" font-family="Arial" font-size="13px" font-style="normal" font-weight="normal" text-decoration="none" x="309" y="158">{disjoint, incomplete}</text></g></g><g transform="translate(-5,-6) scale(1,1)"><g><path fill="none" stroke="none"></path><text fill="#000000" stroke="none" font-family="Arial" font-size="13px" font-style="normal" font-weight="normal" text-decoration="none" x="741" y="142">{disjoint, incomplete}</text></g></g><g transform="translate(-5,-6) scale(1,1)"><rect fill="#ffffff" stroke="none" x="79" y="488" width="194.90380859375" height="39"></rect></g><g transform="translate(-5,-6) scale(1,1)"><path fill="none" stroke="#000000" d="M 79 488 L 273.90380859375 488 L 273.90380859375 527 L 79 527 L 79 488 Z Z" stroke-miterlimit="10"></path></g><g transform="translate(-5,-6) scale(1,1)"><g><path fill="none" stroke="none"></path><text fill="#000000" stroke="none" font-family="Arial" font-size="13px" font-style="normal" font-weight="bold" text-decoration="none" x="138.521484375" y="505.5">RawMaterial</text></g></g><g transform="translate(-5,-6) scale(1,1)"><g><path fill="none" stroke="none"></path><text fill="#000000" stroke="none" font-family="Arial" font-size="13px" font-style="normal" font-weight="normal" text-decoration="none" x="83" y="520.5">{IRI="food-upper:MateriaPrima"}</text></g></g><g transform="translate(-5,-6) scale(1,1)"><rect fill="#ffffff" stroke="none" x="105" y="400" width="143.62744140625" height="39"></rect></g><g transform="translate(-5,-6) scale(1,1)"><path fill="none" stroke="#000000" d="M 105 400 L 248.62744140625 400 L 248.62744140625 439 L 105 439 L 105 400 Z Z" stroke-miterlimit="10"></path></g><g transform="translate(-5,-6) scale(1,1)"><g><path fill="none" stroke="none"></path><text fill="#000000" stroke="none" font-family="Arial" font-size="13px" font-style="normal" font-weight="bold" text-decoration="none" x="126.241943359375" y="417.5">MilkRawMaterial</text></g></g><g transform="translate(-5,-6) scale(1,1)"><g><path fill="none" stroke="none"></path><text fill="#000000" stroke="none" font-family="Arial" font-size="13px" font-style="normal" font-weight="normal" text-decoration="none" x="109" y="432.5">{IRI="agrovoc:c_4826"}</text></g></g><g transform="translate(-5,-6) scale(1,1)"><rect fill="#ffffff" stroke="none" x="91" y="328" width="170.103515625" height="24"></rect></g><g transform="translate(-5,-6) scale(1,1)"><path fill="none" stroke="#000000" d="M 91 328 L 261.103515625 328 L 261.103515625 352 L 91 352 L 91 328 Z Z" stroke-miterlimit="10"></path></g><g transform="translate(-5,-6) scale(1,1)"><g><path fill="none" stroke="none"></path><text fill="#000000" stroke="none" font-family="Arial" font-size="13px" font-style="normal" font-weight="bold" text-decoration="none" x="95.5" y="345.5">ProtectedMilkRawMaterial</text></g></g><g transform="translate(-5,-6) scale(1,1)"><path fill="none" stroke="#000000" d="M 120 328 L 120 271" stroke-miterlimit="10" stroke-dasharray="3"></path></g><g transform="translate(-5,-6) scale(1,1)"><path fill="none" stroke="#000000" d="M 124.20951775601598 281.16267485762415 L 120 271 L 115.79048224398402 281.16267485762415" stroke-miterlimit="10"></path></g><g transform="translate(-5,-6) scale(1,1)"><g><path fill="none" stroke="none"></path><text fill="#000000" stroke="none" font-family="Arial" font-size="13px" font-style="normal" font-weight="normal" text-decoration="none" x="23.5" y="306.5">+isMilkUsedIn</text></g></g><g transform="translate(-5,-6) scale(1,1)"><path fill="none" stroke="#000000" d="M 240 328 L 240 225" stroke-miterlimit="10" stroke-dasharray="3"></path></g><g transform="translate(-5,-6) scale(1,1)"><path fill="none" stroke="#000000" d="M 244.209517756016 235.16267485762415 L 240 225 L 235.790482243984 235.16267485762415" stroke-miterlimit="10"></path></g><g transform="translate(-5,-6) scale(1,1)"><g><path fill="none" stroke="none"></path><text fill="#000000" stroke="none" font-family="Arial" font-size="13px" font-style="normal" font-weight="normal" text-decoration="none" x="255.5" y="305.5">+isMilkUsedIn</text></g></g><g transform="translate(-5,-6) scale(1,1)"><path fill="none" stroke="#000000" d="M 120 300 L 120 304 L 240 304 L 240 277" stroke-miterlimit="10" stroke-dasharray="3"></path></g><g transform="translate(-5,-6) scale(1,1)"><g><path fill="none" stroke="none"></path><text fill="#000000" stroke="none" font-family="Arial" font-size="13px" font-style="normal" font-weight="normal" text-decoration="none" x="173" y="294">{or}</text></g></g><g transform="translate(-5,-6) scale(1,1)"><path fill="none" stroke="#000000" d="M 176 353 L 176 399" stroke-miterlimit="10"></path></g><g transform="translate(-5,-6) scale(1,1)"><path fill="#FFFFFF" stroke="none" d="M 167.58096448796803 378.6746502847517 L 176 399 L 184.41903551203197 378.6746502847517"></path></g><g transform="translate(-5,-6) scale(1,1)"><path fill="none" stroke="#000000" d="M 167.58096448796803 378.6746502847517 L 176 399 L 184.41903551203197 378.6746502847517 L 167.58096448796803 378.6746502847517" stroke-miterlimit="10"></path></g><g transform="translate(-5,-6) scale(1,1)"><path fill="none" stroke="#000000" d="M 176 440 L 176 487" stroke-miterlimit="10"></path></g><g transform="translate(-5,-6) scale(1,1)"><path fill="#FFFFFF" stroke="none" d="M 167.58096448796803 466.6746502847517 L 176 487 L 184.41903551203197 466.6746502847517"></path></g><g transform="translate(-5,-6) scale(1,1)"><path fill="none" stroke="#000000" d="M 167.58096448796803 466.6746502847517 L 176 487 L 184.41903551203197 466.6746502847517 L 167.58096448796803 466.6746502847517" stroke-miterlimit="10"></path></g></g></svg>