<svg version="1.1" xmlns="http://www.w3.org/2000/svg" xmlns:xlink="http://www.w3.org/1999/xlink" width="1054" height="435"><defs></defs><g><g transform="translate(-5,-6) scale(1,1)"><rect fill="#ffffff" stroke="none" x="112" y="16" width="198.541015625" height="39"></rect></g><g transform="translate(-5,-6) scale(1,1)"><path fill="none" stroke="#000000" d="M 112 16 L 310.541015625 16 L 310.541015625 55 L 112 55 L 112 16 Z Z" stroke-miterlimit="10"></path></g><g transform="translate(-5,-6) scale(1,1)"><g><path fill="none" stroke="none"></path><text fill="#000000" stroke="none" font-family="Arial" font-size="13px" font-style="normal" font-weight="bold" text-decoration="none" x="195.388671875" y="34">Food</text></g></g><g transform="translate(-5,-6) scale(1,1)"><g><path fill="none" stroke="none"></path><text fill="#000000" stroke="none" font-family="Arial" font-size="13px" font-style="normal" font-weight="normal" text-decoration="none" x="116" y="49">{IRI="obo:FOODON_00002403"}</text></g></g><g transform="translate(-5,-6) scale(1,1)"><rect fill="#ffffff" stroke="none" x="15" y="68" width="198.541015625" height="39"></rect></g><g transform="translate(-5,-6) scale(1,1)"><path fill="none" stroke="#000000" d="M 15 68 L 213.541015625 68 L 213.541015625 107 L 15 107 L 15 68 Z Z" stroke-miterlimit="10"></path></g><g transform="translate(-5,-6) scale(1,1)"><g><path fill="none" stroke="none"></path><text fill="#000000" stroke="none" font-family="Arial" font-size="13px" font-style="normal" font-weight="bold" text-decoration="none" x="91.14599609375" y="86">Cheese</text></g></g><g transform="translate(-5,-6) scale(1,1)"><g><path fill="none" stroke="none"></path><text fill="#000000" stroke="none" font-family="Arial" font-size="13px" font-style="normal" font-weight="normal" text-decoration="none" x="19" y="101">{IRI="obo:FOODON_00001013"}</text></g></g><g transform="translate(-5,-6) scale(1,1)"><path fill="none" stroke="#000000" d="M 48 68 L 48 35 L 112 35" stroke-miterlimit="10"></path></g><g transform="translate(-5,-6) scale(1,1)"><path fill="#FFFFFF" stroke="none" d="M 91.67465028475169 43.419035512031975 L 112 35 L 91.67465028475169 26.580964487968025"></path></g><g transform="translate(-5,-6) scale(1,1)"><path fill="none" stroke="#000000" d="M 91.67465028475169 43.419035512031975 L 112 35 L 91.67465028475169 26.580964487968025 L 91.67465028475169 43.419035512031975" stroke-miterlimit="10"></path></g><g transform="translate(-5,-6) scale(1,1)"><rect fill="#ffffff" stroke="none" x="192" y="186" width="188.41650390625" height="39"></rect></g><g transform="translate(-5,-6) scale(1,1)"><path fill="none" stroke="#000000" d="M 192 186 L 380.41650390625 186 L 380.41650390625 225 L 192 225 L 192 186 Z Z" stroke-miterlimit="10"></path></g><g transform="translate(-5,-6) scale(1,1)"><g><path fill="none" stroke="none"></path><text fill="#000000" stroke="none" font-family="Arial" font-size="13px" font-style="normal" font-weight="bold" text-decoration="none" x="233.103759765625" y="204">ProtectedCheese</text></g></g><g transform="translate(-5,-6) scale(1,1)"><g><path fill="none" stroke="none"></path><text fill="#000000" stroke="none" font-family="Arial" font-size="13px" font-style="normal" font-weight="normal" text-decoration="none" x="196" y="219">{IRI="food-cheese:Formaggio"}</text></g></g><g transform="translate(-5,-6) scale(1,1)"><path fill="none" stroke="#000000" d="M 232 186 L 232 152 L 112 152 L 112 107" stroke-miterlimit="10"></path></g><g transform="translate(-5,-6) scale(1,1)"><path fill="#FFFFFF" stroke="none" d="M 120.41903551203198 127.32534971524831 L 112 107 L 103.58096448796803 127.32534971524831"></path></g><g transform="translate(-5,-6) scale(1,1)"><path fill="none" stroke="#000000" d="M 120.41903551203198 127.32534971524831 L 112 107 L 103.58096448796803 127.32534971524831 L 120.41903551203198 127.32534971524831" stroke-miterlimit="10"></path></g><g transform="translate(-5,-6) scale(1,1)"><rect fill="#ffffff" stroke="none" x="656" y="66" width="207.94189453125" height="39"></rect></g><g transform="translate(-5,-6) scale(1,1)"><path fill="none" stroke="#000000" d="M 656 66 L 863.94189453125 66 L 863.94189453125 105 L 656 105 L 656 66 Z Z" stroke-miterlimit="10"></path></g><g transform="translate(-5,-6) scale(1,1)"><g><path fill="none" stroke="none"></path><text fill="#000000" stroke="none" font-family="Arial" font-size="13px" font-style="normal" font-weight="bold" text-decoration="none" x="712.287353515625" y="84">ProtectedName</text></g></g><g transform="translate(-5,-6) scale(1,1)"><g><path fill="none" stroke="none"></path><text fill="#000000" stroke="none" font-family="Arial" font-size="13px" font-style="normal" font-weight="normal" text-decoration="none" x="660" y="99">{IRI="food-upper:Denominazione"}</text></g></g><g transform="translate(-5,-6) scale(1,1)"><rect fill="#ffffff" stroke="none" x="240" y="66" width="166.751953125" height="39"></rect></g><g transform="translate(-5,-6) scale(1,1)"><path fill="none" stroke="#000000" d="M 240 66 L 406.751953125 66 L 406.751953125 105 L 240 105 L 240 66 Z Z" stroke-miterlimit="10"></path></g><g transform="translate(-5,-6) scale(1,1)"><g><path fill="none" stroke="none"></path><text fill="#000000" stroke="none" font-family="Arial" font-size="13px" font-style="normal" font-weight="bold" text-decoration="none" x="277.51416015625" y="84">ProtectedFood</text></g></g><g transform="translate(-5,-6) scale(1,1)"><g><path fill="none" stroke="none"></path><text fill="#000000" stroke="none" font-family="Arial" font-size="13px" font-style="normal" font-weight="normal" text-decoration="none" x="244" y="99">{IRI="food-upper:Prodotto"}</text></g></g><g transform="translate(-5,-6) scale(1,1)"><path fill="none" stroke="#000000" d="M 376 66 L 376 35 L 311 35" stroke-miterlimit="10"></path></g><g transform="translate(-5,-6) scale(1,1)"><path fill="#FFFFFF" stroke="none" d="M 331.3253497152483 26.580964487968025 L 311 35 L 331.3253497152483 43.419035512031975"></path></g><g transform="translate(-5,-6) scale(1,1)"><path fill="none" stroke="#000000" d="M 331.3253497152483 26.580964487968025 L 311 35 L 331.3253497152483 43.419035512031975 L 331.3253497152483 26.580964487968025" stroke-miterlimit="10"></path></g><g transform="translate(-5,-6) scale(1,1)"><path fill="none" stroke="#000000" d="M 408 85 L 655 85" stroke-miterlimit="10"></path></g><g transform="translate(-5,-6) scale(1,1)"><g><path fill="none" stroke="none"></path><text fill="#000000" stroke="none" font-family="Arial" font-size="13px" font-style="normal" font-weight="normal" text-decoration="none" x="471.5" y="60">+hasProtectedName</text></g></g><g transform="translate(-5,-6) scale(1,1)"><g><path fill="none" stroke="none"></path><text fill="#000000" stroke="none" font-family="Arial" font-size="13px" font-style="normal" font-weight="normal" text-decoration="none" x="424.5" y="77">{IRI="food-upper:haDenominazione"}</text></g></g><g transform="translate(-5,-6) scale(1,1)"><g><path fill="none" stroke="none"></path><text fill="#000000" stroke="none" font-family="Arial" font-size="13px" font-style="normal" font-weight="normal" text-decoration="none" x="417.5" y="100">0..1</text></g></g><g transform="translate(-5,-6) scale(1,1)"><g><path fill="none" stroke="none"></path><text fill="#000000" stroke="none" font-family="Arial" font-size="13px" font-style="normal" font-weight="normal" text-decoration="none" x="623.5" y="101">0..1</text></g></g><g transform="translate(-5,-6) scale(1,1)"><path fill="none" stroke="#000000" d="M 336 186 L 336 168 L 304 168 L 304 105" stroke-miterlimit="10"></path></g><g transform="translate(-5,-6) scale(1,1)"><path fill="#FFFFFF" stroke="none" d="M 312.419035512032 125.32534971524831 L 304 105 L 295.580964487968 125.32534971524831"></path></g><g transform="translate(-5,-6) scale(1,1)"><path fill="none" stroke="#000000" d="M 312.419035512032 125.32534971524831 L 304 105 L 295.580964487968 125.32534971524831 L 312.419035512032 125.32534971524831" stroke-miterlimit="10"></path></g><g transform="translate(-5,-6) scale(1,1)"><rect fill="#ffffff" stroke="none" x="304" y="392" width="295.37451171875" height="39"></rect></g><g transform="translate(-5,-6) scale(1,1)"><path fill="none" stroke="#000000" d="M 304 392 L 599.37451171875 392 L 599.37451171875 431 L 304 431 L 304 392 Z Z" stroke-miterlimit="10"></path></g><g transform="translate(-5,-6) scale(1,1)"><g><path fill="none" stroke="none"></path><text fill="#000000" stroke="none" font-family="Arial" font-size="13px" font-style="normal" font-weight="bold" text-decoration="none" x="365.371826171875" y="410">ProtectedDesignationOrigin</text></g></g><g transform="translate(-5,-6) scale(1,1)"><g><path fill="none" stroke="none"></path><text fill="#000000" stroke="none" font-family="Arial" font-size="13px" font-style="normal" font-weight="normal" text-decoration="none" x="308" y="425">{IRI="food-upper:DenominazioneOrigineProtetta"}</text></g></g><g transform="translate(-5,-6) scale(1,1)"><rect fill="#ffffff" stroke="none" x="336" y="344" width="292.49267578125" height="39"></rect></g><g transform="translate(-5,-6) scale(1,1)"><path fill="none" stroke="#000000" d="M 336 344 L 628.49267578125 344 L 628.49267578125 383 L 336 383 L 336 344 Z Z" stroke-miterlimit="10"></path></g><g transform="translate(-5,-6) scale(1,1)"><g><path fill="none" stroke="none"></path><text fill="#000000" stroke="none" font-family="Arial" font-size="13px" font-style="normal" font-weight="bold" text-decoration="none" x="380.033203125" y="362">ProtectedGeographicalIndication</text></g></g><g transform="translate(-5,-6) scale(1,1)"><g><path fill="none" stroke="none"></path><text fill="#000000" stroke="none" font-family="Arial" font-size="13px" font-style="normal" font-weight="normal" text-decoration="none" x="340" y="377">{IRI="food-upper:IndicazioneGeograficaProtetta"}</text></g></g><g transform="translate(-5,-6) scale(1,1)"><rect fill="#ffffff" stroke="none" x="648" y="344" width="297.7802734375" height="39"></rect></g><g transform="translate(-5,-6) scale(1,1)"><path fill="none" stroke="#000000" d="M 648 344 L 945.7802734375 344 L 945.7802734375 383 L 648 383 L 648 344 Z Z" stroke-miterlimit="10"></path></g><g transform="translate(-5,-6) scale(1,1)"><g><path fill="none" stroke="none"></path><text fill="#000000" stroke="none" font-family="Arial" font-size="13px" font-style="normal" font-weight="bold" text-decoration="none" x="699.361572265625" y="362">TraditionalSpecialtyGuaranteed</text></g></g><g transform="translate(-5,-6) scale(1,1)"><g><path fill="none" stroke="none"></path><text fill="#000000" stroke="none" font-family="Arial" font-size="13px" font-style="normal" font-weight="normal" text-decoration="none" x="652" y="377">{IRI="food-upper:SpecialitaTradizionaleGarantita"}</text></g></g><g transform="translate(-5,-6) scale(1,1)"><rect fill="#ffffff" stroke="none" x="680" y="392" width="292.69580078125" height="39"></rect></g><g transform="translate(-5,-6) scale(1,1)"><path fill="none" stroke="#000000" d="M 680 392 L 972.69580078125 392 L 972.69580078125 431 L 680 431 L 680 392 Z Z" stroke-miterlimit="10"></path></g><g transform="translate(-5,-6) scale(1,1)"><g><path fill="none" stroke="none"></path><text fill="#000000" stroke="none" font-family="Arial" font-size="13px" font-style="normal" font-weight="bold" text-decoration="none" x="750.52197265625" y="410">TraditionalAgriFoodstuff</text></g></g><g transform="translate(-5,-6) scale(1,1)"><g><path fill="none" stroke="none"></path><text fill="#000000" stroke="none" font-family="Arial" font-size="13px" font-style="normal" font-weight="normal" text-decoration="none" x="684" y="425">{IRI="food-ita:ProdottiAgroalimentariTradizionali"}</text></g></g><g transform="translate(-5,-6) scale(1,1)"><rect fill="#ffffff" stroke="none" x="736" y="186" width="278.75" height="39"></rect></g><g transform="translate(-5,-6) scale(1,1)"><path fill="none" stroke="#000000" d="M 736 186 L 1014.75 186 L 1014.75 225 L 736 225 L 736 186 Z Z" stroke-miterlimit="10"></path></g><g transform="translate(-5,-6) scale(1,1)"><g><path fill="none" stroke="none"></path><text fill="#000000" stroke="none" font-family="Arial" font-size="13px" font-style="normal" font-weight="bold" text-decoration="none" x="804.56689453125" y="204">CheeseProtectedName</text></g></g><g transform="translate(-5,-6) scale(1,1)"><g><path fill="none" stroke="none"></path><text fill="#000000" stroke="none" font-family="Arial" font-size="13px" font-style="normal" font-weight="normal" text-decoration="none" x="740" y="219">{IRI="food-cheese:DenominazioneFormaggio"}</text></g></g><g transform="translate(-5,-6) scale(1,1)"><path fill="none" stroke="#000000" d="M 880 186 L 880 152 L 731 152 L 731 105" stroke-miterlimit="10"></path></g><g transform="translate(-5,-6) scale(1,1)"><path fill="#FFFFFF" stroke="none" d="M 739.419035512032 125.32534971524831 L 731 105 L 722.580964487968 125.32534971524831"></path></g><g transform="translate(-5,-6) scale(1,1)"><path fill="none" stroke="#000000" d="M 739.419035512032 125.32534971524831 L 731 105 L 722.580964487968 125.32534971524831 L 739.419035512032 125.32534971524831" stroke-miterlimit="10"></path></g><g transform="translate(-5,-6) scale(1,1)"><path fill="none" stroke="#000000" d="M 381 205 L 735 205" stroke-miterlimit="10"></path></g><g transform="translate(-5,-6) scale(1,1)"><g><path fill="none" stroke="none"></path><text fill="#000000" stroke="none" font-family="Arial" font-size="13px" font-style="normal" font-weight="normal" text-decoration="none" x="462.5" y="195">+hasProtectedName</text></g></g><g transform="translate(-5,-6) scale(1,1)"><g><path fill="none" stroke="none"></path><text fill="#000000" stroke="none" font-family="Arial" font-size="13px" font-style="normal" font-weight="normal" text-decoration="none" x="479.5" y="221">{IRI="food-upper:haDenominazione"}</text></g></g><g transform="translate(-5,-6) scale(1,1)"><g><path fill="none" stroke="none"></path><text fill="#000000" stroke="none" font-family="Arial" font-size="13px" font-style="normal" font-weight="normal" text-decoration="none" x="391.5" y="195">0..1</text></g></g><g transform="translate(-5,-6) scale(1,1)"><g><path fill="none" stroke="none"></path><text fill="#000000" stroke="none" font-family="Arial" font-size="13px" font-style="normal" font-weight="normal" text-decoration="none" x="702.5" y="194">0..1</text></g></g><g transform="translate(-5,-6) scale(1,1)"><path fill="none" stroke="#000000" d="M 559 205 L 592 205 L 592 85 L 532 85" stroke-miterlimit="10" stroke-dasharray="3"></path></g><g transform="translate(-5,-6) scale(1,1)"><g><path fill="none" stroke="none"></path><text fill="#000000" stroke="none" font-family="Arial" font-size="13px" font-style="normal" font-weight="normal" text-decoration="none" x="597" y="151">{subset}</text></g></g><g transform="translate(-5,-6) scale(1,1)"><path fill="none" stroke="#000000" d="M 320 392 L 320 328 L 688 328 L 688 296 L 1048 296 L 1048 88 L 864 88" stroke-miterlimit="10"></path></g><g transform="translate(-5,-6) scale(1,1)"><path fill="#FFFFFF" stroke="none" d="M 884.3253497152483 79.58096448796803 L 864 88 L 884.3253497152483 96.41903551203197"></path></g><g transform="translate(-5,-6) scale(1,1)"><path fill="none" stroke="#000000" d="M 884.3253497152483 79.58096448796803 L 864 88 L 884.3253497152483 96.41903551203197 L 884.3253497152483 79.58096448796803" stroke-miterlimit="10"></path></g><g transform="translate(-5,-6) scale(1,1)"><path fill="none" stroke="#000000" d="M 480 344 L 480 328 L 688 328 L 688 296 L 1048 296 L 1048 88 L 864 88" stroke-miterlimit="10"></path></g><g transform="translate(-5,-6) scale(1,1)"><path fill="#FFFFFF" stroke="none" d="M 884.3253497152483 79.58096448796803 L 864 88 L 884.3253497152483 96.41903551203197"></path></g><g transform="translate(-5,-6) scale(1,1)"><path fill="none" stroke="#000000" d="M 884.3253497152483 79.58096448796803 L 864 88 L 884.3253497152483 96.41903551203197 L 884.3253497152483 79.58096448796803" stroke-miterlimit="10"></path></g><g transform="translate(-5,-6) scale(1,1)"><path fill="none" stroke="#000000" d="M 800 344 L 800 328 L 688 328 L 688 296 L 1048 296 L 1048 88 L 864 88" stroke-miterlimit="10"></path></g><g transform="translate(-5,-6) scale(1,1)"><path fill="#FFFFFF" stroke="none" d="M 884.3253497152483 79.58096448796803 L 864 88 L 884.3253497152483 96.41903551203197"></path></g><g transform="translate(-5,-6) scale(1,1)"><path fill="none" stroke="#000000" d="M 884.3253497152483 79.58096448796803 L 864 88 L 884.3253497152483 96.41903551203197 L 884.3253497152483 79.58096448796803" stroke-miterlimit="10"></path></g><g transform="translate(-5,-6) scale(1,1)"><path fill="none" stroke="#000000" d="M 960 392 L 960 328 L 688 328 L 688 296 L 1048 296 L 1048 88 L 864 88" stroke-miterlimit="10"></path></g><g transform="translate(-5,-6) scale(1,1)"><path fill="#FFFFFF" stroke="none" d="M 884.3253497152483 79.58096448796803 L 864 88 L 884.3253497152483 96.41903551203197"></path></g><g transform="translate(-5,-6) scale(1,1)"><path fill="none" stroke="#000000" d="M 884.3253497152483 79.58096448796803 L 864 88 L 884.3253497152483 96.41903551203197 L 884.3253497152483 79.58096448796803" stroke-miterlimit="10"></path></g><g transform="translate(-5,-6) scale(1,1)"><g><path fill="none" stroke="none"></path><text fill="#000000" stroke="none" font-family="Arial" font-size="13px" font-style="normal" font-weight="normal" text-decoration="none" x="573" y="319">{disjoint, complete}</text></g></g><g transform="translate(-5,-6) scale(1,1)"><rect fill="#ffffff" stroke="none" x="16" y="232" width="160.22021484375" height="39"></rect></g><g transform="translate(-5,-6) scale(1,1)"><path fill="none" stroke="#000000" d="M 16 232 L 176.22021484375 232 L 176.22021484375 271 L 16 271 L 16 232 Z Z" stroke-miterlimit="10"></path></g><g transform="translate(-5,-6) scale(1,1)"><g><path fill="none" stroke="none"></path><text fill="#000000" stroke="none" font-family="Arial" font-size="13px" font-style="normal" font-weight="bold" text-decoration="none" x="44.1005859375" y="250">ProtectedRicotta</text></g></g><g transform="translate(-5,-6) scale(1,1)"><g><path fill="none" stroke="none"></path><text fill="#000000" stroke="none" font-family="Arial" font-size="13px" font-style="normal" font-weight="normal" text-decoration="none" x="20" y="265">{IRI="food-ricotta:Ricotta"}</text></g></g><g transform="translate(-5,-6) scale(1,1)"><rect fill="#ffffff" stroke="none" x="764.1962890625" y="232" width="250.5537109375" height="39"></rect></g><g transform="translate(-5,-6) scale(1,1)"><path fill="none" stroke="#000000" d="M 764.1962890625 232 L 1014.75 232 L 1014.75 271 L 764.1962890625 271 L 764.1962890625 232 Z Z" stroke-miterlimit="10"></path></g><g transform="translate(-5,-6) scale(1,1)"><g><path fill="none" stroke="none"></path><text fill="#000000" stroke="none" font-family="Arial" font-size="13px" font-style="normal" font-weight="bold" text-decoration="none" x="819.760009765625" y="250">RicottaProtectedName</text></g></g><g transform="translate(-5,-6) scale(1,1)"><g><path fill="none" stroke="none"></path><text fill="#000000" stroke="none" font-family="Arial" font-size="13px" font-style="normal" font-weight="normal" text-decoration="none" x="768.1962890625" y="265">{IRI="food-ricotta:DenominazioneRicotta"}</text></g></g><g transform="translate(-5,-6) scale(1,1)"><path fill="none" stroke="#000000" d="M 177 251 L 763 251" stroke-miterlimit="10"></path></g><g transform="translate(-5,-6) scale(1,1)"><g><path fill="none" stroke="none"></path><text fill="#000000" stroke="none" font-family="Arial" font-size="13px" font-style="normal" font-weight="normal" text-decoration="none" x="409.5" y="267">+hasProtectedName</text></g></g><g transform="translate(-5,-6) scale(1,1)"><g><path fill="none" stroke="none"></path><text fill="#000000" stroke="none" font-family="Arial" font-size="13px" font-style="normal" font-weight="normal" text-decoration="none" x="363.5" y="282">{IRI="food-upper:haDenominazione"}</text></g></g><g transform="translate(-5,-6) scale(1,1)"><g><path fill="none" stroke="none"></path><text fill="#000000" stroke="none" font-family="Arial" font-size="13px" font-style="normal" font-weight="normal" text-decoration="none" x="183.5" y="243">0..1</text></g></g><g transform="translate(-5,-6) scale(1,1)"><g><path fill="none" stroke="none"></path><text fill="#000000" stroke="none" font-family="Arial" font-size="13px" font-style="normal" font-weight="normal" text-decoration="none" x="730.5" y="242">0..1</text></g></g><g transform="translate(-5,-6) scale(1,1)"><path fill="none" stroke="#000000" d="M 1015 259 L 1032 259 L 1032 152 L 731 152 L 731 105" stroke-miterlimit="10"></path></g><g transform="translate(-5,-6) scale(1,1)"><path fill="#FFFFFF" stroke="none" d="M 739.419035512032 125.32534971524831 L 731 105 L 722.580964487968 125.32534971524831"></path></g><g transform="translate(-5,-6) scale(1,1)"><path fill="none" stroke="#000000" d="M 739.419035512032 125.32534971524831 L 731 105 L 722.580964487968 125.32534971524831 L 739.419035512032 125.32534971524831" stroke-miterlimit="10"></path></g><g transform="translate(-5,-6) scale(1,1)"><path fill="none" stroke="#000000" d="M 56 232 L 56 152 L 112 152 L 112 107" stroke-miterlimit="10"></path></g><g transform="translate(-5,-6) scale(1,1)"><path fill="#FFFFFF" stroke="none" d="M 120.41903551203198 127.32534971524831 L 112 107 L 103.58096448796803 127.32534971524831"></path></g><g transform="translate(-5,-6) scale(1,1)"><path fill="none" stroke="#000000" d="M 120.41903551203198 127.32534971524831 L 112 107 L 103.58096448796803 127.32534971524831 L 120.41903551203198 127.32534971524831" stroke-miterlimit="10"></path></g><g transform="translate(-5,-6) scale(1,1)"><g><path fill="none" stroke="none"></path><text fill="#000000" stroke="none" font-family="Arial" font-size="13px" font-style="normal" font-weight="normal" text-decoration="none" x="133" y="143">{disjoint, incomplete}</text></g></g><g transform="translate(-5,-6) scale(1,1)"><path fill="none" stroke="#000000" d="M 136 232 L 136 168 L 304 168 L 304 105" stroke-miterlimit="10"></path></g><g transform="translate(-5,-6) scale(1,1)"><path fill="#FFFFFF" stroke="none" d="M 312.419035512032 125.32534971524831 L 304 105 L 295.580964487968 125.32534971524831"></path></g><g transform="translate(-5,-6) scale(1,1)"><path fill="none" stroke="#000000" d="M 312.419035512032 125.32534971524831 L 304 105 L 295.580964487968 125.32534971524831 L 312.419035512032 125.32534971524831" stroke-miterlimit="10"></path></g><g transform="translate(-5,-6) scale(1,1)"><path fill="none" stroke="#000000" d="M 469 251 L 456 251 L 456 86 L 530 86" stroke-miterlimit="10" stroke-dasharray="3"></path></g><g transform="translate(-5,-6) scale(1,1)"><g><path fill="none" stroke="none"></path><text fill="#000000" stroke="none" font-family="Arial" font-size="13px" font-style="normal" font-weight="normal" text-decoration="none" x="461" y="143">{subset}</text></g></g><g transform="translate(-5,-6) scale(1,1)"><g><path fill="none" stroke="none"></path><text fill="#000000" stroke="none" font-family="Arial" font-size="13px" font-style="normal" font-weight="normal" text-decoration="none" x="309" y="159">{disjoint, incomplete}</text></g></g><g transform="translate(-5,-6) scale(1,1)"><g><path fill="none" stroke="none"></path><text fill="#000000" stroke="none" font-family="Arial" font-size="13px" font-style="normal" font-weight="normal" text-decoration="none" x="741" y="143">{disjoint, incomplete}</text></g></g></g></svg>