<svg version="1.1" xmlns="http://www.w3.org/2000/svg" xmlns:xlink="http://www.w3.org/1999/xlink" width="1086.330078125" height="389"><defs></defs><g><g transform="translate(-284,-168) scale(1,1)"><rect fill="#ffffff" stroke="none" x="622" y="508" width="198.541015625" height="39"></rect></g><g transform="translate(-284,-168) scale(1,1)"><path fill="none" stroke="#000000" d="M 622 508 L 820.541015625 508 L 820.541015625 547 L 622 547 L 622 508 Z Z" stroke-miterlimit="10"></path></g><g transform="translate(-284,-168) scale(1,1)"><g><path fill="none" stroke="none"></path><text fill="#000000" stroke="none" font-family="Arial" font-size="13px" font-style="normal" font-weight="bold" text-decoration="none" x="698.14599609375" y="526">Cheese</text></g></g><g transform="translate(-284,-168) scale(1,1)"><g><path fill="none" stroke="none"></path><text fill="#000000" stroke="none" font-family="Arial" font-size="13px" font-style="normal" font-weight="normal" text-decoration="none" x="626" y="541">{IRI="obo:FOODON_00001013"}</text></g></g><g transform="translate(-284,-168) scale(1,1)"><rect fill="#ffffff" stroke="none" x="598" y="399" width="235.55419921875" height="47"></rect></g><g transform="translate(-284,-168) scale(1,1)"><path fill="none" stroke="#000000" d="M 598 399 L 833.55419921875 399 L 833.55419921875 446 L 598 446 L 598 399 Z Z" stroke-miterlimit="10"></path></g><g transform="translate(-284,-168) scale(1,1)"><path fill="none" stroke="#000000" d="M 598 424 L 833.55419921875 424" stroke-miterlimit="10"></path></g><g transform="translate(-284,-168) scale(1,1)"><g><path fill="none" stroke="none"></path><text fill="#000000" stroke="none" font-family="Arial" font-size="13px" font-style="normal" font-weight="bold" text-decoration="none" x="697.36572265625" y="417">Aging</text></g></g><g transform="translate(-284,-168) scale(1,1)"><g><path fill="none" stroke="none"></path><text fill="#000000" stroke="none" font-family="Arial" font-size="13px" font-style="normal" font-weight="normal" text-decoration="none" x="603" y="440">+hasAgingDuration: xsd:positiveInteger</text></g></g><g transform="translate(-284,-168) scale(1,1)"><path fill="none" stroke="#000000" d="M 718 508 L 718 446" stroke-miterlimit="10"></path></g><g transform="translate(-284,-168) scale(1,1)"><g><path fill="none" stroke="none"></path><text fill="#000000" stroke="none" font-family="Arial" font-size="13px" font-style="normal" font-weight="normal" text-decoration="none" x="724.5" y="477">+hasAging</text></g></g><g transform="translate(-284,-168) scale(1,1)"><g><path fill="none" stroke="none"></path><text fill="#000000" stroke="none" font-family="Arial" font-size="13px" font-style="normal" font-weight="normal" text-decoration="none" x="701.220458984375" y="498">*</text></g></g><g transform="translate(-284,-168) scale(1,1)"><g><path fill="none" stroke="none"></path><text fill="#000000" stroke="none" font-family="Arial" font-size="13px" font-style="normal" font-weight="normal" text-decoration="none" x="693.5" y="466">0..1</text></g></g><g transform="translate(-284,-168) scale(1,1)"><rect fill="#ffffff" stroke="none" x="470" y="395" width="87.7490234375" height="24"></rect></g><g transform="translate(-284,-168) scale(1,1)"><path fill="none" stroke="#000000" d="M 470 395 L 557.7490234375 395 L 557.7490234375 419 L 470 419 L 470 395 Z Z" stroke-miterlimit="10"></path></g><g transform="translate(-284,-168) scale(1,1)"><g><path fill="none" stroke="none"></path><text fill="#000000" stroke="none" font-family="Arial" font-size="13px" font-style="normal" font-weight="bold" text-decoration="none" x="474.5" y="413">AgedCheese</text></g></g><g transform="translate(-284,-168) scale(1,1)"><path fill="none" stroke="#000000" d="M 510 419 L 510 435 L 462 435 L 462 459 L 646 459 L 646 508" stroke-miterlimit="10"></path></g><g transform="translate(-284,-168) scale(1,1)"><path fill="#FFFFFF" stroke="none" d="M 637.580964487968 487.6746502847517 L 646 508 L 654.419035512032 487.6746502847517"></path></g><g transform="translate(-284,-168) scale(1,1)"><path fill="none" stroke="#000000" d="M 637.580964487968 487.6746502847517 L 646 508 L 654.419035512032 487.6746502847517 L 637.580964487968 487.6746502847517" stroke-miterlimit="10"></path></g><g transform="translate(-284,-168) scale(1,1)"><path fill="none" stroke="#000000" d="M 513 395 L 513 371 L 670 371 L 670 399" stroke-miterlimit="10" stroke-dasharray="3"></path></g><g transform="translate(-284,-168) scale(1,1)"><path fill="none" stroke="#000000" d="M 665.790482243984 388.83732514237585 L 670 399 L 674.209517756016 388.83732514237585" stroke-miterlimit="10"></path></g><g transform="translate(-284,-168) scale(1,1)"><g><path fill="none" stroke="none"></path><text fill="#000000" stroke="none" font-family="Arial" font-size="13px" font-style="normal" font-weight="normal" text-decoration="none" x="558.5" y="365">+hasAging</text></g></g><g transform="translate(-284,-168) scale(1,1)"><rect fill="#ffffff" stroke="none" x="358" y="395" width="90.64990234375" height="24"></rect></g><g transform="translate(-284,-168) scale(1,1)"><path fill="none" stroke="#000000" d="M 358 395 L 448.64990234375 395 L 448.64990234375 419 L 358 419 L 358 395 Z Z" stroke-miterlimit="10"></path></g><g transform="translate(-284,-168) scale(1,1)"><g><path fill="none" stroke="none"></path><text fill="#000000" stroke="none" font-family="Arial" font-size="13px" font-style="normal" font-weight="bold" text-decoration="none" x="362.5" y="413">FreshCheese</text></g></g><g transform="translate(-284,-168) scale(1,1)"><path fill="none" stroke="#000000" d="M 406 419 L 406 435 L 462 435 L 462 459 L 646 459 L 646 508" stroke-miterlimit="10"></path></g><g transform="translate(-284,-168) scale(1,1)"><path fill="#FFFFFF" stroke="none" d="M 637.580964487968 487.6746502847517 L 646 508 L 654.419035512032 487.6746502847517"></path></g><g transform="translate(-284,-168) scale(1,1)"><path fill="none" stroke="#000000" d="M 637.580964487968 487.6746502847517 L 646 508 L 654.419035512032 487.6746502847517 L 637.580964487968 487.6746502847517" stroke-miterlimit="10"></path></g><g transform="translate(-284,-168) scale(1,1)"><g><path fill="none" stroke="none"></path><text fill="#000000" stroke="none" font-family="Arial" font-size="13px" font-style="normal" font-weight="normal" text-decoration="none" x="517" y="474">{disjoint, incomplete}</text></g></g><g transform="translate(-284,-168) scale(1,1)"><rect fill="#ffffff" stroke="none" x="894" y="399" width="253.61962890625" height="47"></rect></g><g transform="translate(-284,-168) scale(1,1)"><path fill="none" stroke="#000000" d="M 894 399 L 1147.61962890625 399 L 1147.61962890625 446 L 894 446 L 894 399 Z Z" stroke-miterlimit="10"></path></g><g transform="translate(-284,-168) scale(1,1)"><path fill="none" stroke="#000000" d="M 894 424 L 1147.61962890625 424" stroke-miterlimit="10"></path></g><g transform="translate(-284,-168) scale(1,1)"><g><path fill="none" stroke="none"></path><text fill="#000000" stroke="none" font-family="Arial" font-size="13px" font-style="normal" font-weight="bold" text-decoration="none" x="993.007080078125" y="417">Ripening</text></g></g><g transform="translate(-284,-168) scale(1,1)"><g><path fill="none" stroke="none"></path><text fill="#000000" stroke="none" font-family="Arial" font-size="13px" font-style="normal" font-weight="normal" text-decoration="none" x="899" y="440">+hasRipeningDuration: xsd:positiveInteger</text></g></g><g transform="translate(-284,-168) scale(1,1)"><rect fill="#ffffff" stroke="none" x="758" y="182" width="44.40087890625" height="24"></rect></g><g transform="translate(-284,-168) scale(1,1)"><path fill="none" stroke="#000000" d="M 758 182 L 802.40087890625 182 L 802.40087890625 206 L 758 206 L 758 182 Z Z" stroke-miterlimit="10"></path></g><g transform="translate(-284,-168) scale(1,1)"><g><path fill="none" stroke="none"></path><text fill="#000000" stroke="none" font-family="Arial" font-size="13px" font-style="normal" font-weight="bold" text-decoration="none" x="762.5" y="200">Event</text></g></g><g transform="translate(-284,-168) scale(1,1)"><path fill="none" stroke="#000000" d="M 758 399 L 758 371 L 782 371 L 782 206" stroke-miterlimit="10"></path></g><g transform="translate(-284,-168) scale(1,1)"><path fill="#FFFFFF" stroke="none" d="M 790.419035512032 226.3253497152483 L 782 206 L 773.580964487968 226.3253497152483"></path></g><g transform="translate(-284,-168) scale(1,1)"><path fill="none" stroke="#000000" d="M 790.419035512032 226.3253497152483 L 782 206 L 773.580964487968 226.3253497152483 L 790.419035512032 226.3253497152483" stroke-miterlimit="10"></path></g><g transform="translate(-284,-168) scale(1,1)"><path fill="none" stroke="#000000" d="M 1022 399 L 1022 371 L 782 371 L 782 206" stroke-miterlimit="10"></path></g><g transform="translate(-284,-168) scale(1,1)"><path fill="#FFFFFF" stroke="none" d="M 790.419035512032 226.3253497152483 L 782 206 L 773.580964487968 226.3253497152483"></path></g><g transform="translate(-284,-168) scale(1,1)"><path fill="none" stroke="#000000" d="M 790.419035512032 226.3253497152483 L 782 206 L 773.580964487968 226.3253497152483 L 790.419035512032 226.3253497152483" stroke-miterlimit="10"></path></g><g transform="translate(-284,-168) scale(1,1)"><rect fill="#ffffff" stroke="none" x="1038" y="182" width="88.45361328125" height="24"></rect></g><g transform="translate(-284,-168) scale(1,1)"><path fill="none" stroke="#000000" d="M 1038 182 L 1126.45361328125 182 L 1126.45361328125 206 L 1038 206 L 1038 182 Z Z" stroke-miterlimit="10"></path></g><g transform="translate(-284,-168) scale(1,1)"><g><path fill="none" stroke="none"></path><text fill="#000000" stroke="none" font-family="Arial" font-size="13px" font-style="normal" font-weight="bold" text-decoration="none" x="1042.5" y="200">Environment</text></g></g><g transform="translate(-284,-168) scale(1,1)"><rect fill="#ffffff" stroke="none" x="798" y="283" width="178.330078125" height="39"></rect></g><g transform="translate(-284,-168) scale(1,1)"><path fill="none" stroke="#000000" d="M 798 283 L 976.330078125 283 L 976.330078125 322 L 798 322 L 798 283 Z Z" stroke-miterlimit="10"></path></g><g transform="translate(-284,-168) scale(1,1)"><g><path fill="none" stroke="none"></path><text fill="#000000" stroke="none" font-family="Arial" font-size="13px" font-style="normal" font-weight="bold" text-decoration="none" x="871.6259765625" y="301">Cave</text></g></g><g transform="translate(-284,-168) scale(1,1)"><g><path fill="none" stroke="none"></path><text fill="#000000" stroke="none" font-family="Arial" font-size="13px" font-style="normal" font-weight="normal" text-decoration="none" x="802" y="316">{IRI="obo:ENVO_00000067"}</text></g></g><g transform="translate(-284,-168) scale(1,1)"><rect fill="#ffffff" stroke="none" x="990" y="283" width="178.330078125" height="39"></rect></g><g transform="translate(-284,-168) scale(1,1)"><path fill="none" stroke="#000000" d="M 990 283 L 1168.330078125 283 L 1168.330078125 322 L 990 322 L 990 283 Z Z" stroke-miterlimit="10"></path></g><g transform="translate(-284,-168) scale(1,1)"><g><path fill="none" stroke="none"></path><text fill="#000000" stroke="none" font-family="Arial" font-size="13px" font-style="normal" font-weight="bold" text-decoration="none" x="1070.859130859375" y="301">Pit</text></g></g><g transform="translate(-284,-168) scale(1,1)"><g><path fill="none" stroke="none"></path><text fill="#000000" stroke="none" font-family="Arial" font-size="13px" font-style="normal" font-weight="normal" text-decoration="none" x="994" y="316">{IRI="obo:ENVO_01001871"}</text></g></g><g transform="translate(-284,-168) scale(1,1)"><rect fill="#ffffff" stroke="none" x="1182" y="283" width="178.330078125" height="39"></rect></g><g transform="translate(-284,-168) scale(1,1)"><path fill="none" stroke="#000000" d="M 1182 283 L 1360.330078125 283 L 1360.330078125 322 L 1182 322 L 1182 283 Z Z" stroke-miterlimit="10"></path></g><g transform="translate(-284,-168) scale(1,1)"><g><path fill="none" stroke="none"></path><text fill="#000000" stroke="none" font-family="Arial" font-size="13px" font-style="normal" font-weight="bold" text-decoration="none" x="1233.96142578125" y="301">Refrigerator</text></g></g><g transform="translate(-284,-168) scale(1,1)"><g><path fill="none" stroke="none"></path><text fill="#000000" stroke="none" font-family="Arial" font-size="13px" font-style="normal" font-weight="normal" text-decoration="none" x="1186" y="316">{IRI="obo:ENVO_01000583"}</text></g></g><g transform="translate(-284,-168) scale(1,1)"><path fill="none" stroke="#000000" d="M 803 194 L 1037 194" stroke-miterlimit="10"></path></g><g transform="translate(-284,-168) scale(1,1)"><g><path fill="none" stroke="none"></path><text fill="#000000" stroke="none" font-family="Arial" font-size="13px" font-style="normal" font-weight="normal" text-decoration="none" x="846.5" y="190">+isLocatedInEnvironment</text></g></g><g transform="translate(-284,-168) scale(1,1)"><g><path fill="none" stroke="none"></path><text fill="#000000" stroke="none" font-family="Arial" font-size="13px" font-style="normal" font-weight="normal" text-decoration="none" x="821.812255859375" y="211">*</text></g></g><g transform="translate(-284,-168) scale(1,1)"><g><path fill="none" stroke="none"></path><text fill="#000000" stroke="none" font-family="Arial" font-size="13px" font-style="normal" font-weight="normal" text-decoration="none" x="1004.5" y="211">0..1</text></g></g><g transform="translate(-284,-168) scale(1,1)"><path fill="none" stroke="#000000" d="M 886 283 L 886 259 L 1078 259 L 1078 206" stroke-miterlimit="10"></path></g><g transform="translate(-284,-168) scale(1,1)"><path fill="#FFFFFF" stroke="none" d="M 1086.419035512032 226.3253497152483 L 1078 206 L 1069.580964487968 226.3253497152483"></path></g><g transform="translate(-284,-168) scale(1,1)"><path fill="none" stroke="#000000" d="M 1086.419035512032 226.3253497152483 L 1078 206 L 1069.580964487968 226.3253497152483 L 1086.419035512032 226.3253497152483" stroke-miterlimit="10"></path></g><g transform="translate(-284,-168) scale(1,1)"><path fill="none" stroke="#000000" d="M 1078 283 L 1078 206" stroke-miterlimit="10"></path></g><g transform="translate(-284,-168) scale(1,1)"><path fill="#FFFFFF" stroke="none" d="M 1086.419035512032 226.3253497152483 L 1078 206 L 1069.580964487968 226.3253497152483"></path></g><g transform="translate(-284,-168) scale(1,1)"><path fill="none" stroke="#000000" d="M 1086.419035512032 226.3253497152483 L 1078 206 L 1069.580964487968 226.3253497152483 L 1086.419035512032 226.3253497152483" stroke-miterlimit="10"></path></g><g transform="translate(-284,-168) scale(1,1)"><path fill="none" stroke="#000000" d="M 1270 283 L 1270 259 L 1078 259 L 1078 206" stroke-miterlimit="10"></path></g><g transform="translate(-284,-168) scale(1,1)"><path fill="#FFFFFF" stroke="none" d="M 1086.419035512032 226.3253497152483 L 1078 206 L 1069.580964487968 226.3253497152483"></path></g><g transform="translate(-284,-168) scale(1,1)"><path fill="none" stroke="#000000" d="M 1086.419035512032 226.3253497152483 L 1078 206 L 1069.580964487968 226.3253497152483 L 1086.419035512032 226.3253497152483" stroke-miterlimit="10"></path></g><g transform="translate(-284,-168) scale(1,1)"><rect fill="#ffffff" stroke="none" x="294" y="182" width="167.48828125" height="39"></rect></g><g transform="translate(-284,-168) scale(1,1)"><path fill="none" stroke="#000000" d="M 294 182 L 461.48828125 182 L 461.48828125 221 L 294 221 L 294 182 Z Z" stroke-miterlimit="10"></path></g><g transform="translate(-284,-168) scale(1,1)"><g><path fill="none" stroke="none"></path><text fill="#000000" stroke="none" font-family="Arial" font-size="13px" font-style="normal" font-weight="bold" text-decoration="none" x="329.340087890625" y="200">PopulatedPlace</text></g></g><g transform="translate(-284,-168) scale(1,1)"><g><path fill="none" stroke="none"></path><text fill="#000000" stroke="none" font-family="Arial" font-size="13px" font-style="normal" font-weight="normal" text-decoration="none" x="298" y="215">{IRI="dbo:PopulatedPlace"}</text></g></g><g transform="translate(-284,-168) scale(1,1)"><path fill="none" stroke="#000000" d="M 758 195 L 461 195" stroke-miterlimit="10"></path></g><g transform="translate(-284,-168) scale(1,1)"><g><path fill="none" stroke="none"></path><text fill="#000000" stroke="none" font-family="Arial" font-size="13px" font-style="normal" font-weight="normal" text-decoration="none" x="554.944091796875" y="189">+hasTakenPlaceIn</text></g></g><g transform="translate(-284,-168) scale(1,1)"><g><path fill="none" stroke="none"></path><text fill="#000000" stroke="none" font-family="Arial" font-size="13px" font-style="normal" font-weight="normal" text-decoration="none" x="741.220458984375" y="214">*</text></g></g><g transform="translate(-284,-168) scale(1,1)"><g><path fill="none" stroke="none"></path><text fill="#000000" stroke="none" font-family="Arial" font-size="13px" font-style="normal" font-weight="normal" text-decoration="none" x="473.5" y="213">0..1</text></g></g><g transform="translate(-284,-168) scale(1,1)"><path fill="none" stroke="#000000" d="M 326 491 L 326 221" stroke-miterlimit="10"></path></g><g transform="translate(-284,-168) scale(1,1)"><g><path fill="none" stroke="none"></path><text fill="#000000" stroke="none" font-family="Arial" font-size="13px" font-style="normal" font-weight="normal" text-decoration="none" x="327.5" y="318">+isProducedIn</text></g></g><g transform="translate(-284,-168) scale(1,1)"><g><path fill="none" stroke="none"></path><text fill="#000000" stroke="none" font-family="Arial" font-size="13px" font-style="normal" font-weight="normal" text-decoration="none" x="335.220458984375" y="474">*</text></g></g><g transform="translate(-284,-168) scale(1,1)"><g><path fill="none" stroke="none"></path><text fill="#000000" stroke="none" font-family="Arial" font-size="13px" font-style="normal" font-weight="normal" text-decoration="none" x="293.5" y="239">0..1</text></g></g><g transform="translate(-284,-168) scale(1,1)"><path fill="none" stroke="#000000" d="M 798 508 L 798 475 L 1022 475 L 1022 446" stroke-miterlimit="10"></path></g><g transform="translate(-284,-168) scale(1,1)"><g><path fill="none" stroke="none"></path><text fill="#000000" stroke="none" font-family="Arial" font-size="13px" font-style="normal" font-weight="normal" text-decoration="none" x="870.5" y="465">+hasRipening</text></g></g><g transform="translate(-284,-168) scale(1,1)"><g><path fill="none" stroke="none"></path><text fill="#000000" stroke="none" font-family="Arial" font-size="13px" font-style="normal" font-weight="normal" text-decoration="none" x="807.470458984375" y="502">*</text></g></g><g transform="translate(-284,-168) scale(1,1)"><g><path fill="none" stroke="none"></path><text fill="#000000" stroke="none" font-family="Arial" font-size="13px" font-style="normal" font-weight="normal" text-decoration="none" x="1029.5" y="469">0..1</text></g></g><g transform="translate(-284,-168) scale(1,1)"><g><path fill="none" stroke="none"></path><text fill="#000000" stroke="none" font-family="Arial" font-size="13px" font-style="normal" font-weight="normal" text-decoration="none" x="787" y="362">{disjoint, complete}</text></g></g><g transform="translate(-284,-168) scale(1,1)"><g><path fill="none" stroke="none"></path><text fill="#000000" stroke="none" font-family="Arial" font-size="13px" font-style="normal" font-weight="normal" text-decoration="none" x="955" y="250">{disjoint, complete}</text></g></g><g transform="translate(-284,-168) scale(1,1)"><rect fill="#ffffff" stroke="none" x="374" y="235" width="91.34814453125" height="37"></rect></g><g transform="translate(-284,-168) scale(1,1)"><path fill="none" stroke="#000000" d="M 374 235 L 465.34814453125 235 L 465.34814453125 272 L 374 272 L 374 235 Z Z" stroke-miterlimit="10"></path></g><g transform="translate(-284,-168) scale(1,1)"><g><path fill="none" stroke="none"></path><text fill="#000000" stroke="none" font-family="Arial" font-size="13px" font-style="normal" font-weight="normal" text-decoration="none" x="388.59912109375" y="250.5">«property»</text></g></g><g transform="translate(-284,-168) scale(1,1)"><g><path fill="none" stroke="none"></path><text fill="#000000" stroke="none" font-family="Arial" font-size="13px" font-style="normal" font-weight="bold" text-decoration="none" x="378.5" y="266">isProducedIn</text></g></g><g transform="translate(-284,-168) scale(1,1)"><rect fill="#ffffff" stroke="none" x="598" y="235" width="113.533203125" height="37"></rect></g><g transform="translate(-284,-168) scale(1,1)"><path fill="none" stroke="#000000" d="M 598 235 L 711.533203125 235 L 711.533203125 272 L 598 272 L 598 235 Z Z" stroke-miterlimit="10"></path></g><g transform="translate(-284,-168) scale(1,1)"><g><path fill="none" stroke="none"></path><text fill="#000000" stroke="none" font-family="Arial" font-size="13px" font-style="normal" font-weight="normal" text-decoration="none" x="623.691650390625" y="250.5">«property»</text></g></g><g transform="translate(-284,-168) scale(1,1)"><g><path fill="none" stroke="none"></path><text fill="#000000" stroke="none" font-family="Arial" font-size="13px" font-style="normal" font-weight="bold" text-decoration="none" x="602.5" y="266">hasTakenPlaceIn</text></g></g><g transform="translate(-284,-168) scale(1,1)"><rect fill="#ffffff" stroke="none" x="422" y="331" width="81.236328125" height="37"></rect></g><g transform="translate(-284,-168) scale(1,1)"><path fill="none" stroke="#000000" d="M 422 331 L 503.236328125 331 L 503.236328125 368 L 422 368 L 422 331 Z Z" stroke-miterlimit="10"></path></g><g transform="translate(-284,-168) scale(1,1)"><g><path fill="none" stroke="none"></path><text fill="#000000" stroke="none" font-family="Arial" font-size="13px" font-style="normal" font-weight="normal" text-decoration="none" x="431.543212890625" y="346.5">«property»</text></g></g><g transform="translate(-284,-168) scale(1,1)"><g><path fill="none" stroke="none"></path><text fill="#000000" stroke="none" font-family="Arial" font-size="13px" font-style="normal" font-weight="bold" text-decoration="none" x="426.5" y="362">isLocatedIn</text></g></g><g transform="translate(-284,-168) scale(1,1)"><path fill="none" stroke="#000000" d="M 373 245 L 326 245 L 326 355" stroke-miterlimit="10" stroke-dasharray="3"></path></g><g transform="translate(-284,-168) scale(1,1)"><path fill="none" stroke="#000000" d="M 654 234 L 654 195 L 610 195" stroke-miterlimit="10" stroke-dasharray="3"></path></g><g transform="translate(-284,-168) scale(1,1)"><path fill="none" stroke="#000000" d="M 414 272 L 414 291 L 462 291 L 462 331" stroke-miterlimit="10"></path></g><g transform="translate(-284,-168) scale(1,1)"><path fill="#FFFFFF" stroke="none" d="M 453.580964487968 310.6746502847517 L 462 331 L 470.419035512032 310.6746502847517"></path></g><g transform="translate(-284,-168) scale(1,1)"><path fill="none" stroke="#000000" d="M 453.580964487968 310.6746502847517 L 462 331 L 470.419035512032 310.6746502847517 L 453.580964487968 310.6746502847517" stroke-miterlimit="10"></path></g><g transform="translate(-284,-168) scale(1,1)"><path fill="none" stroke="#000000" d="M 654 272 L 654 291 L 462 291 L 462 331" stroke-miterlimit="10"></path></g><g transform="translate(-284,-168) scale(1,1)"><path fill="#FFFFFF" stroke="none" d="M 453.580964487968 310.6746502847517 L 462 331 L 470.419035512032 310.6746502847517"></path></g><g transform="translate(-284,-168) scale(1,1)"><path fill="none" stroke="#000000" d="M 453.580964487968 310.6746502847517 L 462 331 L 470.419035512032 310.6746502847517 L 453.580964487968 310.6746502847517" stroke-miterlimit="10"></path></g><g transform="translate(-284,-168) scale(1,1)"><g><path fill="none" stroke="none"></path><text fill="#000000" stroke="none" font-family="Arial" font-size="13px" font-style="normal" font-weight="normal" text-decoration="none" x="467" y="282">{disjoint, incomplete}</text></g></g><g transform="translate(-284,-168) scale(1,1)"><rect fill="#ffffff" stroke="none" x="294" y="491" width="198.541015625" height="39"></rect></g><g transform="translate(-284,-168) scale(1,1)"><path fill="none" stroke="#000000" d="M 294 491 L 492.541015625 491 L 492.541015625 530 L 294 530 L 294 491 Z Z" stroke-miterlimit="10"></path></g><g transform="translate(-284,-168) scale(1,1)"><g><path fill="none" stroke="none"></path><text fill="#000000" stroke="none" font-family="Arial" font-size="13px" font-style="normal" font-weight="bold" text-decoration="none" x="377.388671875" y="509">Food</text></g></g><g transform="translate(-284,-168) scale(1,1)"><g><path fill="none" stroke="none"></path><text fill="#000000" stroke="none" font-family="Arial" font-size="13px" font-style="normal" font-weight="normal" text-decoration="none" x="298" y="524">{IRI="obo:FOODON_00002403"}</text></g></g><g transform="translate(-284,-168) scale(1,1)"><path fill="none" stroke="#000000" d="M 622 522 L 493 522" stroke-miterlimit="10"></path></g><g transform="translate(-284,-168) scale(1,1)"><path fill="#FFFFFF" stroke="none" d="M 513.3253497152483 513.580964487968 L 493 522 L 513.3253497152483 530.419035512032"></path></g><g transform="translate(-284,-168) scale(1,1)"><path fill="none" stroke="#000000" d="M 513.3253497152483 513.580964487968 L 493 522 L 513.3253497152483 530.419035512032 L 513.3253497152483 513.580964487968" stroke-miterlimit="10"></path></g></g></svg>