<svg version="1.1" xmlns="http://www.w3.org/2000/svg" xmlns:xlink="http://www.w3.org/1999/xlink" width="873.61962890625" height="283"><defs></defs><g><g transform="translate(-398,-502) scale(1,1)"><rect fill="#ffffff" stroke="none" x="736" y="736" width="198.541015625" height="39"></rect></g><g transform="translate(-398,-502) scale(1,1)"><path fill="none" stroke="#000000" d="M 736 736 L 934.541015625 736 L 934.541015625 775 L 736 775 L 736 736 Z Z" stroke-miterlimit="10"></path></g><g transform="translate(-398,-502) scale(1,1)"><g><path fill="none" stroke="none"></path><text fill="#000000" stroke="none" font-family="Arial" font-size="13px" font-style="normal" font-weight="bold" text-decoration="none" x="812.14599609375" y="753.5">Cheese</text></g></g><g transform="translate(-398,-502) scale(1,1)"><g><path fill="none" stroke="none"></path><text fill="#000000" stroke="none" font-family="Arial" font-size="13px" font-style="normal" font-weight="normal" text-decoration="none" x="740" y="768.5">{IRI="obo:FOODON_00001013"}</text></g></g><g transform="translate(-398,-502) scale(1,1)"><rect fill="#ffffff" stroke="none" x="712" y="627" width="235.55419921875" height="47"></rect></g><g transform="translate(-398,-502) scale(1,1)"><path fill="none" stroke="#000000" d="M 712 627 L 947.55419921875 627 L 947.55419921875 674 L 712 674 L 712 627 Z Z" stroke-miterlimit="10"></path></g><g transform="translate(-398,-502) scale(1,1)"><path fill="none" stroke="#000000" d="M 712 652 L 947.55419921875 652" stroke-miterlimit="10"></path></g><g transform="translate(-398,-502) scale(1,1)"><g><path fill="none" stroke="none"></path><text fill="#000000" stroke="none" font-family="Arial" font-size="13px" font-style="normal" font-weight="bold" text-decoration="none" x="811.36572265625" y="644.5">Aging</text></g></g><g transform="translate(-398,-502) scale(1,1)"><g><path fill="none" stroke="none"></path><text fill="#000000" stroke="none" font-family="Arial" font-size="13px" font-style="normal" font-weight="normal" text-decoration="none" x="717" y="667.5">+hasAgingDuration: xsd:positiveInteger</text></g></g><g transform="translate(-398,-502) scale(1,1)"><path fill="none" stroke="#000000" d="M 832 736 L 832 674" stroke-miterlimit="10"></path></g><g transform="translate(-398,-502) scale(1,1)"><g><path fill="none" stroke="none"></path><text fill="#000000" stroke="none" font-family="Arial" font-size="13px" font-style="normal" font-weight="normal" text-decoration="none" x="838.5" y="704.5">+hasAging</text></g></g><g transform="translate(-398,-502) scale(1,1)"><g><path fill="none" stroke="none"></path><text fill="#000000" stroke="none" font-family="Arial" font-size="13px" font-style="normal" font-weight="normal" text-decoration="none" x="815.220458984375" y="725.5">*</text></g></g><g transform="translate(-398,-502) scale(1,1)"><g><path fill="none" stroke="none"></path><text fill="#000000" stroke="none" font-family="Arial" font-size="13px" font-style="normal" font-weight="normal" text-decoration="none" x="807.5" y="693.5">0..1</text></g></g><g transform="translate(-398,-502) scale(1,1)"><rect fill="#ffffff" stroke="none" x="584" y="623" width="87.7490234375" height="24"></rect></g><g transform="translate(-398,-502) scale(1,1)"><path fill="none" stroke="#000000" d="M 584 623 L 671.7490234375 623 L 671.7490234375 647 L 584 647 L 584 623 Z Z" stroke-miterlimit="10"></path></g><g transform="translate(-398,-502) scale(1,1)"><g><path fill="none" stroke="none"></path><text fill="#000000" stroke="none" font-family="Arial" font-size="13px" font-style="normal" font-weight="bold" text-decoration="none" x="588.5" y="640.5">AgedCheese</text></g></g><g transform="translate(-398,-502) scale(1,1)"><path fill="none" stroke="#000000" d="M 624 647 L 624 663 L 576 663 L 576 687 L 760 687 L 760 736" stroke-miterlimit="10"></path></g><g transform="translate(-398,-502) scale(1,1)"><path fill="#FFFFFF" stroke="none" d="M 751.580964487968 715.6746502847517 L 760 736 L 768.419035512032 715.6746502847517"></path></g><g transform="translate(-398,-502) scale(1,1)"><path fill="none" stroke="#000000" d="M 751.580964487968 715.6746502847517 L 760 736 L 768.419035512032 715.6746502847517 L 751.580964487968 715.6746502847517" stroke-miterlimit="10"></path></g><g transform="translate(-398,-502) scale(1,1)"><path fill="none" stroke="#000000" d="M 627 623 L 627 599 L 784 599 L 784 627" stroke-miterlimit="10" stroke-dasharray="3"></path></g><g transform="translate(-398,-502) scale(1,1)"><path fill="none" stroke="#000000" d="M 779.790482243984 616.8373251423759 L 784 627 L 788.209517756016 616.8373251423759" stroke-miterlimit="10"></path></g><g transform="translate(-398,-502) scale(1,1)"><g><path fill="none" stroke="none"></path><text fill="#000000" stroke="none" font-family="Arial" font-size="13px" font-style="normal" font-weight="normal" text-decoration="none" x="672.5" y="592.5">+hasAging</text></g></g><g transform="translate(-398,-502) scale(1,1)"><rect fill="#ffffff" stroke="none" x="472" y="623" width="90.64990234375" height="24"></rect></g><g transform="translate(-398,-502) scale(1,1)"><path fill="none" stroke="#000000" d="M 472 623 L 562.64990234375 623 L 562.64990234375 647 L 472 647 L 472 623 Z Z" stroke-miterlimit="10"></path></g><g transform="translate(-398,-502) scale(1,1)"><g><path fill="none" stroke="none"></path><text fill="#000000" stroke="none" font-family="Arial" font-size="13px" font-style="normal" font-weight="bold" text-decoration="none" x="476.5" y="640.5">FreshCheese</text></g></g><g transform="translate(-398,-502) scale(1,1)"><path fill="none" stroke="#000000" d="M 520 647 L 520 663 L 576 663 L 576 687 L 760 687 L 760 736" stroke-miterlimit="10"></path></g><g transform="translate(-398,-502) scale(1,1)"><path fill="#FFFFFF" stroke="none" d="M 751.580964487968 715.6746502847517 L 760 736 L 768.419035512032 715.6746502847517"></path></g><g transform="translate(-398,-502) scale(1,1)"><path fill="none" stroke="#000000" d="M 751.580964487968 715.6746502847517 L 760 736 L 768.419035512032 715.6746502847517 L 751.580964487968 715.6746502847517" stroke-miterlimit="10"></path></g><g transform="translate(-398,-502) scale(1,1)"><g><path fill="none" stroke="none"></path><text fill="#000000" stroke="none" font-family="Arial" font-size="13px" font-style="normal" font-weight="normal" text-decoration="none" x="645" y="701">{disjoint, complete}</text></g></g><g transform="translate(-398,-502) scale(1,1)"><rect fill="#ffffff" stroke="none" x="1008" y="627" width="253.61962890625" height="47"></rect></g><g transform="translate(-398,-502) scale(1,1)"><path fill="none" stroke="#000000" d="M 1008 627 L 1261.61962890625 627 L 1261.61962890625 674 L 1008 674 L 1008 627 Z Z" stroke-miterlimit="10"></path></g><g transform="translate(-398,-502) scale(1,1)"><path fill="none" stroke="#000000" d="M 1008 652 L 1261.61962890625 652" stroke-miterlimit="10"></path></g><g transform="translate(-398,-502) scale(1,1)"><g><path fill="none" stroke="none"></path><text fill="#000000" stroke="none" font-family="Arial" font-size="13px" font-style="normal" font-weight="bold" text-decoration="none" x="1107.007080078125" y="644.5">Ripening</text></g></g><g transform="translate(-398,-502) scale(1,1)"><g><path fill="none" stroke="none"></path><text fill="#000000" stroke="none" font-family="Arial" font-size="13px" font-style="normal" font-weight="normal" text-decoration="none" x="1013" y="667.5">+hasRipeningDuration: xsd:positiveInteger</text></g></g><g transform="translate(-398,-502) scale(1,1)"><rect fill="#ffffff" stroke="none" x="976" y="512" width="44.40087890625" height="24"></rect></g><g transform="translate(-398,-502) scale(1,1)"><path fill="none" stroke="#000000" d="M 976 512 L 1020.40087890625 512 L 1020.40087890625 536 L 976 536 L 976 512 Z Z" stroke-miterlimit="10"></path></g><g transform="translate(-398,-502) scale(1,1)"><g><path fill="none" stroke="none"></path><text fill="#000000" stroke="none" font-family="Arial" font-size="13px" font-style="normal" font-weight="bold" text-decoration="none" x="980.5" y="529.5">Event</text></g></g><g transform="translate(-398,-502) scale(1,1)"><path fill="none" stroke="#000000" d="M 872 627 L 872 599 L 1000 599 L 1000 536" stroke-miterlimit="10"></path></g><g transform="translate(-398,-502) scale(1,1)"><path fill="#FFFFFF" stroke="none" d="M 1008.419035512032 556.3253497152483 L 1000 536 L 991.580964487968 556.3253497152483"></path></g><g transform="translate(-398,-502) scale(1,1)"><path fill="none" stroke="#000000" d="M 1008.419035512032 556.3253497152483 L 1000 536 L 991.580964487968 556.3253497152483 L 1008.419035512032 556.3253497152483" stroke-miterlimit="10"></path></g><g transform="translate(-398,-502) scale(1,1)"><path fill="none" stroke="#000000" d="M 1120 627 L 1120 599 L 1000 599 L 1000 536" stroke-miterlimit="10"></path></g><g transform="translate(-398,-502) scale(1,1)"><path fill="#FFFFFF" stroke="none" d="M 1008.419035512032 556.3253497152483 L 1000 536 L 991.580964487968 556.3253497152483"></path></g><g transform="translate(-398,-502) scale(1,1)"><path fill="none" stroke="#000000" d="M 1008.419035512032 556.3253497152483 L 1000 536 L 991.580964487968 556.3253497152483 L 1008.419035512032 556.3253497152483" stroke-miterlimit="10"></path></g><g transform="translate(-398,-502) scale(1,1)"><path fill="none" stroke="#000000" d="M 912 736 L 912 703 L 1136 703 L 1136 674" stroke-miterlimit="10"></path></g><g transform="translate(-398,-502) scale(1,1)"><g><path fill="none" stroke="none"></path><text fill="#000000" stroke="none" font-family="Arial" font-size="13px" font-style="normal" font-weight="normal" text-decoration="none" x="984.5" y="692.5">+hasRipening</text></g></g><g transform="translate(-398,-502) scale(1,1)"><g><path fill="none" stroke="none"></path><text fill="#000000" stroke="none" font-family="Arial" font-size="13px" font-style="normal" font-weight="normal" text-decoration="none" x="921.470458984375" y="729.5">*</text></g></g><g transform="translate(-398,-502) scale(1,1)"><g><path fill="none" stroke="none"></path><text fill="#000000" stroke="none" font-family="Arial" font-size="13px" font-style="normal" font-weight="normal" text-decoration="none" x="1143.5" y="696.5">0..1</text></g></g><g transform="translate(-398,-502) scale(1,1)"><g><path fill="none" stroke="none"></path><text fill="#000000" stroke="none" font-family="Arial" font-size="13px" font-style="normal" font-weight="normal" text-decoration="none" x="877" y="589">{disjoint, complete}</text></g></g><g transform="translate(-398,-502) scale(1,1)"><rect fill="#ffffff" stroke="none" x="408" y="728" width="198.541015625" height="39"></rect></g><g transform="translate(-398,-502) scale(1,1)"><path fill="none" stroke="#000000" d="M 408 728 L 606.541015625 728 L 606.541015625 767 L 408 767 L 408 728 Z Z" stroke-miterlimit="10"></path></g><g transform="translate(-398,-502) scale(1,1)"><g><path fill="none" stroke="none"></path><text fill="#000000" stroke="none" font-family="Arial" font-size="13px" font-style="normal" font-weight="bold" text-decoration="none" x="491.388671875" y="745.5">Food</text></g></g><g transform="translate(-398,-502) scale(1,1)"><g><path fill="none" stroke="none"></path><text fill="#000000" stroke="none" font-family="Arial" font-size="13px" font-style="normal" font-weight="normal" text-decoration="none" x="412" y="760.5">{IRI="obo:FOODON_00002403"}</text></g></g><g transform="translate(-398,-502) scale(1,1)"><path fill="none" stroke="#000000" d="M 736 750 L 607 750" stroke-miterlimit="10"></path></g><g transform="translate(-398,-502) scale(1,1)"><path fill="#FFFFFF" stroke="none" d="M 627.3253497152483 741.580964487968 L 607 750 L 627.3253497152483 758.419035512032"></path></g><g transform="translate(-398,-502) scale(1,1)"><path fill="none" stroke="#000000" d="M 627.3253497152483 741.580964487968 L 607 750 L 627.3253497152483 758.419035512032 L 627.3253497152483 741.580964487968" stroke-miterlimit="10"></path></g></g></svg>