<svg version="1.1" xmlns="http://www.w3.org/2000/svg" xmlns:xlink="http://www.w3.org/1999/xlink" width="1291" height="725"><defs></defs><g><g transform="translate(8,-6) scale(1,1)"><rect fill="#ffffff" stroke="none" x="430" y="72" width="198.541015625" height="39"></rect></g><g transform="translate(8,-6) scale(1,1)"><path fill="none" stroke="#000000" d="M 430 72 L 628.541015625 72 L 628.541015625 111 L 430 111 L 430 72 Z Z" stroke-miterlimit="10"></path></g><g transform="translate(8,-6) scale(1,1)"><g><path fill="none" stroke="none"></path><text fill="#000000" stroke="none" font-family="Arial" font-size="13px" font-style="normal" font-weight="bold" text-decoration="none" x="506.14599609375" y="89.5">Cheese</text></g></g><g transform="translate(8,-6) scale(1,1)"><g><path fill="none" stroke="none"></path><text fill="#000000" stroke="none" font-family="Arial" font-size="13px" font-style="normal" font-weight="normal" text-decoration="none" x="434" y="104.5">{IRI="obo:FOODON_00001013"}</text></g></g><g transform="translate(8,-6) scale(1,1)"><rect fill="#ffffff" stroke="none" x="247" y="409" width="189.87646484375" height="39"></rect></g><g transform="translate(8,-6) scale(1,1)"><path fill="none" stroke="#000000" d="M 247 409 L 436.87646484375 409 L 436.87646484375 448 L 247 448 L 247 409 Z Z" stroke-miterlimit="10"></path></g><g transform="translate(8,-6) scale(1,1)"><g><path fill="none" stroke="none"></path><text fill="#000000" stroke="none" font-family="Arial" font-size="13px" font-style="normal" font-weight="bold" text-decoration="none" x="329.296875" y="426.5">Milk</text></g></g><g transform="translate(8,-6) scale(1,1)"><g><path fill="none" stroke="none"></path><text fill="#000000" stroke="none" font-family="Arial" font-size="13px" font-style="normal" font-weight="normal" text-decoration="none" x="251" y="441.5">{IRI="obo:UBERON_0001913"}</text></g></g><g transform="translate(8,-6) scale(1,1)"><rect fill="#ffffff" stroke="none" x="18" y="264" width="198.541015625" height="39"></rect></g><g transform="translate(8,-6) scale(1,1)"><path fill="none" stroke="#000000" d="M 18 264 L 216.541015625 264 L 216.541015625 303 L 18 303 L 18 264 Z Z" stroke-miterlimit="10"></path></g><g transform="translate(8,-6) scale(1,1)"><g><path fill="none" stroke="none"></path><text fill="#000000" stroke="none" font-family="Arial" font-size="13px" font-style="normal" font-weight="bold" text-decoration="none" x="90.90869140625" y="281.5">CowMilk</text></g></g><g transform="translate(8,-6) scale(1,1)"><g><path fill="none" stroke="none"></path><text fill="#000000" stroke="none" font-family="Arial" font-size="13px" font-style="normal" font-weight="normal" text-decoration="none" x="22" y="296.5">{IRI="obo:FOODON_00001771"}</text></g></g><g transform="translate(8,-6) scale(1,1)"><rect fill="#ffffff" stroke="none" x="296" y="264" width="196.611328125" height="39"></rect></g><g transform="translate(8,-6) scale(1,1)"><path fill="none" stroke="#000000" d="M 296 264 L 492.611328125 264 L 492.611328125 303 L 296 303 L 296 264 Z Z" stroke-miterlimit="10"></path></g><g transform="translate(8,-6) scale(1,1)"><g><path fill="none" stroke="none"></path><text fill="#000000" stroke="none" font-family="Arial" font-size="13px" font-style="normal" font-weight="bold" text-decoration="none" x="362.157958984375" y="281.5">SheepMilk</text></g></g><g transform="translate(8,-6) scale(1,1)"><g><path fill="none" stroke="none"></path><text fill="#000000" stroke="none" font-family="Arial" font-size="13px" font-style="normal" font-weight="normal" text-decoration="none" x="300" y="296.5">{IRI="obo:FOODON_00001112"}</text></g></g><g transform="translate(8,-6) scale(1,1)"><rect fill="#ffffff" stroke="none" x="568" y="264" width="197.576171875" height="39"></rect></g><g transform="translate(8,-6) scale(1,1)"><path fill="none" stroke="#000000" d="M 568 264 L 765.576171875 264 L 765.576171875 303 L 568 303 L 568 264 Z Z" stroke-miterlimit="10"></path></g><g transform="translate(8,-6) scale(1,1)"><g><path fill="none" stroke="none"></path><text fill="#000000" stroke="none" font-family="Arial" font-size="13px" font-style="normal" font-weight="bold" text-decoration="none" x="639.3408203125" y="281.5">GoatMilk</text></g></g><g transform="translate(8,-6) scale(1,1)"><g><path fill="none" stroke="none"></path><text fill="#000000" stroke="none" font-family="Arial" font-size="13px" font-style="normal" font-weight="normal" text-decoration="none" x="572" y="296.5">{IRI="obo:FOODON_00001911"}</text></g></g><g transform="translate(8,-6) scale(1,1)"><rect fill="#ffffff" stroke="none" x="840" y="264" width="197.576171875" height="39"></rect></g><g transform="translate(8,-6) scale(1,1)"><path fill="none" stroke="#000000" d="M 840 264 L 1037.576171875 264 L 1037.576171875 303 L 840 303 L 840 264 Z Z" stroke-miterlimit="10"></path></g><g transform="translate(8,-6) scale(1,1)"><g><path fill="none" stroke="none"></path><text fill="#000000" stroke="none" font-family="Arial" font-size="13px" font-style="normal" font-weight="bold" text-decoration="none" x="903.76171875" y="281.5">BuffaloMilk</text></g></g><g transform="translate(8,-6) scale(1,1)"><g><path fill="none" stroke="none"></path><text fill="#000000" stroke="none" font-family="Arial" font-size="13px" font-style="normal" font-weight="normal" text-decoration="none" x="844" y="296.5">{IRI="obo:FOODON_00001108"}</text></g></g><g transform="translate(8,-6) scale(1,1)"><rect fill="#ffffff" stroke="none" x="1128" y="264" width="71.12451171875" height="24"></rect></g><g transform="translate(8,-6) scale(1,1)"><path fill="none" stroke="#000000" d="M 1128 264 L 1199.12451171875 264 L 1199.12451171875 288 L 1128 288 L 1128 264 Z Z" stroke-miterlimit="10"></path></g><g transform="translate(8,-6) scale(1,1)"><g><path fill="none" stroke="none"></path><text fill="#000000" stroke="none" font-family="Arial" font-size="13px" font-style="normal" font-weight="bold" text-decoration="none" x="1132.5" y="281.5">MixedMilk</text></g></g><g transform="translate(8,-6) scale(1,1)"><rect fill="#ffffff" stroke="none" x="15" y="175" width="197.576171875" height="39"></rect></g><g transform="translate(8,-6) scale(1,1)"><path fill="none" stroke="#000000" d="M 15 175 L 212.576171875 175 L 212.576171875 214 L 15 214 L 15 175 Z Z" stroke-miterlimit="10"></path></g><g transform="translate(8,-6) scale(1,1)"><g><path fill="none" stroke="none"></path><text fill="#000000" stroke="none" font-family="Arial" font-size="13px" font-style="normal" font-weight="bold" text-decoration="none" x="76.943115234375" y="192.5">CowCheese</text></g></g><g transform="translate(8,-6) scale(1,1)"><g><path fill="none" stroke="none"></path><text fill="#000000" stroke="none" font-family="Arial" font-size="13px" font-style="normal" font-weight="normal" text-decoration="none" x="19" y="207.5">{IRI="obo:FOODON_00001126"}</text></g></g><g transform="translate(8,-6) scale(1,1)"><rect fill="#ffffff" stroke="none" x="288" y="175" width="197.576171875" height="39"></rect></g><g transform="translate(8,-6) scale(1,1)"><path fill="none" stroke="#000000" d="M 288 175 L 485.576171875 175 L 485.576171875 214 L 288 214 L 288 175 Z Z" stroke-miterlimit="10"></path></g><g transform="translate(8,-6) scale(1,1)"><g><path fill="none" stroke="none"></path><text fill="#000000" stroke="none" font-family="Arial" font-size="13px" font-style="normal" font-weight="bold" text-decoration="none" x="344.1572265625" y="192.5">SheepCheese</text></g></g><g transform="translate(8,-6) scale(1,1)"><g><path fill="none" stroke="none"></path><text fill="#000000" stroke="none" font-family="Arial" font-size="13px" font-style="normal" font-weight="normal" text-decoration="none" x="292" y="207.5">{IRI="obo:FOODON_00001125"}</text></g></g><g transform="translate(8,-6) scale(1,1)"><rect fill="#ffffff" stroke="none" x="568" y="176" width="197.576171875" height="39"></rect></g><g transform="translate(8,-6) scale(1,1)"><path fill="none" stroke="#000000" d="M 568 176 L 765.576171875 176 L 765.576171875 215 L 568 215 L 568 176 Z Z" stroke-miterlimit="10"></path></g><g transform="translate(8,-6) scale(1,1)"><g><path fill="none" stroke="none"></path><text fill="#000000" stroke="none" font-family="Arial" font-size="13px" font-style="normal" font-weight="bold" text-decoration="none" x="628.857666015625" y="193.5">GoatCheese</text></g></g><g transform="translate(8,-6) scale(1,1)"><g><path fill="none" stroke="none"></path><text fill="#000000" stroke="none" font-family="Arial" font-size="13px" font-style="normal" font-weight="normal" text-decoration="none" x="572" y="208.5">{IRI="obo:FOODON_00001124"}</text></g></g><g transform="translate(8,-6) scale(1,1)"><rect fill="#ffffff" stroke="none" x="872" y="176" width="100.01904296875" height="24"></rect></g><g transform="translate(8,-6) scale(1,1)"><path fill="none" stroke="#000000" d="M 872 176 L 972.01904296875 176 L 972.01904296875 200 L 872 200 L 872 176 Z Z" stroke-miterlimit="10"></path></g><g transform="translate(8,-6) scale(1,1)"><g><path fill="none" stroke="none"></path><text fill="#000000" stroke="none" font-family="Arial" font-size="13px" font-style="normal" font-weight="bold" text-decoration="none" x="876.5" y="193.5">BuffaloCheese</text></g></g><g transform="translate(8,-6) scale(1,1)"><rect fill="#ffffff" stroke="none" x="1112" y="176" width="117.37353515625" height="24"></rect></g><g transform="translate(8,-6) scale(1,1)"><path fill="none" stroke="#000000" d="M 1112 176 L 1229.37353515625 176 L 1229.37353515625 200 L 1112 200 L 1112 176 Z Z" stroke-miterlimit="10"></path></g><g transform="translate(8,-6) scale(1,1)"><g><path fill="none" stroke="none"></path><text fill="#000000" stroke="none" font-family="Arial" font-size="13px" font-style="normal" font-weight="bold" text-decoration="none" x="1116.5" y="193.5">MixedMilkCheese</text></g></g><g transform="translate(8,-6) scale(1,1)"><path fill="none" stroke="#000000" d="M 114 214 L 114 264" stroke-miterlimit="10"></path></g><g transform="translate(8,-6) scale(1,1)"><g><path fill="none" stroke="none"></path><text fill="#000000" stroke="none" font-family="Arial" font-size="13px" font-style="normal" font-weight="normal" text-decoration="none" x="8.66455078125" y="241.5">+isMadeWithMilk</text></g></g><g transform="translate(8,-6) scale(1,1)"><g><path fill="none" stroke="none"></path><text fill="#000000" stroke="none" font-family="Arial" font-size="13px" font-style="normal" font-weight="normal" text-decoration="none" x="127.812255859375" y="232.5">*</text></g></g><g transform="translate(8,-6) scale(1,1)"><g><path fill="none" stroke="none"></path><text fill="#000000" stroke="none" font-family="Arial" font-size="13px" font-style="normal" font-weight="normal" text-decoration="none" x="119.82666015625" y="255.5">0..1</text></g></g><g transform="translate(8,-6) scale(1,1)"><path fill="none" stroke="#000000" d="M 392 214 L 392 264" stroke-miterlimit="10"></path></g><g transform="translate(8,-6) scale(1,1)"><g><path fill="none" stroke="none"></path><text fill="#000000" stroke="none" font-family="Arial" font-size="13px" font-style="normal" font-weight="normal" text-decoration="none" x="286.5" y="241.5">+isMadeWithMilk</text></g></g><g transform="translate(8,-6) scale(1,1)"><g><path fill="none" stroke="none"></path><text fill="#000000" stroke="none" font-family="Arial" font-size="13px" font-style="normal" font-weight="normal" text-decoration="none" x="407.812255859375" y="232.5">*</text></g></g><g transform="translate(8,-6) scale(1,1)"><g><path fill="none" stroke="none"></path><text fill="#000000" stroke="none" font-family="Arial" font-size="13px" font-style="normal" font-weight="normal" text-decoration="none" x="399.5" y="258.5">0..1</text></g></g><g transform="translate(8,-6) scale(1,1)"><path fill="none" stroke="#000000" d="M 672 215 L 672 264" stroke-miterlimit="10"></path></g><g transform="translate(8,-6) scale(1,1)"><g><path fill="none" stroke="none"></path><text fill="#000000" stroke="none" font-family="Arial" font-size="13px" font-style="normal" font-weight="normal" text-decoration="none" x="566.5" y="240.5">+isMadeWithMilk</text></g></g><g transform="translate(8,-6) scale(1,1)"><g><path fill="none" stroke="none"></path><text fill="#000000" stroke="none" font-family="Arial" font-size="13px" font-style="normal" font-weight="normal" text-decoration="none" x="687.812255859375" y="233.5">*</text></g></g><g transform="translate(8,-6) scale(1,1)"><g><path fill="none" stroke="none"></path><text fill="#000000" stroke="none" font-family="Arial" font-size="13px" font-style="normal" font-weight="normal" text-decoration="none" x="679.5" y="258.5">0..1</text></g></g><g transform="translate(8,-6) scale(1,1)"><path fill="none" stroke="#000000" d="M 922 200 L 922 264" stroke-miterlimit="10"></path></g><g transform="translate(8,-6) scale(1,1)"><g><path fill="none" stroke="none"></path><text fill="#000000" stroke="none" font-family="Arial" font-size="13px" font-style="normal" font-weight="normal" text-decoration="none" x="816.5" y="234.5">+isMadeWithMilk</text></g></g><g transform="translate(8,-6) scale(1,1)"><g><path fill="none" stroke="none"></path><text fill="#000000" stroke="none" font-family="Arial" font-size="13px" font-style="normal" font-weight="normal" text-decoration="none" x="937.812255859375" y="218.5">*</text></g></g><g transform="translate(8,-6) scale(1,1)"><g><path fill="none" stroke="none"></path><text fill="#000000" stroke="none" font-family="Arial" font-size="13px" font-style="normal" font-weight="normal" text-decoration="none" x="929.5" y="258.5">0..1</text></g></g><g transform="translate(8,-6) scale(1,1)"><path fill="none" stroke="#000000" d="M 1170 200 L 1170 264" stroke-miterlimit="10"></path></g><g transform="translate(8,-6) scale(1,1)"><g><path fill="none" stroke="none"></path><text fill="#000000" stroke="none" font-family="Arial" font-size="13px" font-style="normal" font-weight="normal" text-decoration="none" x="1064.5" y="234.5">+isMadeWithMilk</text></g></g><g transform="translate(8,-6) scale(1,1)"><g><path fill="none" stroke="none"></path><text fill="#000000" stroke="none" font-family="Arial" font-size="13px" font-style="normal" font-weight="normal" text-decoration="none" x="1151.812255859375" y="218.5">*</text></g></g><g transform="translate(8,-6) scale(1,1)"><g><path fill="none" stroke="none"></path><text fill="#000000" stroke="none" font-family="Arial" font-size="13px" font-style="normal" font-weight="normal" text-decoration="none" x="1143.5" y="257.5">0..1</text></g></g><g transform="translate(8,-6) scale(1,1)"><path fill="none" stroke="#000000" d="M 437 416 L 1240 416 L 1240 96 L 629 96" stroke-miterlimit="10"></path></g><g transform="translate(8,-6) scale(1,1)"><g><path fill="none" stroke="none"></path><text fill="#000000" stroke="none" font-family="Arial" font-size="13px" font-style="normal" font-weight="normal" text-decoration="none" x="1061.5" y="408.5">+isMadeWithMilk</text></g></g><g transform="translate(8,-6) scale(1,1)"><g><path fill="none" stroke="none"></path><text fill="#000000" stroke="none" font-family="Arial" font-size="13px" font-style="normal" font-weight="normal" text-decoration="none" x="447.5" y="410.5">0..1</text></g></g><g transform="translate(8,-6) scale(1,1)"><g><path fill="none" stroke="none"></path><text fill="#000000" stroke="none" font-family="Arial" font-size="13px" font-style="normal" font-weight="normal" text-decoration="none" x="647.812255859375" y="87.5">*</text></g></g><g transform="translate(8,-6) scale(1,1)"><path fill="none" stroke="#000000" d="M 112 175 L 112 152 L 528 152 L 528 111" stroke-miterlimit="10"></path></g><g transform="translate(8,-6) scale(1,1)"><path fill="#FFFFFF" stroke="none" d="M 536.419035512032 131.3253497152483 L 528 111 L 519.580964487968 131.3253497152483"></path></g><g transform="translate(8,-6) scale(1,1)"><path fill="none" stroke="#000000" d="M 536.419035512032 131.3253497152483 L 528 111 L 519.580964487968 131.3253497152483 L 536.419035512032 131.3253497152483" stroke-miterlimit="10"></path></g><g transform="translate(8,-6) scale(1,1)"><path fill="none" stroke="#000000" d="M 392 175 L 392 152 L 528 152 L 528 111" stroke-miterlimit="10"></path></g><g transform="translate(8,-6) scale(1,1)"><path fill="#FFFFFF" stroke="none" d="M 536.419035512032 131.3253497152483 L 528 111 L 519.580964487968 131.3253497152483"></path></g><g transform="translate(8,-6) scale(1,1)"><path fill="none" stroke="#000000" d="M 536.419035512032 131.3253497152483 L 528 111 L 519.580964487968 131.3253497152483 L 536.419035512032 131.3253497152483" stroke-miterlimit="10"></path></g><g transform="translate(8,-6) scale(1,1)"><path fill="none" stroke="#000000" d="M 672 176 L 672 152 L 528 152 L 528 111" stroke-miterlimit="10"></path></g><g transform="translate(8,-6) scale(1,1)"><path fill="#FFFFFF" stroke="none" d="M 536.419035512032 131.3253497152483 L 528 111 L 519.580964487968 131.3253497152483"></path></g><g transform="translate(8,-6) scale(1,1)"><path fill="none" stroke="#000000" d="M 536.419035512032 131.3253497152483 L 528 111 L 519.580964487968 131.3253497152483 L 536.419035512032 131.3253497152483" stroke-miterlimit="10"></path></g><g transform="translate(8,-6) scale(1,1)"><path fill="none" stroke="#000000" d="M 920 176 L 920 152 L 528 152 L 528 111" stroke-miterlimit="10"></path></g><g transform="translate(8,-6) scale(1,1)"><path fill="#FFFFFF" stroke="none" d="M 536.419035512032 131.3253497152483 L 528 111 L 519.580964487968 131.3253497152483"></path></g><g transform="translate(8,-6) scale(1,1)"><path fill="none" stroke="#000000" d="M 536.419035512032 131.3253497152483 L 528 111 L 519.580964487968 131.3253497152483 L 536.419035512032 131.3253497152483" stroke-miterlimit="10"></path></g><g transform="translate(8,-6) scale(1,1)"><path fill="none" stroke="#000000" d="M 1168 176 L 1168 152 L 528 152 L 528 111" stroke-miterlimit="10"></path></g><g transform="translate(8,-6) scale(1,1)"><path fill="#FFFFFF" stroke="none" d="M 536.419035512032 131.3253497152483 L 528 111 L 519.580964487968 131.3253497152483"></path></g><g transform="translate(8,-6) scale(1,1)"><path fill="none" stroke="#000000" d="M 536.419035512032 131.3253497152483 L 528 111 L 519.580964487968 131.3253497152483 L 536.419035512032 131.3253497152483" stroke-miterlimit="10"></path></g><g transform="translate(8,-6) scale(1,1)"><path fill="none" stroke="#000000" d="M 1240 257 L 1240 352 L 232 352 L 232 239 L 115 239" stroke-miterlimit="10" stroke-dasharray="3"></path></g><g transform="translate(8,-6) scale(1,1)"><path fill="none" stroke="#000000" d="M 393 239 L 504 239 L 504 336 L 1240 336 L 1240 257" stroke-miterlimit="10" stroke-dasharray="3"></path></g><g transform="translate(8,-6) scale(1,1)"><path fill="none" stroke="#000000" d="M 673 239 L 776 239 L 776 320 L 1240 320 L 1240 257" stroke-miterlimit="10" stroke-dasharray="3"></path></g><g transform="translate(8,-6) scale(1,1)"><path fill="none" stroke="#000000" d="M 923 232 L 1048 232 L 1048 304 L 1240 304 L 1240 257" stroke-miterlimit="10" stroke-dasharray="3"></path></g><g transform="translate(8,-6) scale(1,1)"><path fill="none" stroke="#000000" d="M 112 303 L 112 368 L 344 368 L 344 409" stroke-miterlimit="10"></path></g><g transform="translate(8,-6) scale(1,1)"><path fill="#FFFFFF" stroke="none" d="M 335.580964487968 388.6746502847517 L 344 409 L 352.419035512032 388.6746502847517"></path></g><g transform="translate(8,-6) scale(1,1)"><path fill="none" stroke="#000000" d="M 335.580964487968 388.6746502847517 L 344 409 L 352.419035512032 388.6746502847517 L 335.580964487968 388.6746502847517" stroke-miterlimit="10"></path></g><g transform="translate(8,-6) scale(1,1)"><path fill="none" stroke="#000000" d="M 392 303 L 392 368 L 344 368 L 344 409" stroke-miterlimit="10"></path></g><g transform="translate(8,-6) scale(1,1)"><path fill="#FFFFFF" stroke="none" d="M 335.580964487968 388.6746502847517 L 344 409 L 352.419035512032 388.6746502847517"></path></g><g transform="translate(8,-6) scale(1,1)"><path fill="none" stroke="#000000" d="M 335.580964487968 388.6746502847517 L 344 409 L 352.419035512032 388.6746502847517 L 335.580964487968 388.6746502847517" stroke-miterlimit="10"></path></g><g transform="translate(8,-6) scale(1,1)"><path fill="none" stroke="#000000" d="M 672 303 L 672 368 L 344 368 L 344 409" stroke-miterlimit="10"></path></g><g transform="translate(8,-6) scale(1,1)"><path fill="#FFFFFF" stroke="none" d="M 335.580964487968 388.6746502847517 L 344 409 L 352.419035512032 388.6746502847517"></path></g><g transform="translate(8,-6) scale(1,1)"><path fill="none" stroke="#000000" d="M 335.580964487968 388.6746502847517 L 344 409 L 352.419035512032 388.6746502847517 L 335.580964487968 388.6746502847517" stroke-miterlimit="10"></path></g><g transform="translate(8,-6) scale(1,1)"><path fill="none" stroke="#000000" d="M 922 303 L 922 368 L 344 368 L 344 409" stroke-miterlimit="10"></path></g><g transform="translate(8,-6) scale(1,1)"><path fill="#FFFFFF" stroke="none" d="M 335.580964487968 388.6746502847517 L 344 409 L 352.419035512032 388.6746502847517"></path></g><g transform="translate(8,-6) scale(1,1)"><path fill="none" stroke="#000000" d="M 335.580964487968 388.6746502847517 L 344 409 L 352.419035512032 388.6746502847517 L 335.580964487968 388.6746502847517" stroke-miterlimit="10"></path></g><g transform="translate(8,-6) scale(1,1)"><path fill="none" stroke="#000000" d="M 1168 288 L 1168 368 L 344 368 L 344 409" stroke-miterlimit="10"></path></g><g transform="translate(8,-6) scale(1,1)"><path fill="#FFFFFF" stroke="none" d="M 335.580964487968 388.6746502847517 L 344 409 L 352.419035512032 388.6746502847517"></path></g><g transform="translate(8,-6) scale(1,1)"><path fill="none" stroke="#000000" d="M 335.580964487968 388.6746502847517 L 344 409 L 352.419035512032 388.6746502847517 L 335.580964487968 388.6746502847517" stroke-miterlimit="10"></path></g><g transform="translate(8,-6) scale(1,1)"><g><path fill="none" stroke="none"></path><text fill="#000000" stroke="none" font-family="Arial" font-size="13px" font-style="normal" font-weight="normal" text-decoration="none" x="237" y="278">{subset}</text></g></g><g transform="translate(8,-6) scale(1,1)"><g><path fill="none" stroke="none"></path><text fill="#000000" stroke="none" font-family="Arial" font-size="13px" font-style="normal" font-weight="normal" text-decoration="none" x="509" y="278">{subset}</text></g></g><g transform="translate(8,-6) scale(1,1)"><g><path fill="none" stroke="none"></path><text fill="#000000" stroke="none" font-family="Arial" font-size="13px" font-style="normal" font-weight="normal" text-decoration="none" x="781" y="278">{subset}</text></g></g><g transform="translate(8,-6) scale(1,1)"><g><path fill="none" stroke="none"></path><text fill="#000000" stroke="none" font-family="Arial" font-size="13px" font-style="normal" font-weight="normal" text-decoration="none" x="1053" y="278">{subset}</text></g></g><g transform="translate(8,-6) scale(1,1)"><rect fill="#ffffff" stroke="none" x="631" y="535" width="61.0126953125" height="24"></rect></g><g transform="translate(8,-6) scale(1,1)"><path fill="none" stroke="#000000" d="M 631 535 L 692.0126953125 535 L 692.0126953125 559 L 631 559 L 631 535 Z Z" stroke-miterlimit="10"></path></g><g transform="translate(8,-6) scale(1,1)"><g><path fill="none" stroke="none"></path><text fill="#000000" stroke="none" font-family="Arial" font-size="13px" font-style="normal" font-weight="bold" text-decoration="none" x="635.5" y="552.5">RawMilk</text></g></g><g transform="translate(8,-6) scale(1,1)"><rect fill="#ffffff" stroke="none" x="712" y="535" width="107.25537109375" height="24"></rect></g><g transform="translate(8,-6) scale(1,1)"><path fill="none" stroke="#000000" d="M 712 535 L 819.25537109375 535 L 819.25537109375 559 L 712 559 L 712 535 Z Z" stroke-miterlimit="10"></path></g><g transform="translate(8,-6) scale(1,1)"><g><path fill="none" stroke="none"></path><text fill="#000000" stroke="none" font-family="Arial" font-size="13px" font-style="normal" font-weight="bold" text-decoration="none" x="716.5" y="552.5">PasteurizedMilk</text></g></g><g transform="translate(8,-6) scale(1,1)"><path fill="none" stroke="#000000" d="M 664 535 L 664 496 L 720 496 L 720 432 L 437 432" stroke-miterlimit="10"></path></g><g transform="translate(8,-6) scale(1,1)"><path fill="#FFFFFF" stroke="none" d="M 457.3253497152483 423.580964487968 L 437 432 L 457.3253497152483 440.419035512032"></path></g><g transform="translate(8,-6) scale(1,1)"><path fill="none" stroke="#000000" d="M 457.3253497152483 423.580964487968 L 437 432 L 457.3253497152483 440.419035512032 L 457.3253497152483 423.580964487968" stroke-miterlimit="10"></path></g><g transform="translate(8,-6) scale(1,1)"><path fill="none" stroke="#000000" d="M 768 535 L 768 496 L 720 496 L 720 432 L 437 432" stroke-miterlimit="10"></path></g><g transform="translate(8,-6) scale(1,1)"><path fill="#FFFFFF" stroke="none" d="M 457.3253497152483 423.580964487968 L 437 432 L 457.3253497152483 440.419035512032"></path></g><g transform="translate(8,-6) scale(1,1)"><path fill="none" stroke="#000000" d="M 457.3253497152483 423.580964487968 L 437 432 L 457.3253497152483 440.419035512032 L 457.3253497152483 423.580964487968" stroke-miterlimit="10"></path></g><g transform="translate(8,-6) scale(1,1)"><rect fill="#ffffff" stroke="none" x="16" y="383" width="123.49267578125" height="90"></rect></g><g transform="translate(8,-6) scale(1,1)"><path fill="none" stroke="#000000" d="M 16 383 L 139.49267578125 383 L 139.49267578125 473 L 16 473 L 16 383 Z Z" stroke-miterlimit="10"></path></g><g transform="translate(8,-6) scale(1,1)"><path fill="none" stroke="#000000" d="M 16 421 L 139.49267578125 421" stroke-miterlimit="10"></path></g><g transform="translate(8,-6) scale(1,1)"><g><path fill="none" stroke="none"></path><text fill="#000000" stroke="none" font-family="Arial" font-size="13px" font-style="normal" font-weight="normal" text-decoration="none" x="40.52685546875" y="398.5">«powertype»</text></g></g><g transform="translate(8,-6) scale(1,1)"><g><path fill="none" stroke="none"></path><text fill="#000000" stroke="none" font-family="Arial" font-size="13px" font-style="normal" font-weight="bold" text-decoration="none" x="34.042724609375" y="413.5">MilkSkimming</text></g></g><g transform="translate(8,-6) scale(1,1)"><g><path fill="none" stroke="none"></path><text fill="#000000" stroke="none" font-family="Arial" font-size="13px" font-style="normal" font-weight="normal" text-decoration="none" x="21" y="436.5">+SkimmedMilk</text></g></g><g transform="translate(8,-6) scale(1,1)"><g><path fill="none" stroke="none"></path><text fill="#000000" stroke="none" font-family="Arial" font-size="13px" font-style="normal" font-weight="normal" text-decoration="none" x="21" y="451.5">+SemiSkimmedMilk</text></g></g><g transform="translate(8,-6) scale(1,1)"><g><path fill="none" stroke="none"></path><text fill="#000000" stroke="none" font-family="Arial" font-size="13px" font-style="normal" font-weight="normal" text-decoration="none" x="21" y="466.5">+WholeMilk</text></g></g><g transform="translate(8,-6) scale(1,1)"><path fill="none" stroke="#000000" d="M 246 428 L 140 428" stroke-miterlimit="10"></path></g><g transform="translate(8,-6) scale(1,1)"><g><path fill="none" stroke="none"></path><text fill="#000000" stroke="none" font-family="Arial" font-size="13px" font-style="normal" font-weight="normal" text-decoration="none" x="149.5" y="447.5">+hasSkimming</text></g></g><g transform="translate(8,-6) scale(1,1)"><g><path fill="none" stroke="none"></path><text fill="#000000" stroke="none" font-family="Arial" font-size="13px" font-style="normal" font-weight="normal" text-decoration="none" x="221.812255859375" y="419.5">*</text></g></g><g transform="translate(8,-6) scale(1,1)"><g><path fill="none" stroke="none"></path><text fill="#000000" stroke="none" font-family="Arial" font-size="13px" font-style="normal" font-weight="normal" text-decoration="none" x="150.5" y="419.5">0..1</text></g></g><g transform="translate(8,-6) scale(1,1)"><rect fill="#ffffff" stroke="none" x="13" y="528" width="198.541015625" height="39"></rect></g><g transform="translate(8,-6) scale(1,1)"><path fill="none" stroke="#000000" d="M 13 528 L 211.541015625 528 L 211.541015625 567 L 13 567 L 13 528 Z Z" stroke-miterlimit="10"></path></g><g transform="translate(8,-6) scale(1,1)"><g><path fill="none" stroke="none"></path><text fill="#000000" stroke="none" font-family="Arial" font-size="13px" font-style="normal" font-weight="bold" text-decoration="none" x="70.728271484375" y="545.5">SkimmedMilk</text></g></g><g transform="translate(8,-6) scale(1,1)"><g><path fill="none" stroke="none"></path><text fill="#000000" stroke="none" font-family="Arial" font-size="13px" font-style="normal" font-weight="normal" text-decoration="none" x="17" y="560.5">{IRI="obo:FOODON_03301484"}</text></g></g><g transform="translate(8,-6) scale(1,1)"><rect fill="#ffffff" stroke="none" x="237" y="535" width="123.15625" height="24"></rect></g><g transform="translate(8,-6) scale(1,1)"><path fill="none" stroke="#000000" d="M 237 535 L 360.15625 535 L 360.15625 559 L 237 559 L 237 535 Z Z" stroke-miterlimit="10"></path></g><g transform="translate(8,-6) scale(1,1)"><g><path fill="none" stroke="none"></path><text fill="#000000" stroke="none" font-family="Arial" font-size="13px" font-style="normal" font-weight="bold" text-decoration="none" x="241.5" y="552.5">SemiSkimmedMilk</text></g></g><g transform="translate(8,-6) scale(1,1)"><rect fill="#ffffff" stroke="none" x="438" y="535" width="73.2763671875" height="24"></rect></g><g transform="translate(8,-6) scale(1,1)"><path fill="none" stroke="#000000" d="M 438 535 L 511.2763671875 535 L 511.2763671875 559 L 438 559 L 438 535 Z Z" stroke-miterlimit="10"></path></g><g transform="translate(8,-6) scale(1,1)"><g><path fill="none" stroke="none"></path><text fill="#000000" stroke="none" font-family="Arial" font-size="13px" font-style="normal" font-weight="bold" text-decoration="none" x="442.5" y="552.5">WholeMilk</text></g></g><g transform="translate(8,-6) scale(1,1)"><path fill="none" stroke="#000000" d="M 112 528 L 112 496 L 344 496 L 344 448" stroke-miterlimit="10"></path></g><g transform="translate(8,-6) scale(1,1)"><path fill="#FFFFFF" stroke="none" d="M 352.419035512032 468.3253497152483 L 344 448 L 335.580964487968 468.3253497152483"></path></g><g transform="translate(8,-6) scale(1,1)"><path fill="none" stroke="#000000" d="M 352.419035512032 468.3253497152483 L 344 448 L 335.580964487968 468.3253497152483 L 352.419035512032 468.3253497152483" stroke-miterlimit="10"></path></g><g transform="translate(8,-6) scale(1,1)"><path fill="none" stroke="#000000" d="M 296 535 L 296 496 L 344 496 L 344 448" stroke-miterlimit="10"></path></g><g transform="translate(8,-6) scale(1,1)"><path fill="#FFFFFF" stroke="none" d="M 352.419035512032 468.3253497152483 L 344 448 L 335.580964487968 468.3253497152483"></path></g><g transform="translate(8,-6) scale(1,1)"><path fill="none" stroke="#000000" d="M 352.419035512032 468.3253497152483 L 344 448 L 335.580964487968 468.3253497152483 L 352.419035512032 468.3253497152483" stroke-miterlimit="10"></path></g><g transform="translate(8,-6) scale(1,1)"><path fill="none" stroke="#000000" d="M 472 535 L 472 496 L 344 496 L 344 448" stroke-miterlimit="10"></path></g><g transform="translate(8,-6) scale(1,1)"><path fill="#FFFFFF" stroke="none" d="M 352.419035512032 468.3253497152483 L 344 448 L 335.580964487968 468.3253497152483"></path></g><g transform="translate(8,-6) scale(1,1)"><path fill="none" stroke="#000000" d="M 352.419035512032 468.3253497152483 L 344 448 L 335.580964487968 468.3253497152483 L 352.419035512032 468.3253497152483" stroke-miterlimit="10"></path></g><g transform="translate(8,-6) scale(1,1)"><g><path fill="none" stroke="none"></path><text fill="#000000" stroke="none" font-family="Arial" font-size="13px" font-style="normal" font-weight="normal" text-decoration="none" x="405" y="142">{disjoint, complete}</text></g></g><g transform="translate(8,-6) scale(1,1)"><g><path fill="none" stroke="none"></path><text fill="#000000" stroke="none" font-family="Arial" font-size="13px" font-style="normal" font-weight="normal" text-decoration="none" x="221" y="390">{disjoint, complete}</text></g></g><g transform="translate(8,-6) scale(1,1)"><g><path fill="none" stroke="none"></path><text fill="#000000" stroke="none" font-family="Arial" font-size="13px" font-style="normal" font-weight="normal" text-decoration="none" x="245" y="486">:MilkSkimming</text></g></g><g transform="translate(8,-6) scale(1,1)"><g><path fill="none" stroke="none"></path><text fill="#000000" stroke="none" font-family="Arial" font-size="13px" font-style="normal" font-weight="normal" text-decoration="none" x="357" y="486">{disjoint, complete}</text></g></g><g transform="translate(8,-6) scale(1,1)"><rect fill="#ffffff" stroke="none" x="43" y="623" width="138.33349609375" height="24"></rect></g><g transform="translate(8,-6) scale(1,1)"><path fill="none" stroke="#000000" d="M 43 623 L 181.33349609375 623 L 181.33349609375 647 L 43 647 L 43 623 Z Z" stroke-miterlimit="10"></path></g><g transform="translate(8,-6) scale(1,1)"><g><path fill="none" stroke="none"></path><text fill="#000000" stroke="none" font-family="Arial" font-size="13px" font-style="normal" font-weight="bold" text-decoration="none" x="47.5" y="640.5">SkimmedMilkCheese</text></g></g><g transform="translate(8,-6) scale(1,1)"><rect fill="#ffffff" stroke="none" x="199" y="616" width="198.541015625" height="39"></rect></g><g transform="translate(8,-6) scale(1,1)"><path fill="none" stroke="#000000" d="M 199 616 L 397.541015625 616 L 397.541015625 655 L 199 655 L 199 616 Z Z" stroke-miterlimit="10"></path></g><g transform="translate(8,-6) scale(1,1)"><g><path fill="none" stroke="none"></path><text fill="#000000" stroke="none" font-family="Arial" font-size="13px" font-style="normal" font-weight="bold" text-decoration="none" x="218.06787109375" y="633.5">SemiSkimmedMilkCheese</text></g></g><g transform="translate(8,-6) scale(1,1)"><g><path fill="none" stroke="none"></path><text fill="#000000" stroke="none" font-family="Arial" font-size="13px" font-style="normal" font-weight="normal" text-decoration="none" x="203" y="648.5">{IRI="obo:FOODON_03401217"}</text></g></g><g transform="translate(8,-6) scale(1,1)"><rect fill="#ffffff" stroke="none" x="415" y="623" width="119.525390625" height="24"></rect></g><g transform="translate(8,-6) scale(1,1)"><path fill="none" stroke="#000000" d="M 415 623 L 534.525390625 623 L 534.525390625 647 L 415 647 L 415 623 Z Z" stroke-miterlimit="10"></path></g><g transform="translate(8,-6) scale(1,1)"><g><path fill="none" stroke="none"></path><text fill="#000000" stroke="none" font-family="Arial" font-size="13px" font-style="normal" font-weight="bold" text-decoration="none" x="419.5" y="640.5">WholeMilkCheese</text></g></g><g transform="translate(8,-6) scale(1,1)"><path fill="none" stroke="#000000" d="M 112 622 L 112 568" stroke-miterlimit="10" stroke-dasharray="3"></path></g><g transform="translate(8,-6) scale(1,1)"><path fill="none" stroke="#000000" d="M 116.20951775601598 578.1626748576241 L 112 568 L 107.79048224398402 578.1626748576241" stroke-miterlimit="10"></path></g><g transform="translate(8,-6) scale(1,1)"><g><path fill="none" stroke="none"></path><text fill="#000000" stroke="none" font-family="Arial" font-size="13px" font-style="normal" font-weight="normal" text-decoration="none" x="1.5" y="597.5">+isMadeWithMilk</text></g></g><g transform="translate(8,-6) scale(1,1)"><path fill="none" stroke="#000000" d="M 298 615 L 298 560" stroke-miterlimit="10" stroke-dasharray="3"></path></g><g transform="translate(8,-6) scale(1,1)"><path fill="none" stroke="#000000" d="M 302.209517756016 570.1626748576241 L 298 560 L 293.790482243984 570.1626748576241" stroke-miterlimit="10"></path></g><g transform="translate(8,-6) scale(1,1)"><g><path fill="none" stroke="none"></path><text fill="#000000" stroke="none" font-family="Arial" font-size="13px" font-style="normal" font-weight="normal" text-decoration="none" x="186.5" y="596.5">+isMadeWithMilk</text></g></g><g transform="translate(8,-6) scale(1,1)"><path fill="none" stroke="#000000" d="M 474 622 L 474 560" stroke-miterlimit="10" stroke-dasharray="3"></path></g><g transform="translate(8,-6) scale(1,1)"><path fill="none" stroke="#000000" d="M 478.209517756016 570.1626748576241 L 474 560 L 469.790482243984 570.1626748576241" stroke-miterlimit="10"></path></g><g transform="translate(8,-6) scale(1,1)"><g><path fill="none" stroke="none"></path><text fill="#000000" stroke="none" font-family="Arial" font-size="13px" font-style="normal" font-weight="normal" text-decoration="none" x="364.5" y="594.5">+isMadeWithMilk</text></g></g><g transform="translate(8,-6) scale(1,1)"><path fill="none" stroke="#000000" d="M 112 647 L 112 688 L 296 688 L 296 720 L 1272 720 L 1272 16 L 456 16 L 456 72" stroke-miterlimit="10"></path></g><g transform="translate(8,-6) scale(1,1)"><path fill="#FFFFFF" stroke="none" d="M 447.580964487968 51.67465028475169 L 456 72 L 464.419035512032 51.67465028475169"></path></g><g transform="translate(8,-6) scale(1,1)"><path fill="none" stroke="#000000" d="M 447.580964487968 51.67465028475169 L 456 72 L 464.419035512032 51.67465028475169 L 447.580964487968 51.67465028475169" stroke-miterlimit="10"></path></g><g transform="translate(8,-6) scale(1,1)"><path fill="none" stroke="#000000" d="M 296 655 L 296 720 L 1272 720 L 1272 16 L 456 16 L 456 72" stroke-miterlimit="10"></path></g><g transform="translate(8,-6) scale(1,1)"><path fill="#FFFFFF" stroke="none" d="M 447.580964487968 51.67465028475169 L 456 72 L 464.419035512032 51.67465028475169"></path></g><g transform="translate(8,-6) scale(1,1)"><path fill="none" stroke="#000000" d="M 447.580964487968 51.67465028475169 L 456 72 L 464.419035512032 51.67465028475169 L 447.580964487968 51.67465028475169" stroke-miterlimit="10"></path></g><g transform="translate(8,-6) scale(1,1)"><path fill="none" stroke="#000000" d="M 472 647 L 472 688 L 296 688 L 296 720 L 1272 720 L 1272 16 L 456 16 L 456 72" stroke-miterlimit="10"></path></g><g transform="translate(8,-6) scale(1,1)"><path fill="#FFFFFF" stroke="none" d="M 447.580964487968 51.67465028475169 L 456 72 L 464.419035512032 51.67465028475169"></path></g><g transform="translate(8,-6) scale(1,1)"><path fill="none" stroke="#000000" d="M 447.580964487968 51.67465028475169 L 456 72 L 464.419035512032 51.67465028475169 L 447.580964487968 51.67465028475169" stroke-miterlimit="10"></path></g><g transform="translate(8,-6) scale(1,1)"><g><path fill="none" stroke="none"></path><text fill="#000000" stroke="none" font-family="Arial" font-size="13px" font-style="normal" font-weight="normal" text-decoration="none" x="741" y="486">{disjoint, complete}</text></g></g><g transform="translate(8,-6) scale(1,1)"><path fill="none" stroke="#000000" d="M 1170 233 L 1170 232 L 1240 232 L 1240 255" stroke-miterlimit="10" stroke-dasharray="3"></path></g><g transform="translate(8,-6) scale(1,1)"><g><path fill="none" stroke="none"></path><text fill="#000000" stroke="none" font-family="Arial" font-size="13px" font-style="normal" font-weight="normal" text-decoration="none" x="309" y="710">{disjoint, complete}</text></g></g><g transform="translate(8,-6) scale(1,1)"><g><path fill="none" stroke="none"></path><text fill="#000000" stroke="none" font-family="Arial" font-size="13px" font-style="normal" font-weight="normal" text-decoration="none" x="1181" y="246">{subset}</text></g></g></g></svg>