<svg version="1.1" xmlns="http://www.w3.org/2000/svg" xmlns:xlink="http://www.w3.org/1999/xlink" width="1253" height="629"><defs></defs><g><g transform="translate(-6,-6) scale(1,1)"><rect fill="#ffffff" stroke="none" x="16" y="120" width="198.541015625" height="39"></rect></g><g transform="translate(-6,-6) scale(1,1)"><path fill="none" stroke="#000000" d="M 16 120 L 214.541015625 120 L 214.541015625 159 L 16 159 L 16 120 Z Z" stroke-miterlimit="10"></path></g><g transform="translate(-6,-6) scale(1,1)"><g><path fill="none" stroke="none"></path><text fill="#000000" stroke="none" font-family="Arial" font-size="13px" font-style="normal" font-weight="bold" text-decoration="none" x="92.14599609375" y="138">Cheese</text></g></g><g transform="translate(-6,-6) scale(1,1)"><g><path fill="none" stroke="none"></path><text fill="#000000" stroke="none" font-family="Arial" font-size="13px" font-style="normal" font-weight="normal" text-decoration="none" x="20" y="153">{IRI="obo:FOODON_00001013"}</text></g></g><g transform="translate(-6,-6) scale(1,1)"><rect fill="#ffffff" stroke="none" x="774" y="496" width="136.8544921875" height="24"></rect></g><g transform="translate(-6,-6) scale(1,1)"><path fill="none" stroke="#000000" d="M 774 496 L 910.8544921875 496 L 910.8544921875 520 L 774 520 L 774 496 Z Z" stroke-miterlimit="10"></path></g><g transform="translate(-6,-6) scale(1,1)"><g><path fill="none" stroke="none"></path><text fill="#000000" stroke="none" font-family="Arial" font-size="13px" font-style="normal" font-weight="bold" text-decoration="none" x="778.5" y="514">MoldRipenedCheese</text></g></g><g transform="translate(-6,-6) scale(1,1)"><rect fill="#ffffff" stroke="none" x="560" y="586" width="198.541015625" height="39"></rect></g><g transform="translate(-6,-6) scale(1,1)"><path fill="none" stroke="#000000" d="M 560 586 L 758.541015625 586 L 758.541015625 625 L 560 625 L 560 586 Z Z" stroke-miterlimit="10"></path></g><g transform="translate(-6,-6) scale(1,1)"><g><path fill="none" stroke="none"></path><text fill="#000000" stroke="none" font-family="Arial" font-size="13px" font-style="normal" font-weight="bold" text-decoration="none" x="597.86962890625" y="604">SoftRipenedCheese</text></g></g><g transform="translate(-6,-6) scale(1,1)"><g><path fill="none" stroke="none"></path><text fill="#000000" stroke="none" font-family="Arial" font-size="13px" font-style="normal" font-weight="normal" text-decoration="none" x="564" y="619">{IRI="obo:FOODON_03301039"}</text></g></g><g transform="translate(-6,-6) scale(1,1)"><rect fill="#ffffff" stroke="none" x="769" y="586" width="146.28076171875" height="24"></rect></g><g transform="translate(-6,-6) scale(1,1)"><path fill="none" stroke="#000000" d="M 769 586 L 915.28076171875 586 L 915.28076171875 610 L 769 610 L 769 586 Z Z" stroke-miterlimit="10"></path></g><g transform="translate(-6,-6) scale(1,1)"><g><path fill="none" stroke="none"></path><text fill="#000000" stroke="none" font-family="Arial" font-size="13px" font-style="normal" font-weight="bold" text-decoration="none" x="773.5" y="604">SmearRipenedCheese</text></g></g><g transform="translate(-6,-6) scale(1,1)"><rect fill="#ffffff" stroke="none" x="928" y="586" width="198.541015625" height="39"></rect></g><g transform="translate(-6,-6) scale(1,1)"><path fill="none" stroke="#000000" d="M 928 586 L 1126.541015625 586 L 1126.541015625 625 L 928 625 L 928 586 Z Z" stroke-miterlimit="10"></path></g><g transform="translate(-6,-6) scale(1,1)"><g><path fill="none" stroke="none"></path><text fill="#000000" stroke="none" font-family="Arial" font-size="13px" font-style="normal" font-weight="bold" text-decoration="none" x="990.060546875" y="604">BlueCheese</text></g></g><g transform="translate(-6,-6) scale(1,1)"><g><path fill="none" stroke="none"></path><text fill="#000000" stroke="none" font-family="Arial" font-size="13px" font-style="normal" font-weight="normal" text-decoration="none" x="932" y="619">{IRI="obo:FOODON_00001065"}</text></g></g><g transform="translate(-6,-6) scale(1,1)"><rect fill="#ffffff" stroke="none" x="528" y="352" width="194.90380859375" height="39"></rect></g><g transform="translate(-6,-6) scale(1,1)"><path fill="none" stroke="#000000" d="M 528 352 L 722.90380859375 352 L 722.90380859375 391 L 528 391 L 528 352 Z Z" stroke-miterlimit="10"></path></g><g transform="translate(-6,-6) scale(1,1)"><g><path fill="none" stroke="none"></path><text fill="#000000" stroke="none" font-family="Arial" font-size="13px" font-style="normal" font-weight="bold" text-decoration="none" x="587.521484375" y="370">RawMaterial</text></g></g><g transform="translate(-6,-6) scale(1,1)"><g><path fill="none" stroke="none"></path><text fill="#000000" stroke="none" font-family="Arial" font-size="13px" font-style="normal" font-weight="normal" text-decoration="none" x="532" y="385">{IRI="food-upper:MateriaPrima"}</text></g></g><g transform="translate(-6,-6) scale(1,1)"><path fill="none" stroke="#000000" d="M 104 159 L 104 368 L 528 368" stroke-miterlimit="10"></path></g><g transform="translate(-6,-6) scale(1,1)"><g><path fill="none" stroke="none"></path><text fill="#000000" stroke="none" font-family="Arial" font-size="13px" font-style="normal" font-weight="normal" text-decoration="none" x="112.66455078125" y="360">+isMadeWithRawMaterial</text></g></g><g transform="translate(-6,-6) scale(1,1)"><g><path fill="none" stroke="none"></path><text fill="#000000" stroke="none" font-family="Arial" font-size="13px" font-style="normal" font-weight="normal" text-decoration="none" x="88.812255859375" y="185">*</text></g></g><g transform="translate(-6,-6) scale(1,1)"><g><path fill="none" stroke="none"></path><text fill="#000000" stroke="none" font-family="Arial" font-size="13px" font-style="normal" font-weight="normal" text-decoration="none" x="503.220458984375" y="385">*</text></g></g><g transform="translate(-6,-6) scale(1,1)"><path fill="none" stroke="#000000" d="M 656 586 L 656 560 L 840 560 L 840 520" stroke-miterlimit="10"></path></g><g transform="translate(-6,-6) scale(1,1)"><path fill="#FFFFFF" stroke="none" d="M 848.419035512032 540.3253497152483 L 840 520 L 831.580964487968 540.3253497152483"></path></g><g transform="translate(-6,-6) scale(1,1)"><path fill="none" stroke="#000000" d="M 848.419035512032 540.3253497152483 L 840 520 L 831.580964487968 540.3253497152483 L 848.419035512032 540.3253497152483" stroke-miterlimit="10"></path></g><g transform="translate(-6,-6) scale(1,1)"><path fill="none" stroke="#000000" d="M 840 586 L 840 520" stroke-miterlimit="10"></path></g><g transform="translate(-6,-6) scale(1,1)"><path fill="#FFFFFF" stroke="none" d="M 848.419035512032 540.3253497152483 L 840 520 L 831.580964487968 540.3253497152483"></path></g><g transform="translate(-6,-6) scale(1,1)"><path fill="none" stroke="#000000" d="M 848.419035512032 540.3253497152483 L 840 520 L 831.580964487968 540.3253497152483 L 848.419035512032 540.3253497152483" stroke-miterlimit="10"></path></g><g transform="translate(-6,-6) scale(1,1)"><path fill="none" stroke="#000000" d="M 1024 586 L 1024 560 L 840 560 L 840 520" stroke-miterlimit="10"></path></g><g transform="translate(-6,-6) scale(1,1)"><path fill="#FFFFFF" stroke="none" d="M 848.419035512032 540.3253497152483 L 840 520 L 831.580964487968 540.3253497152483"></path></g><g transform="translate(-6,-6) scale(1,1)"><path fill="none" stroke="#000000" d="M 848.419035512032 540.3253497152483 L 840 520 L 831.580964487968 540.3253497152483 L 848.419035512032 540.3253497152483" stroke-miterlimit="10"></path></g><g transform="translate(-6,-6) scale(1,1)"><g><path fill="none" stroke="none"></path><text fill="#000000" stroke="none" font-family="Arial" font-size="13px" font-style="normal" font-weight="normal" text-decoration="none" x="861" y="551">{overlapping, incomplete}</text></g></g><g transform="translate(-6,-6) scale(1,1)"><rect fill="#ffffff" stroke="none" x="456" y="16" width="198.541015625" height="39"></rect></g><g transform="translate(-6,-6) scale(1,1)"><path fill="none" stroke="#000000" d="M 456 16 L 654.541015625 16 L 654.541015625 55 L 456 55 L 456 16 Z Z" stroke-miterlimit="10"></path></g><g transform="translate(-6,-6) scale(1,1)"><g><path fill="none" stroke="none"></path><text fill="#000000" stroke="none" font-family="Arial" font-size="13px" font-style="normal" font-weight="bold" text-decoration="none" x="539.388671875" y="34">Food</text></g></g><g transform="translate(-6,-6) scale(1,1)"><g><path fill="none" stroke="none"></path><text fill="#000000" stroke="none" font-family="Arial" font-size="13px" font-style="normal" font-weight="normal" text-decoration="none" x="460" y="49">{IRI="obo:FOODON_00002403"}</text></g></g><g transform="translate(-6,-6) scale(1,1)"><path fill="none" stroke="#000000" d="M 115 120 L 115 96 L 552 96 L 552 55" stroke-miterlimit="10"></path></g><g transform="translate(-6,-6) scale(1,1)"><path fill="#FFFFFF" stroke="none" d="M 560.419035512032 75.32534971524831 L 552 55 L 543.580964487968 75.32534971524831"></path></g><g transform="translate(-6,-6) scale(1,1)"><path fill="none" stroke="#000000" d="M 560.419035512032 75.32534971524831 L 552 55 L 543.580964487968 75.32534971524831 L 560.419035512032 75.32534971524831" stroke-miterlimit="10"></path></g><g transform="translate(-6,-6) scale(1,1)"><rect fill="#ffffff" stroke="none" x="224" y="120" width="189.87646484375" height="39"></rect></g><g transform="translate(-6,-6) scale(1,1)"><path fill="none" stroke="#000000" d="M 224 120 L 413.87646484375 120 L 413.87646484375 159 L 224 159 L 224 120 Z Z" stroke-miterlimit="10"></path></g><g transform="translate(-6,-6) scale(1,1)"><g><path fill="none" stroke="none"></path><text fill="#000000" stroke="none" font-family="Arial" font-size="13px" font-style="normal" font-weight="bold" text-decoration="none" x="306.296875" y="138">Milk</text></g></g><g transform="translate(-6,-6) scale(1,1)"><g><path fill="none" stroke="none"></path><text fill="#000000" stroke="none" font-family="Arial" font-size="13px" font-style="normal" font-weight="normal" text-decoration="none" x="228" y="153">{IRI="obo:UBERON_0001913"}</text></g></g><g transform="translate(-6,-6) scale(1,1)"><rect fill="#ffffff" stroke="none" x="424" y="120" width="202.15283203125" height="39"></rect></g><g transform="translate(-6,-6) scale(1,1)"><path fill="none" stroke="#000000" d="M 424 120 L 626.15283203125 120 L 626.15283203125 159 L 424 159 L 424 120 Z Z" stroke-miterlimit="10"></path></g><g transform="translate(-6,-6) scale(1,1)"><g><path fill="none" stroke="none"></path><text fill="#000000" stroke="none" font-family="Arial" font-size="13px" font-style="normal" font-weight="bold" text-decoration="none" x="503.046875" y="138">Rennet</text></g></g><g transform="translate(-6,-6) scale(1,1)"><g><path fill="none" stroke="none"></path><text fill="#000000" stroke="none" font-family="Arial" font-size="13px" font-style="normal" font-weight="normal" text-decoration="none" x="428" y="153">{IRI="obo:
FOODON_00001228"}</text></g></g><g transform="translate(-6,-6) scale(1,1)"><rect fill="#ffffff" stroke="none" x="632" y="120" width="198.541015625" height="39"></rect></g><g transform="translate(-6,-6) scale(1,1)"><path fill="none" stroke="#000000" d="M 632 120 L 830.541015625 120 L 830.541015625 159 L 632 159 L 632 120 Z Z" stroke-miterlimit="10"></path></g><g transform="translate(-6,-6) scale(1,1)"><g><path fill="none" stroke="none"></path><text fill="#000000" stroke="none" font-family="Arial" font-size="13px" font-style="normal" font-weight="bold" text-decoration="none" x="719.349609375" y="138">Salt</text></g></g><g transform="translate(-6,-6) scale(1,1)"><g><path fill="none" stroke="none"></path><text fill="#000000" stroke="none" font-family="Arial" font-size="13px" font-style="normal" font-weight="normal" text-decoration="none" x="636" y="153">{IRI="obo:FOODON_00002221"}</text></g></g><g transform="translate(-6,-6) scale(1,1)"><rect fill="#ffffff" stroke="none" x="840" y="120" width="198.541015625" height="39"></rect></g><g transform="translate(-6,-6) scale(1,1)"><path fill="none" stroke="#000000" d="M 840 120 L 1038.541015625 120 L 1038.541015625 159 L 840 159 L 840 120 Z Z" stroke-miterlimit="10"></path></g><g transform="translate(-6,-6) scale(1,1)"><g><path fill="none" stroke="none"></path><text fill="#000000" stroke="none" font-family="Arial" font-size="13px" font-style="normal" font-weight="bold" text-decoration="none" x="921.45263671875" y="138">Water</text></g></g><g transform="translate(-6,-6) scale(1,1)"><g><path fill="none" stroke="none"></path><text fill="#000000" stroke="none" font-family="Arial" font-size="13px" font-style="normal" font-weight="normal" text-decoration="none" x="844" y="153">{IRI="obo:FOODON_00002340"}</text></g></g><g transform="translate(-6,-6) scale(1,1)"><rect fill="#ffffff" stroke="none" x="888" y="168" width="198.541015625" height="39"></rect></g><g transform="translate(-6,-6) scale(1,1)"><path fill="none" stroke="#000000" d="M 888 168 L 1086.541015625 168 L 1086.541015625 207 L 888 207 L 888 168 Z Z" stroke-miterlimit="10"></path></g><g transform="translate(-6,-6) scale(1,1)"><g><path fill="none" stroke="none"></path><text fill="#000000" stroke="none" font-family="Arial" font-size="13px" font-style="normal" font-weight="bold" text-decoration="none" x="910.34326171875" y="186">FoodManifactureEnzyme</text></g></g><g transform="translate(-6,-6) scale(1,1)"><g><path fill="none" stroke="none"></path><text fill="#000000" stroke="none" font-family="Arial" font-size="13px" font-style="normal" font-weight="normal" text-decoration="none" x="892" y="201">{IRI="obo:FOODON_03544452"}</text></g></g><g transform="translate(-6,-6) scale(1,1)"><rect fill="#ffffff" stroke="none" x="1168" y="248" width="39.32275390625" height="24"></rect></g><g transform="translate(-6,-6) scale(1,1)"><path fill="none" stroke="#000000" d="M 1168 248 L 1207.32275390625 248 L 1207.32275390625 272 L 1168 272 L 1168 248 Z Z" stroke-miterlimit="10"></path></g><g transform="translate(-6,-6) scale(1,1)"><g><path fill="none" stroke="none"></path><text fill="#000000" stroke="none" font-family="Arial" font-size="13px" font-style="normal" font-weight="bold" text-decoration="none" x="1172.5" y="266">Mold</text></g></g><g transform="translate(-6,-6) scale(1,1)"><path fill="none" stroke="#000000" d="M 320 120 L 320 96 L 552 96 L 552 55" stroke-miterlimit="10"></path></g><g transform="translate(-6,-6) scale(1,1)"><path fill="#FFFFFF" stroke="none" d="M 560.419035512032 75.32534971524831 L 552 55 L 543.580964487968 75.32534971524831"></path></g><g transform="translate(-6,-6) scale(1,1)"><path fill="none" stroke="#000000" d="M 560.419035512032 75.32534971524831 L 552 55 L 543.580964487968 75.32534971524831 L 560.419035512032 75.32534971524831" stroke-miterlimit="10"></path></g><g transform="translate(-6,-6) scale(1,1)"><path fill="none" stroke="#000000" d="M 528 120 L 528 96 L 552 96 L 552 55" stroke-miterlimit="10"></path></g><g transform="translate(-6,-6) scale(1,1)"><path fill="#FFFFFF" stroke="none" d="M 560.419035512032 75.32534971524831 L 552 55 L 543.580964487968 75.32534971524831"></path></g><g transform="translate(-6,-6) scale(1,1)"><path fill="none" stroke="#000000" d="M 560.419035512032 75.32534971524831 L 552 55 L 543.580964487968 75.32534971524831 L 560.419035512032 75.32534971524831" stroke-miterlimit="10"></path></g><g transform="translate(-6,-6) scale(1,1)"><path fill="none" stroke="#000000" d="M 736 120 L 736 96 L 552 96 L 552 55" stroke-miterlimit="10"></path></g><g transform="translate(-6,-6) scale(1,1)"><path fill="#FFFFFF" stroke="none" d="M 560.419035512032 75.32534971524831 L 552 55 L 543.580964487968 75.32534971524831"></path></g><g transform="translate(-6,-6) scale(1,1)"><path fill="none" stroke="#000000" d="M 560.419035512032 75.32534971524831 L 552 55 L 543.580964487968 75.32534971524831 L 560.419035512032 75.32534971524831" stroke-miterlimit="10"></path></g><g transform="translate(-6,-6) scale(1,1)"><path fill="none" stroke="#000000" d="M 944 120 L 944 96 L 552 96 L 552 55" stroke-miterlimit="10"></path></g><g transform="translate(-6,-6) scale(1,1)"><path fill="#FFFFFF" stroke="none" d="M 560.419035512032 75.32534971524831 L 552 55 L 543.580964487968 75.32534971524831"></path></g><g transform="translate(-6,-6) scale(1,1)"><path fill="none" stroke="#000000" d="M 560.419035512032 75.32534971524831 L 552 55 L 543.580964487968 75.32534971524831 L 560.419035512032 75.32534971524831" stroke-miterlimit="10"></path></g><g transform="translate(-6,-6) scale(1,1)"><rect fill="#ffffff" stroke="none" x="120" y="248" width="147.2392578125" height="39"></rect></g><g transform="translate(-6,-6) scale(1,1)"><path fill="none" stroke="#000000" d="M 120 248 L 267.2392578125 248 L 267.2392578125 287 L 120 287 L 120 248 Z Z" stroke-miterlimit="10"></path></g><g transform="translate(-6,-6) scale(1,1)"><g><path fill="none" stroke="none"></path><text fill="#000000" stroke="none" font-family="Arial" font-size="13px" font-style="normal" font-weight="bold" text-decoration="none" x="132.564697265625" y="266">CheeseRawMaterial</text></g></g><g transform="translate(-6,-6) scale(1,1)"><g><path fill="none" stroke="none"></path><text fill="#000000" stroke="none" font-family="Arial" font-size="13px" font-style="normal" font-weight="normal" text-decoration="none" x="124" y="281">{IRI="agrovoc:c_
1507"}</text></g></g><g transform="translate(-6,-6) scale(1,1)"><rect fill="#ffffff" stroke="none" x="296" y="248" width="143.62744140625" height="39"></rect></g><g transform="translate(-6,-6) scale(1,1)"><path fill="none" stroke="#000000" d="M 296 248 L 439.62744140625 248 L 439.62744140625 287 L 296 287 L 296 248 Z Z" stroke-miterlimit="10"></path></g><g transform="translate(-6,-6) scale(1,1)"><g><path fill="none" stroke="none"></path><text fill="#000000" stroke="none" font-family="Arial" font-size="13px" font-style="normal" font-weight="bold" text-decoration="none" x="317.241943359375" y="266">MilkRawMaterial</text></g></g><g transform="translate(-6,-6) scale(1,1)"><g><path fill="none" stroke="none"></path><text fill="#000000" stroke="none" font-family="Arial" font-size="13px" font-style="normal" font-weight="normal" text-decoration="none" x="300" y="281">{IRI="agrovoc:c_4826"}</text></g></g><g transform="translate(-6,-6) scale(1,1)"><rect fill="#ffffff" stroke="none" x="448" y="248" width="150.857421875" height="39"></rect></g><g transform="translate(-6,-6) scale(1,1)"><path fill="none" stroke="#000000" d="M 448 248 L 598.857421875 248 L 598.857421875 287 L 448 287 L 448 248 Z Z" stroke-miterlimit="10"></path></g><g transform="translate(-6,-6) scale(1,1)"><g><path fill="none" stroke="none"></path><text fill="#000000" stroke="none" font-family="Arial" font-size="13px" font-style="normal" font-weight="bold" text-decoration="none" x="463.46875" y="266">RennetRawMaterial</text></g></g><g transform="translate(-6,-6) scale(1,1)"><g><path fill="none" stroke="none"></path><text fill="#000000" stroke="none" font-family="Arial" font-size="13px" font-style="normal" font-weight="normal" text-decoration="none" x="452" y="281">{IRI="agrovoc:c_24075"}</text></g></g><g transform="translate(-6,-6) scale(1,1)"><rect fill="#ffffff" stroke="none" x="608" y="248" width="150.857421875" height="39"></rect></g><g transform="translate(-6,-6) scale(1,1)"><path fill="none" stroke="#000000" d="M 608 248 L 758.857421875 248 L 758.857421875 287 L 608 287 L 608 248 Z Z" stroke-miterlimit="10"></path></g><g transform="translate(-6,-6) scale(1,1)"><g><path fill="none" stroke="none"></path><text fill="#000000" stroke="none" font-family="Arial" font-size="13px" font-style="normal" font-weight="bold" text-decoration="none" x="633.577392578125" y="266">SaltRawMaterial</text></g></g><g transform="translate(-6,-6) scale(1,1)"><g><path fill="none" stroke="none"></path><text fill="#000000" stroke="none" font-family="Arial" font-size="13px" font-style="normal" font-weight="normal" text-decoration="none" x="612" y="281">{IRI="agrovoc:c_33129"}</text></g></g><g transform="translate(-6,-6) scale(1,1)"><rect fill="#ffffff" stroke="none" x="768" y="248" width="143.62744140625" height="39"></rect></g><g transform="translate(-6,-6) scale(1,1)"><path fill="none" stroke="#000000" d="M 768 248 L 911.62744140625 248 L 911.62744140625 287 L 768 287 L 768 248 Z Z" stroke-miterlimit="10"></path></g><g transform="translate(-6,-6) scale(1,1)"><g><path fill="none" stroke="none"></path><text fill="#000000" stroke="none" font-family="Arial" font-size="13px" font-style="normal" font-weight="bold" text-decoration="none" x="784.0654296875" y="266">WaterRawMaterial</text></g></g><g transform="translate(-6,-6) scale(1,1)"><g><path fill="none" stroke="none"></path><text fill="#000000" stroke="none" font-family="Arial" font-size="13px" font-style="normal" font-weight="normal" text-decoration="none" x="772" y="281">{IRI="agrovoc:c_8309"}</text></g></g><g transform="translate(-6,-6) scale(1,1)"><rect fill="#ffffff" stroke="none" x="1016" y="248" width="143.62744140625" height="39"></rect></g><g transform="translate(-6,-6) scale(1,1)"><path fill="none" stroke="#000000" d="M 1016 248 L 1159.62744140625 248 L 1159.62744140625 287 L 1016 287 L 1016 248 Z Z" stroke-miterlimit="10"></path></g><g transform="translate(-6,-6) scale(1,1)"><g><path fill="none" stroke="none"></path><text fill="#000000" stroke="none" font-family="Arial" font-size="13px" font-style="normal" font-weight="bold" text-decoration="none" x="1070.478271484375" y="266">Whey</text></g></g><g transform="translate(-6,-6) scale(1,1)"><g><path fill="none" stroke="none"></path><text fill="#000000" stroke="none" font-family="Arial" font-size="13px" font-style="normal" font-weight="normal" text-decoration="none" x="1020" y="281">{IRI="agrovoc:c_8376"}</text></g></g><g transform="translate(-6,-6) scale(1,1)"><rect fill="#ffffff" stroke="none" x="920" y="248" width="83.41357421875" height="24"></rect></g><g transform="translate(-6,-6) scale(1,1)"><path fill="none" stroke="#000000" d="M 920 248 L 1003.41357421875 248 L 1003.41357421875 272 L 920 272 L 920 248 Z Z" stroke-miterlimit="10"></path></g><g transform="translate(-6,-6) scale(1,1)"><g><path fill="none" stroke="none"></path><text fill="#000000" stroke="none" font-family="Arial" font-size="13px" font-style="normal" font-weight="bold" text-decoration="none" x="924.5" y="266">MilkEnzyme</text></g></g><g transform="translate(-6,-6) scale(1,1)"><path fill="none" stroke="#000000" d="M 960 248 L 960 207" stroke-miterlimit="10"></path></g><g transform="translate(-6,-6) scale(1,1)"><path fill="#FFFFFF" stroke="none" d="M 968.419035512032 227.3253497152483 L 960 207 L 951.580964487968 227.3253497152483"></path></g><g transform="translate(-6,-6) scale(1,1)"><path fill="none" stroke="#000000" d="M 968.419035512032 227.3253497152483 L 960 207 L 951.580964487968 227.3253497152483 L 968.419035512032 227.3253497152483" stroke-miterlimit="10"></path></g><g transform="translate(-6,-6) scale(1,1)"><path fill="none" stroke="#000000" d="M 136 248 L 136 159" stroke-miterlimit="10"></path></g><g transform="translate(-6,-6) scale(1,1)"><path fill="#FFFFFF" stroke="none" d="M 144.41903551203197 179.3253497152483 L 136 159 L 127.58096448796803 179.3253497152483"></path></g><g transform="translate(-6,-6) scale(1,1)"><path fill="none" stroke="#000000" d="M 144.41903551203197 179.3253497152483 L 136 159 L 127.58096448796803 179.3253497152483 L 144.41903551203197 179.3253497152483" stroke-miterlimit="10"></path></g><g transform="translate(-6,-6) scale(1,1)"><path fill="none" stroke="#000000" d="M 368 248 L 368 159" stroke-miterlimit="10"></path></g><g transform="translate(-6,-6) scale(1,1)"><path fill="#FFFFFF" stroke="none" d="M 376.419035512032 179.3253497152483 L 368 159 L 359.580964487968 179.3253497152483"></path></g><g transform="translate(-6,-6) scale(1,1)"><path fill="none" stroke="#000000" d="M 376.419035512032 179.3253497152483 L 368 159 L 359.580964487968 179.3253497152483 L 376.419035512032 179.3253497152483" stroke-miterlimit="10"></path></g><g transform="translate(-6,-6) scale(1,1)"><path fill="none" stroke="#000000" d="M 528 248 L 528 159" stroke-miterlimit="10"></path></g><g transform="translate(-6,-6) scale(1,1)"><path fill="#FFFFFF" stroke="none" d="M 536.419035512032 179.3253497152483 L 528 159 L 519.580964487968 179.3253497152483"></path></g><g transform="translate(-6,-6) scale(1,1)"><path fill="none" stroke="#000000" d="M 536.419035512032 179.3253497152483 L 528 159 L 519.580964487968 179.3253497152483 L 536.419035512032 179.3253497152483" stroke-miterlimit="10"></path></g><g transform="translate(-6,-6) scale(1,1)"><path fill="none" stroke="#000000" d="M 688 248 L 688 159" stroke-miterlimit="10"></path></g><g transform="translate(-6,-6) scale(1,1)"><path fill="#FFFFFF" stroke="none" d="M 696.419035512032 179.3253497152483 L 688 159 L 679.580964487968 179.3253497152483"></path></g><g transform="translate(-6,-6) scale(1,1)"><path fill="none" stroke="#000000" d="M 696.419035512032 179.3253497152483 L 688 159 L 679.580964487968 179.3253497152483 L 696.419035512032 179.3253497152483" stroke-miterlimit="10"></path></g><g transform="translate(-6,-6) scale(1,1)"><path fill="none" stroke="#000000" d="M 864 248 L 864 159" stroke-miterlimit="10"></path></g><g transform="translate(-6,-6) scale(1,1)"><path fill="#FFFFFF" stroke="none" d="M 872.419035512032 179.3253497152483 L 864 159 L 855.580964487968 179.3253497152483"></path></g><g transform="translate(-6,-6) scale(1,1)"><path fill="none" stroke="#000000" d="M 872.419035512032 179.3253497152483 L 864 159 L 855.580964487968 179.3253497152483 L 872.419035512032 179.3253497152483" stroke-miterlimit="10"></path></g><g transform="translate(-6,-6) scale(1,1)"><path fill="none" stroke="#000000" d="M 192 287 L 192 312 L 624 312 L 624 352" stroke-miterlimit="10"></path></g><g transform="translate(-6,-6) scale(1,1)"><path fill="#FFFFFF" stroke="none" d="M 615.580964487968 331.6746502847517 L 624 352 L 632.419035512032 331.6746502847517"></path></g><g transform="translate(-6,-6) scale(1,1)"><path fill="none" stroke="#000000" d="M 615.580964487968 331.6746502847517 L 624 352 L 632.419035512032 331.6746502847517 L 615.580964487968 331.6746502847517" stroke-miterlimit="10"></path></g><g transform="translate(-6,-6) scale(1,1)"><path fill="none" stroke="#000000" d="M 367 287 L 367 312 L 624 312 L 624 352" stroke-miterlimit="10"></path></g><g transform="translate(-6,-6) scale(1,1)"><path fill="#FFFFFF" stroke="none" d="M 615.580964487968 331.6746502847517 L 624 352 L 632.419035512032 331.6746502847517"></path></g><g transform="translate(-6,-6) scale(1,1)"><path fill="none" stroke="#000000" d="M 615.580964487968 331.6746502847517 L 624 352 L 632.419035512032 331.6746502847517 L 615.580964487968 331.6746502847517" stroke-miterlimit="10"></path></g><g transform="translate(-6,-6) scale(1,1)"><path fill="none" stroke="#000000" d="M 528 287 L 528 312 L 624 312 L 624 352" stroke-miterlimit="10"></path></g><g transform="translate(-6,-6) scale(1,1)"><path fill="#FFFFFF" stroke="none" d="M 615.580964487968 331.6746502847517 L 624 352 L 632.419035512032 331.6746502847517"></path></g><g transform="translate(-6,-6) scale(1,1)"><path fill="none" stroke="#000000" d="M 615.580964487968 331.6746502847517 L 624 352 L 632.419035512032 331.6746502847517 L 615.580964487968 331.6746502847517" stroke-miterlimit="10"></path></g><g transform="translate(-6,-6) scale(1,1)"><path fill="none" stroke="#000000" d="M 688 287 L 688 312 L 624 312 L 624 352" stroke-miterlimit="10"></path></g><g transform="translate(-6,-6) scale(1,1)"><path fill="#FFFFFF" stroke="none" d="M 615.580964487968 331.6746502847517 L 624 352 L 632.419035512032 331.6746502847517"></path></g><g transform="translate(-6,-6) scale(1,1)"><path fill="none" stroke="#000000" d="M 615.580964487968 331.6746502847517 L 624 352 L 632.419035512032 331.6746502847517 L 615.580964487968 331.6746502847517" stroke-miterlimit="10"></path></g><g transform="translate(-6,-6) scale(1,1)"><path fill="none" stroke="#000000" d="M 840 287 L 840 312 L 624 312 L 624 352" stroke-miterlimit="10"></path></g><g transform="translate(-6,-6) scale(1,1)"><path fill="#FFFFFF" stroke="none" d="M 615.580964487968 331.6746502847517 L 624 352 L 632.419035512032 331.6746502847517"></path></g><g transform="translate(-6,-6) scale(1,1)"><path fill="none" stroke="#000000" d="M 615.580964487968 331.6746502847517 L 624 352 L 632.419035512032 331.6746502847517 L 615.580964487968 331.6746502847517" stroke-miterlimit="10"></path></g><g transform="translate(-6,-6) scale(1,1)"><path fill="none" stroke="#000000" d="M 960 272 L 960 312 L 624 312 L 624 352" stroke-miterlimit="10"></path></g><g transform="translate(-6,-6) scale(1,1)"><path fill="#FFFFFF" stroke="none" d="M 615.580964487968 331.6746502847517 L 624 352 L 632.419035512032 331.6746502847517"></path></g><g transform="translate(-6,-6) scale(1,1)"><path fill="none" stroke="#000000" d="M 615.580964487968 331.6746502847517 L 624 352 L 632.419035512032 331.6746502847517 L 615.580964487968 331.6746502847517" stroke-miterlimit="10"></path></g><g transform="translate(-6,-6) scale(1,1)"><path fill="none" stroke="#000000" d="M 1088 287 L 1088 312 L 624 312 L 624 352" stroke-miterlimit="10"></path></g><g transform="translate(-6,-6) scale(1,1)"><path fill="#FFFFFF" stroke="none" d="M 615.580964487968 331.6746502847517 L 624 352 L 632.419035512032 331.6746502847517"></path></g><g transform="translate(-6,-6) scale(1,1)"><path fill="none" stroke="#000000" d="M 615.580964487968 331.6746502847517 L 624 352 L 632.419035512032 331.6746502847517 L 615.580964487968 331.6746502847517" stroke-miterlimit="10"></path></g><g transform="translate(-6,-6) scale(1,1)"><path fill="none" stroke="#000000" d="M 1187 272 L 1187 312 L 624 312 L 624 352" stroke-miterlimit="10"></path></g><g transform="translate(-6,-6) scale(1,1)"><path fill="#FFFFFF" stroke="none" d="M 615.580964487968 331.6746502847517 L 624 352 L 632.419035512032 331.6746502847517"></path></g><g transform="translate(-6,-6) scale(1,1)"><path fill="none" stroke="#000000" d="M 615.580964487968 331.6746502847517 L 624 352 L 632.419035512032 331.6746502847517 L 615.580964487968 331.6746502847517" stroke-miterlimit="10"></path></g><g transform="translate(-6,-6) scale(1,1)"><path fill="none" stroke="#000000" d="M 176 159 L 176 208 L 328 208 L 328 248" stroke-miterlimit="10"></path></g><g transform="translate(-6,-6) scale(1,1)"><g><path fill="none" stroke="none"></path><text fill="#000000" stroke="none" font-family="Arial" font-size="13px" font-style="normal" font-weight="normal" text-decoration="none" x="202.66455078125" y="198">+isMadeWithMilk</text></g></g><g transform="translate(-6,-6) scale(1,1)"><g><path fill="none" stroke="none"></path><text fill="#000000" stroke="none" font-family="Arial" font-size="13px" font-style="normal" font-weight="normal" text-decoration="none" x="160.220458984375" y="185">*</text></g></g><g transform="translate(-6,-6) scale(1,1)"><g><path fill="none" stroke="none"></path><text fill="#000000" stroke="none" font-family="Arial" font-size="13px" font-style="normal" font-weight="normal" text-decoration="none" x="312.220458984375" y="242">*</text></g></g><g transform="translate(-6,-6) scale(1,1)"><path fill="none" stroke="#000000" d="M 72 159 L 72 408 L 1232 408 L 1232 256 L 1207 256" stroke-miterlimit="10"></path></g><g transform="translate(-6,-6) scale(1,1)"><g><path fill="none" stroke="none"></path><text fill="#000000" stroke="none" font-family="Arial" font-size="13px" font-style="normal" font-weight="normal" text-decoration="none" x="1118.5" y="403">+isMadeWithMold</text></g></g><g transform="translate(-6,-6) scale(1,1)"><g><path fill="none" stroke="none"></path><text fill="#000000" stroke="none" font-family="Arial" font-size="13px" font-style="normal" font-weight="normal" text-decoration="none" x="56.220458984375" y="185">*</text></g></g><g transform="translate(-6,-6) scale(1,1)"><g><path fill="none" stroke="none"></path><text fill="#000000" stroke="none" font-family="Arial" font-size="13px" font-style="normal" font-weight="normal" text-decoration="none" x="1215.220458984375" y="274">*</text></g></g><g transform="translate(-6,-6) scale(1,1)"><path fill="none" stroke="#000000" d="M 911 512 L 1248 512 L 1248 224 L 1184 224 L 1184 248" stroke-miterlimit="10" stroke-dasharray="3"></path></g><g transform="translate(-6,-6) scale(1,1)"><path fill="none" stroke="#000000" d="M 1179.7904822439841 237.83732514237585 L 1184 248 L 1188.2095177560159 237.83732514237585" stroke-miterlimit="10"></path></g><g transform="translate(-6,-6) scale(1,1)"><g><path fill="none" stroke="none"></path><text fill="#000000" stroke="none" font-family="Arial" font-size="13px" font-style="normal" font-weight="normal" text-decoration="none" x="983.5" y="507">+isMadeWithMold</text></g></g><g transform="translate(-6,-6) scale(1,1)"><rect fill="#ffffff" stroke="none" x="96" y="501" width="111.43212890625" height="37"></rect></g><g transform="translate(-6,-6) scale(1,1)"><path fill="none" stroke="#000000" d="M 96 501 L 207.43212890625 501 L 207.43212890625 538 L 96 538 L 96 501 Z Z" stroke-miterlimit="10"></path></g><g transform="translate(-6,-6) scale(1,1)"><g><path fill="none" stroke="none"></path><text fill="#000000" stroke="none" font-family="Arial" font-size="13px" font-style="normal" font-weight="normal" text-decoration="none" x="120.64111328125" y="516.5">«property»</text></g></g><g transform="translate(-6,-6) scale(1,1)"><g><path fill="none" stroke="none"></path><text fill="#000000" stroke="none" font-family="Arial" font-size="13px" font-style="normal" font-weight="bold" text-decoration="none" x="100.5" y="532">isMadeWithMold</text></g></g><g transform="translate(-6,-6) scale(1,1)"><rect fill="#ffffff" stroke="none" x="384" y="501" width="156.97021484375" height="37"></rect></g><g transform="translate(-6,-6) scale(1,1)"><path fill="none" stroke="#000000" d="M 384 501 L 540.97021484375 501 L 540.97021484375 538 L 384 538 L 384 501 Z Z" stroke-miterlimit="10"></path></g><g transform="translate(-6,-6) scale(1,1)"><g><path fill="none" stroke="none"></path><text fill="#000000" stroke="none" font-family="Arial" font-size="13px" font-style="normal" font-weight="normal" text-decoration="none" x="431.41015625" y="516.5">«property»</text></g></g><g transform="translate(-6,-6) scale(1,1)"><g><path fill="none" stroke="none"></path><text fill="#000000" stroke="none" font-family="Arial" font-size="13px" font-style="normal" font-weight="bold" text-decoration="none" x="388.5" y="532">isMadeWithRawMaterial</text></g></g><g transform="translate(-6,-6) scale(1,1)"><rect fill="#ffffff" stroke="none" x="224" y="448" width="106.39208984375" height="37"></rect></g><g transform="translate(-6,-6) scale(1,1)"><path fill="none" stroke="#000000" d="M 224 448 L 330.39208984375 448 L 330.39208984375 485 L 224 485 L 224 448 Z Z" stroke-miterlimit="10"></path></g><g transform="translate(-6,-6) scale(1,1)"><g><path fill="none" stroke="none"></path><text fill="#000000" stroke="none" font-family="Arial" font-size="13px" font-style="normal" font-weight="normal" text-decoration="none" x="246.12109375" y="463.5">«property»</text></g></g><g transform="translate(-6,-6) scale(1,1)"><g><path fill="none" stroke="none"></path><text fill="#000000" stroke="none" font-family="Arial" font-size="13px" font-style="normal" font-weight="bold" text-decoration="none" x="228.5" y="479">isMadeWithMilk</text></g></g><g transform="translate(-6,-6) scale(1,1)"><path fill="none" stroke="#000000" d="M 252 208 L 280 208 L 280 448" stroke-miterlimit="10" stroke-dasharray="3"></path></g><g transform="translate(-6,-6) scale(1,1)"><path fill="none" stroke="#000000" d="M 316 368 L 462 368 L 462 501" stroke-miterlimit="10" stroke-dasharray="3"></path></g><g transform="translate(-6,-6) scale(1,1)"><path fill="none" stroke="#000000" d="M 1232 332 L 1232 408 L 152 408 L 152 501" stroke-miterlimit="10" stroke-dasharray="3"></path></g><g transform="translate(-6,-6) scale(1,1)"><path fill="none" stroke="#000000" d="M 208 519 L 383 519" stroke-miterlimit="10"></path></g><g transform="translate(-6,-6) scale(1,1)"><path fill="#FFFFFF" stroke="none" d="M 362.6746502847517 527.419035512032 L 383 519 L 362.6746502847517 510.580964487968"></path></g><g transform="translate(-6,-6) scale(1,1)"><path fill="none" stroke="#000000" d="M 362.6746502847517 527.419035512032 L 383 519 L 362.6746502847517 510.580964487968 L 362.6746502847517 527.419035512032" stroke-miterlimit="10"></path></g><g transform="translate(-6,-6) scale(1,1)"><path fill="none" stroke="#000000" d="M 330 464 L 424 464 L 424 501" stroke-miterlimit="10"></path></g><g transform="translate(-6,-6) scale(1,1)"><path fill="#FFFFFF" stroke="none" d="M 415.580964487968 480.6746502847517 L 424 501 L 432.419035512032 480.6746502847517"></path></g><g transform="translate(-6,-6) scale(1,1)"><path fill="none" stroke="#000000" d="M 415.580964487968 480.6746502847517 L 424 501 L 432.419035512032 480.6746502847517 L 415.580964487968 480.6746502847517" stroke-miterlimit="10"></path></g><g transform="translate(-6,-6) scale(1,1)"><rect fill="#ffffff" stroke="none" x="743" y="416" width="198.541015625" height="39"></rect></g><g transform="translate(-6,-6) scale(1,1)"><path fill="none" stroke="#000000" d="M 743 416 L 941.541015625 416 L 941.541015625 455 L 743 455 L 743 416 Z Z" stroke-miterlimit="10"></path></g><g transform="translate(-6,-6) scale(1,1)"><g><path fill="none" stroke="none"></path><text fill="#000000" stroke="none" font-family="Arial" font-size="13px" font-style="normal" font-weight="bold" text-decoration="none" x="778.34326171875" y="434">MoldRipenedCheese</text></g></g><g transform="translate(-6,-6) scale(1,1)"><g><path fill="none" stroke="none"></path><text fill="#000000" stroke="none" font-family="Arial" font-size="13px" font-style="normal" font-weight="normal" text-decoration="none" x="747" y="449">{IRI="obo:FOODON_03306447"}</text></g></g><g transform="translate(-6,-6) scale(1,1)"><path fill="none" stroke="#000000" d="M 743 432 L 32 432 L 32 159" stroke-miterlimit="10"></path></g><g transform="translate(-6,-6) scale(1,1)"><path fill="#FFFFFF" stroke="none" d="M 40.419035512031975 179.3253497152483 L 32 159 L 23.580964487968025 179.3253497152483"></path></g><g transform="translate(-6,-6) scale(1,1)"><path fill="none" stroke="#000000" d="M 40.419035512031975 179.3253497152483 L 32 159 L 23.580964487968025 179.3253497152483 L 40.419035512031975 179.3253497152483" stroke-miterlimit="10"></path></g><g transform="translate(-6,-6) scale(1,1)"><path fill="none" stroke="#000000" d="M 842 495 L 842 456" stroke-miterlimit="10"></path></g><g transform="translate(-6,-6) scale(1,1)"><path fill="#FFFFFF" stroke="none" d="M 850.419035512032 476.3253497152483 L 842 456 L 833.580964487968 476.3253497152483"></path></g><g transform="translate(-6,-6) scale(1,1)"><path fill="none" stroke="#000000" d="M 850.419035512032 476.3253497152483 L 842 456 L 833.580964487968 476.3253497152483 L 850.419035512032 476.3253497152483" stroke-miterlimit="10"></path></g><g transform="translate(-6,-6) scale(1,1)"><g><path fill="none" stroke="none"></path><text fill="#000000" stroke="none" font-family="Arial" font-size="13px" font-style="normal" font-weight="normal" text-decoration="none" x="565" y="87">{disjoint, complete}</text></g></g><g transform="translate(-6,-6) scale(1,1)"><g><path fill="none" stroke="none"></path><text fill="#000000" stroke="none" font-family="Arial" font-size="13px" font-style="normal" font-weight="normal" text-decoration="none" x="645" y="335">{disjoint, complete}</text></g></g></g></svg>